{
  "version": "1.dev.476a49b",
  "modules": [
    {
      "id": 1,
      "plugin": "Core",
      "version": "1.1.6",
      "model": "AudioInterface",
      "params": [],
      "leftModuleId": 2,
      "rightModuleId": 68,
      "data": {
        "audio": {
          "driver": 1,
          "deviceName": "hw:Sanskrit 6th,0",
          "offset": 0,
          "maxChannels": 8,
          "sampleRate": 48000,
          "blockSize": 2048
        }
      },
      "pos": [
        42,
        0
      ]
    },
    {
      "id": 2,
      "plugin": "Fundamental",
      "version": "1.4.0",
      "model": "VCMixer",
      "params": [
        {
          "id": 0,
          "value": 1.0
        },
        {
          "id": 1,
          "value": 1.0
        },
        {
          "id": 2,
          "value": 1.0
        },
        {
          "id": 3,
          "value": 1.0
        },
        {
          "id": 4,
          "value": 0.0
        }
      ],
      "leftModuleId": 133,
      "rightModuleId": 1,
      "pos": [
        32,
        0
      ]
    },
    {
      "id": 34,
      "plugin": "Core",
      "version": "1.1.6",
      "model": "MIDIToCVInterface",
      "params": [],
      "rightModuleId": 59,
      "data": {
        "channels": 1,
        "polyMode": 0,
        "clockDivision": 24,
        "lastPitch": 8192,
        "lastMod": 0,
        "midi": {
          "driver": -11,
          "deviceName": "QWERTY keyboard (US)",
          "channel": -1
        }
      },
      "pos": [
        2,
        0
      ]
    },
    {
      "id": 59,
      "plugin": "KautenjaDSP-PotatoChips",
      "version": "1.8.0",
      "model": "2A03",
      "params": [
        {
          "id": 0,
          "value": 0.0
        },
        {
          "id": 1,
          "value": 0.0
        },
        {
          "id": 2,
          "value": 0.0
        },
        {
          "id": 3,
          "value": 7.0
        },
        {
          "id": 4,
          "value": 2.0
        },
        {
          "id": 5,
          "value": 2.0
        },
        {
          "id": 6,
          "value": 0.899999976
        },
        {
          "id": 7,
          "value": 0.899999976
        },
        {
          "id": 8,
          "value": 0.899999976
        }
      ],
      "leftModuleId": 34,
      "rightModuleId": 133,
      "pos": [
        10,
        0
      ]
    },
    {
      "id": 64,
      "plugin": "Fundamental",
      "version": "1.4.0",
      "model": "Scope",
      "params": [
        {
          "id": 0,
          "value": 0.0
        },
        {
          "id": 1,
          "value": 0.0
        },
        {
          "id": 2,
          "value": 0.0
        },
        {
          "id": 3,
          "value": 0.0
        },
        {
          "id": 4,
          "value": 14.0
        },
        {
          "id": 5,
          "value": 0.0
        },
        {
          "id": 6,
          "value": 0.0
        },
        {
          "id": 7,
          "value": 0.0
        }
      ],
      "rightModuleId": 65,
      "data": {
        "lissajous": 0,
        "external": 0
      },
      "pos": [
        2,
        1
      ]
    },
    {
      "id": 65,
      "plugin": "Fundamental",
      "version": "1.4.0",
      "model": "Scope",
      "params": [
        {
          "id": 0,
          "value": 0.0
        },
        {
          "id": 1,
          "value": 0.0
        },
        {
          "id": 2,
          "value": 0.0
        },
        {
          "id": 3,
          "value": 0.0
        },
        {
          "id": 4,
          "value": 14.0
        },
        {
          "id": 5,
          "value": 0.0
        },
        {
          "id": 6,
          "value": 0.0
        },
        {
          "id": 7,
          "value": 0.0
        }
      ],
      "leftModuleId": 64,
      "rightModuleId": 66,
      "data": {
        "lissajous": 0,
        "external": 0
      },
      "pos": [
        15,
        1
      ]
    },
    {
      "id": 66,
      "plugin": "Fundamental",
      "version": "1.4.0",
      "model": "Scope",
      "params": [
        {
          "id": 0,
          "value": 0.0
        },
        {
          "id": 1,
          "value": 0.0
        },
        {
          "id": 2,
          "value": 0.0
        },
        {
          "id": 3,
          "value": 0.0
        },
        {
          "id": 4,
          "value": 14.0
        },
        {
          "id": 5,
          "value": 0.0
        },
        {
          "id": 6,
          "value": 0.0
        },
        {
          "id": 7,
          "value": 0.0
        }
      ],
      "leftModuleId": 65,
      "rightModuleId": 67,
      "data": {
        "lissajous": 0,
        "external": 0
      },
      "pos": [
        28,
        1
      ]
    },
    {
      "id": 67,
      "plugin": "Fundamental",
      "version": "1.4.0",
      "model": "Scope",
      "params": [
        {
          "id": 0,
          "value": 0.0
        },
        {
          "id": 1,
          "value": 0.0
        },
        {
          "id": 2,
          "value": 0.0
        },
        {
          "id": 3,
          "value": 0.0
        },
        {
          "id": 4,
          "value": 14.0
        },
        {
          "id": 5,
          "value": 0.0
        },
        {
          "id": 6,
          "value": 0.0
        },
        {
          "id": 7,
          "value": 0.0
        }
      ],
      "leftModuleId": 66,
      "data": {
        "lissajous": 0,
        "external": 0
      },
      "pos": [
        41,
        1
      ]
    },
    {
      "id": 68,
      "plugin": "KautenjaDSP",
      "version": "1.0.0",
      "model": "CountingHertz",
      "params": [],
      "leftModuleId": 1,
      "rightModuleId": 69,
      "pos": [
        52,
        0
      ]
    },
    {
      "id": 69,
      "plugin": "Bogaudio",
      "version": "1.1.34",
      "model": "Bogaudio-AnalyzerXL",
      "params": [],
      "leftModuleId": 68,
      "data": {
        "frequency_plot": "log",
        "range": 0.0,
        "amplitude_plot": "decibels_80",
        "smooth": 0.25,
        "quality": "good",
        "window": "kaiser"
      },
      "pos": [
        57,
        0
      ]
    },
    {
      "id": 133,
      "plugin": "Fundamental",
      "version": "1.4.0",
      "model": "ADSR",
      "params": [
        {
          "id": 0,
          "value": 0.636500001
        },
        {
          "id": 1,
          "value": 0.5
        },
        {
          "id": 2,
          "value": 0.5
        },
        {
          "id": 3,
          "value": 0.5
        }
      ],
      "leftModuleId": 59,
      "rightModuleId": 2,
      "pos": [
        24,
        0
      ]
    },
    {
      "id": 134,
      "plugin": "Bogaudio",
      "version": "1.1.34",
      "model": "Bogaudio-AnalyzerXL",
      "params": [],
      "data": {
        "frequency_plot": "log",
        "range": 0.0,
        "amplitude_plot": "decibels_80",
        "smooth": 0.25,
        "quality": "good",
        "window": "kaiser"
      },
      "pos": [
        0,
        2
      ]
    }
  ],
  "cables": [
    {
      "id": 54,
      "outputModuleId": 59,
      "outputId": 0,
      "inputModuleId": 2,
      "inputId": 1,
      "color": "#c91847"
    },
    {
      "id": 56,
      "outputModuleId": 59,
      "outputId": 2,
      "inputModuleId": 2,
      "inputId": 3,
      "color": "#c9b70e"
    },
    {
      "id": 57,
      "outputModuleId": 59,
      "outputId": 3,
      "inputModuleId": 2,
      "inputId": 4,
      "color": "#0c8e15"
    },
    {
      "id": 69,
      "outputModuleId": 34,
      "outputId": 0,
      "inputModuleId": 59,
      "inputId": 1,
      "color": "#0c8e15"
    },
    {
      "id": 70,
      "outputModuleId": 34,
      "outputId": 0,
      "inputModuleId": 59,
      "inputId": 0,
      "color": "#0986ad"
    },
    {
      "id": 165,
      "outputModuleId": 2,
      "outputId": 0,
      "inputModuleId": 1,
      "inputId": 0,
      "color": "#c91847"
    },
    {
      "id": 166,
      "outputModuleId": 2,
      "outputId": 0,
      "inputModuleId": 1,
      "inputId": 1,
      "color": "#0986ad"
    },
    {
      "id": 167,
      "outputModuleId": 59,
      "outputId": 0,
      "inputModuleId": 64,
      "inputId": 0,
      "color": "#c9b70e"
    },
    {
      "id": 168,
      "outputModuleId": 59,
      "outputId": 1,
      "inputModuleId": 65,
      "inputId": 0,
      "color": "#0c8e15"
    },
    {
      "id": 169,
      "outputModuleId": 59,
      "outputId": 2,
      "inputModuleId": 66,
      "inputId": 0,
      "color": "#0986ad"
    },
    {
      "id": 170,
      "outputModuleId": 59,
      "outputId": 3,
      "inputModuleId": 67,
      "inputId": 0,
      "color": "#c9b70e"
    },
    {
      "id": 55,
      "outputModuleId": 59,
      "outputId": 1,
      "inputModuleId": 2,
      "inputId": 2,
      "color": "#0986ad"
    },
    {
      "id": 172,
      "outputModuleId": 59,
      "outputId": 0,
      "inputModuleId": 68,
      "inputId": 0,
      "color": "#0986ad"
    },
    {
      "id": 189,
      "outputModuleId": 34,
      "outputId": 0,
      "inputModuleId": 59,
      "inputId": 2,
      "color": "#c9b70e"
    },
    {
      "id": 173,
      "outputModuleId": 59,
      "outputId": 0,
      "inputModuleId": 69,
      "inputId": 0,
      "color": "#c91847"
    },
    {
      "id": 817,
      "outputModuleId": 133,
      "outputId": 0,
      "inputModuleId": 59,
      "inputId": 7,
      "color": "#c91847"
    },
    {
      "id": 818,
      "outputModuleId": 133,
      "outputId": 0,
      "inputModuleId": 59,
      "inputId": 8,
      "color": "#0986ad"
    },
    {
      "id": 819,
      "outputModuleId": 133,
      "outputId": 0,
      "inputModuleId": 59,
      "inputId": 9,
      "color": "#c9b70e"
    },
    {
      "id": 820,
      "outputModuleId": 34,
      "outputId": 1,
      "inputModuleId": 133,
      "inputId": 4,
      "color": "#0c8e15"
    },
    {
      "id": 821,
      "outputModuleId": 133,
      "outputId": 0,
      "inputModuleId": 2,
      "inputId": 7,
      "color": "#c91847"
    },
    {
      "id": 822,
      "outputModuleId": 59,
      "outputId": 2,
      "inputModuleId": 134,
      "inputId": 0,
      "color": "#0c8e15"
    }
  ]
}