{
  "version": "1.dev.eefe794",
  "modules": [
    {
      "id": 1,
      "plugin": "Core",
      "version": "1.1.6",
      "model": "AudioInterface",
      "params": [],
      "leftModuleId": 156,
      "data": {
        "audio": {
          "driver": 5,
          "deviceName": "Apple Inc.: Built-in Output",
          "offset": 0,
          "maxChannels": 8,
          "sampleRate": 44100,
          "blockSize": 512
        }
      },
      "pos": [
        53,
        0
      ]
    },
    {
      "id": 5,
      "plugin": "Core",
      "version": "1.1.6",
      "model": "MIDIToCVInterface",
      "params": [],
      "rightModuleId": 152,
      "data": {
        "channels": 1,
        "polyMode": 0,
        "clockDivision": 24,
        "lastPitch": 8192,
        "lastMod": 0,
        "midi": {
          "driver": -11,
          "deviceName": "QWERTY keyboard (US)",
          "channel": -1
        }
      },
      "pos": [
        1,
        1
      ]
    },
    {
      "id": 152,
      "plugin": "KautenjaDSP-PotatoChips",
      "version": "1.8.0",
      "model": "S_SMP",
      "params": [
        {
          "id": 0,
          "value": 3.5559988
        },
        {
          "id": 1,
          "value": 2.0
        },
        {
          "id": 2,
          "value": 2.0
        },
        {
          "id": 3,
          "value": 2.0
        },
        {
          "id": 4,
          "value": 2.0
        },
        {
          "id": 5,
          "value": 2.0
        },
        {
          "id": 6,
          "value": 2.0
        },
        {
          "id": 7,
          "value": 2.0
        },
        {
          "id": 8,
          "value": 0.0
        },
        {
          "id": 9,
          "value": 0.0
        },
        {
          "id": 10,
          "value": 0.0
        },
        {
          "id": 11,
          "value": 0.0
        },
        {
          "id": 12,
          "value": 0.0
        },
        {
          "id": 13,
          "value": 0.0
        },
        {
          "id": 14,
          "value": 0.0
        },
        {
          "id": 15,
          "value": 0.0
        },
        {
          "id": 16,
          "value": 0.0
        },
        {
          "id": 17,
          "value": 0.0
        },
        {
          "id": 18,
          "value": 0.0
        },
        {
          "id": 19,
          "value": 0.0
        },
        {
          "id": 20,
          "value": 0.0
        },
        {
          "id": 21,
          "value": 0.0
        },
        {
          "id": 22,
          "value": 0.0
        },
        {
          "id": 23,
          "value": 0.0
        },
        {
          "id": 24,
          "value": 16.0
        },
        {
          "id": 25,
          "value": 60.0
        },
        {
          "id": 26,
          "value": 127.0
        },
        {
          "id": 27,
          "value": 127.0
        },
        {
          "id": 28,
          "value": 127.0
        },
        {
          "id": 29,
          "value": 127.0
        },
        {
          "id": 30,
          "value": 127.0
        },
        {
          "id": 31,
          "value": 127.0
        },
        {
          "id": 32,
          "value": 127.0
        },
        {
          "id": 33,
          "value": 60.0
        },
        {
          "id": 34,
          "value": 127.0
        },
        {
          "id": 35,
          "value": 127.0
        },
        {
          "id": 36,
          "value": 127.0
        },
        {
          "id": 37,
          "value": 127.0
        },
        {
          "id": 38,
          "value": 127.0
        },
        {
          "id": 39,
          "value": 127.0
        },
        {
          "id": 40,
          "value": 127.0
        },
        {
          "id": 41,
          "value": 7.0
        },
        {
          "id": 42,
          "value": 0.0
        },
        {
          "id": 43,
          "value": 0.0
        },
        {
          "id": 44,
          "value": 0.0
        },
        {
          "id": 45,
          "value": 0.0
        },
        {
          "id": 46,
          "value": 0.0
        },
        {
          "id": 47,
          "value": 0.0
        },
        {
          "id": 48,
          "value": 0.0
        },
        {
          "id": 49,
          "value": 6.0
        },
        {
          "id": 50,
          "value": 0.0
        },
        {
          "id": 51,
          "value": 0.0
        },
        {
          "id": 52,
          "value": 0.0
        },
        {
          "id": 53,
          "value": 0.0
        },
        {
          "id": 54,
          "value": 0.0
        },
        {
          "id": 55,
          "value": 0.0
        },
        {
          "id": 56,
          "value": 0.0
        },
        {
          "id": 57,
          "value": 5.0
        },
        {
          "id": 58,
          "value": 0.0
        },
        {
          "id": 59,
          "value": 0.0
        },
        {
          "id": 60,
          "value": 0.0
        },
        {
          "id": 61,
          "value": 0.0
        },
        {
          "id": 62,
          "value": 0.0
        },
        {
          "id": 63,
          "value": 0.0
        },
        {
          "id": 64,
          "value": 0.0
        },
        {
          "id": 65,
          "value": 14.0
        },
        {
          "id": 66,
          "value": 0.0
        },
        {
          "id": 67,
          "value": 0.0
        },
        {
          "id": 68,
          "value": 0.0
        },
        {
          "id": 69,
          "value": 0.0
        },
        {
          "id": 70,
          "value": 0.0
        },
        {
          "id": 71,
          "value": 0.0
        },
        {
          "id": 72,
          "value": 0.0
        },
        {
          "id": 73,
          "value": 1.0
        },
        {
          "id": 74,
          "value": 1.0
        },
        {
          "id": 75,
          "value": 1.0
        },
        {
          "id": 76,
          "value": 1.0
        },
        {
          "id": 77,
          "value": 1.0
        },
        {
          "id": 78,
          "value": 1.0
        },
        {
          "id": 79,
          "value": 1.0
        },
        {
          "id": 80,
          "value": 1.0
        },
        {
          "id": 81,
          "value": 8.0
        },
        {
          "id": 82,
          "value": 40.0
        },
        {
          "id": 83,
          "value": 127.0
        },
        {
          "id": 84,
          "value": 127.0
        },
        {
          "id": 85,
          "value": 127.0
        },
        {
          "id": 86,
          "value": 127.0
        },
        {
          "id": 87,
          "value": 127.0
        },
        {
          "id": 88,
          "value": 0.0
        },
        {
          "id": 89,
          "value": 0.0
        },
        {
          "id": 90,
          "value": 0.0
        },
        {
          "id": 91,
          "value": 0.0
        },
        {
          "id": 92,
          "value": 0.0
        },
        {
          "id": 93,
          "value": 0.0
        },
        {
          "id": 94,
          "value": 0.0
        }
      ],
      "leftModuleId": 5,
      "pos": [
        9,
        1
      ]
    },
    {
      "id": 153,
      "plugin": "KautenjaDSP",
      "version": "1.0.0",
      "model": "Oscilloscope",
      "params": [
        {
          "id": 0,
          "value": 0.0
        },
        {
          "id": 1,
          "value": 0.0
        },
        {
          "id": 2,
          "value": 0.0
        },
        {
          "id": 3,
          "value": 0.0
        },
        {
          "id": 4,
          "value": 14.0
        },
        {
          "id": 5,
          "value": 0.0
        },
        {
          "id": 6,
          "value": 0.0
        },
        {
          "id": 7,
          "value": 0.0
        }
      ],
      "data": {
        "lissajous": 0,
        "external": 0
      },
      "pos": [
        1,
        2
      ]
    },
    {
      "id": 154,
      "plugin": "Bogaudio",
      "version": "1.1.34",
      "model": "Bogaudio-AnalyzerXL",
      "params": [],
      "rightModuleId": 156,
      "data": {
        "range": 0.0,
        "range_db": 80.0,
        "smooth": 0.25,
        "quality": "high",
        "window": "kaiser"
      },
      "pos": [
        1,
        0
      ]
    },
    {
      "id": 155,
      "plugin": "KautenjaDSP",
      "version": "1.0.0",
      "model": "Oscilloscope",
      "params": [
        {
          "id": 0,
          "value": 0.0
        },
        {
          "id": 1,
          "value": 0.0
        },
        {
          "id": 2,
          "value": 0.0
        },
        {
          "id": 3,
          "value": 0.0
        },
        {
          "id": 4,
          "value": 14.0
        },
        {
          "id": 5,
          "value": 0.0
        },
        {
          "id": 6,
          "value": 0.0
        },
        {
          "id": 7,
          "value": 0.0
        }
      ],
      "data": {
        "lissajous": 0,
        "external": 0
      },
      "pos": [
        0,
        3
      ]
    },
    {
      "id": 156,
      "plugin": "Fundamental",
      "version": "1.4.0",
      "model": "VCMixer",
      "params": [
        {
          "id": 0,
          "value": 1.0
        },
        {
          "id": 1,
          "value": 1.0
        },
        {
          "id": 2,
          "value": 1.0
        },
        {
          "id": 3,
          "value": 1.0
        },
        {
          "id": 4,
          "value": 1.0
        }
      ],
      "leftModuleId": 154,
      "rightModuleId": 1,
      "pos": [
        43,
        0
      ]
    }
  ],
  "cables": [
    {
      "id": 7,
      "outputModuleId": 152,
      "outputId": 0,
      "inputModuleId": 153,
      "inputId": 0,
      "color": "#0986ad"
    },
    {
      "id": 6,
      "outputModuleId": 152,
      "outputId": 1,
      "inputModuleId": 155,
      "inputId": 0,
      "color": "#c91847"
    },
    {
      "id": 10,
      "outputModuleId": 152,
      "outputId": 1,
      "inputModuleId": 154,
      "inputId": 1,
      "color": "#c91847"
    },
    {
      "id": 11,
      "outputModuleId": 152,
      "outputId": 0,
      "inputModuleId": 154,
      "inputId": 0,
      "color": "#0986ad"
    },
    {
      "id": 12,
      "outputModuleId": 152,
      "outputId": 0,
      "inputModuleId": 156,
      "inputId": 1,
      "color": "#0986ad"
    },
    {
      "id": 13,
      "outputModuleId": 152,
      "outputId": 1,
      "inputModuleId": 156,
      "inputId": 2,
      "color": "#c91847"
    },
    {
      "id": 45,
      "outputModuleId": 5,
      "outputId": 0,
      "inputModuleId": 152,
      "inputId": 0,
      "color": "#c9b70e"
    },
    {
      "id": 212,
      "outputModuleId": 5,
      "outputId": 1,
      "inputModuleId": 152,
      "inputId": 33,
      "color": "#c91847"
    },
    {
      "id": 218,
      "outputModuleId": 156,
      "outputId": 1,
      "inputModuleId": 1,
      "inputId": 0,
      "color": "#0986ad"
    },
    {
      "id": 219,
      "outputModuleId": 156,
      "outputId": 2,
      "inputModuleId": 1,
      "inputId": 1,
      "color": "#c91847"
    }
  ]
}