{
  "version": "1.dev.eefe794",
  "modules": [
    {
      "id": 1,
      "plugin": "Core",
      "version": "1.1.6",
      "model": "AudioInterface",
      "params": [],
      "leftModuleId": 19,
      "rightModuleId": 41,
      "data": {
        "audio": {
          "driver": 5,
          "deviceName": "Apple Inc.: Built-in Output",
          "offset": 0,
          "maxChannels": 8,
          "sampleRate": 44100,
          "blockSize": 4096
        }
      },
      "pos": [
        64,
        0
      ]
    },
    {
      "id": 5,
      "plugin": "Core",
      "version": "1.1.6",
      "model": "MIDIToCVInterface",
      "params": [],
      "rightModuleId": 27,
      "data": {
        "channels": 1,
        "polyMode": 0,
        "clockDivision": 24,
        "lastPitch": 8192,
        "lastMod": 0,
        "midi": {
          "driver": -11,
          "deviceName": "QWERTY keyboard (US)",
          "channel": -1
        }
      },
      "pos": [
        0,
        0
      ]
    },
    {
      "id": 12,
      "plugin": "Fundamental",
      "version": "1.4.0",
      "model": "Scope",
      "params": [
        {
          "id": 0,
          "value": 0.0
        },
        {
          "id": 1,
          "value": 0.0
        },
        {
          "id": 2,
          "value": 0.0
        },
        {
          "id": 3,
          "value": 0.0
        },
        {
          "id": 4,
          "value": 14.0
        },
        {
          "id": 5,
          "value": 0.0
        },
        {
          "id": 6,
          "value": 0.0
        },
        {
          "id": 7,
          "value": 0.0
        }
      ],
      "rightModuleId": 15,
      "data": {
        "lissajous": 0,
        "external": 0
      },
      "pos": [
        12,
        3
      ]
    },
    {
      "id": 15,
      "plugin": "Fundamental",
      "version": "1.4.0",
      "model": "Scope",
      "params": [
        {
          "id": 0,
          "value": 0.0
        },
        {
          "id": 1,
          "value": 0.0
        },
        {
          "id": 2,
          "value": 0.0
        },
        {
          "id": 3,
          "value": 0.0
        },
        {
          "id": 4,
          "value": 14.0
        },
        {
          "id": 5,
          "value": 0.0
        },
        {
          "id": 6,
          "value": 0.0
        },
        {
          "id": 7,
          "value": 0.0
        }
      ],
      "leftModuleId": 12,
      "rightModuleId": 17,
      "data": {
        "lissajous": 0,
        "external": 0
      },
      "pos": [
        25,
        3
      ]
    },
    {
      "id": 17,
      "plugin": "Fundamental",
      "version": "1.4.0",
      "model": "Scope",
      "params": [
        {
          "id": 0,
          "value": 0.0
        },
        {
          "id": 1,
          "value": 0.0
        },
        {
          "id": 2,
          "value": 0.0
        },
        {
          "id": 3,
          "value": 0.0
        },
        {
          "id": 4,
          "value": 14.0
        },
        {
          "id": 5,
          "value": 0.0
        },
        {
          "id": 6,
          "value": 0.0
        },
        {
          "id": 7,
          "value": 0.0
        }
      ],
      "leftModuleId": 15,
      "rightModuleId": 18,
      "data": {
        "lissajous": 0,
        "external": 0
      },
      "pos": [
        38,
        3
      ]
    },
    {
      "id": 18,
      "plugin": "Fundamental",
      "version": "1.4.0",
      "model": "Scope",
      "params": [
        {
          "id": 0,
          "value": 0.0
        },
        {
          "id": 1,
          "value": 0.0
        },
        {
          "id": 2,
          "value": 0.0
        },
        {
          "id": 3,
          "value": 0.0
        },
        {
          "id": 4,
          "value": 14.0
        },
        {
          "id": 5,
          "value": 0.0
        },
        {
          "id": 6,
          "value": 0.0
        },
        {
          "id": 7,
          "value": 0.0
        }
      ],
      "leftModuleId": 17,
      "data": {
        "lissajous": 0,
        "external": 0
      },
      "pos": [
        51,
        3
      ]
    },
    {
      "id": 19,
      "plugin": "Bogaudio",
      "version": "1.1.31",
      "model": "Bogaudio-Mix8",
      "params": [
        {
          "id": 0,
          "value": 0.727272749
        },
        {
          "id": 1,
          "value": 0.0
        },
        {
          "id": 2,
          "value": 0.0
        },
        {
          "id": 3,
          "value": 0.727272749
        },
        {
          "id": 4,
          "value": 0.0
        },
        {
          "id": 5,
          "value": 0.0
        },
        {
          "id": 6,
          "value": 0.727272749
        },
        {
          "id": 7,
          "value": 0.0
        },
        {
          "id": 8,
          "value": 0.0
        },
        {
          "id": 9,
          "value": 0.727272749
        },
        {
          "id": 10,
          "value": 0.0
        },
        {
          "id": 11,
          "value": 0.0
        },
        {
          "id": 12,
          "value": 0.727272749
        },
        {
          "id": 13,
          "value": 0.0
        },
        {
          "id": 14,
          "value": 0.0
        },
        {
          "id": 15,
          "value": 0.0
        },
        {
          "id": 16,
          "value": 1.0
        },
        {
          "id": 17,
          "value": 0.0
        },
        {
          "id": 18,
          "value": 0.0
        },
        {
          "id": 19,
          "value": 1.0
        },
        {
          "id": 20,
          "value": 0.0
        },
        {
          "id": 21,
          "value": 0.0
        },
        {
          "id": 22,
          "value": 1.0
        },
        {
          "id": 23,
          "value": 0.0
        },
        {
          "id": 24,
          "value": 0.909090936
        },
        {
          "id": 25,
          "value": 0.0
        }
      ],
      "leftModuleId": 27,
      "rightModuleId": 1,
      "data": {
        "poly_channel_offset": -1
      },
      "pos": [
        37,
        0
      ]
    },
    {
      "id": 27,
      "plugin": "KautenjaDSP-PotatoChips",
      "version": "1.7.0",
      "model": "SCC",
      "params": [
        {
          "id": 0,
          "value": 0.0
        },
        {
          "id": 1,
          "value": 0.0
        },
        {
          "id": 2,
          "value": 0.0
        },
        {
          "id": 3,
          "value": 0.0
        },
        {
          "id": 4,
          "value": 0.0
        },
        {
          "id": 5,
          "value": 15.0
        },
        {
          "id": 6,
          "value": 15.0
        },
        {
          "id": 7,
          "value": 15.0
        },
        {
          "id": 8,
          "value": 15.0
        },
        {
          "id": 9,
          "value": 15.0
        },
        {
          "id": 10,
          "value": 4.0
        },
        {
          "id": 11,
          "value": 0.0
        }
      ],
      "leftModuleId": 5,
      "rightModuleId": 19,
      "pos": [
        8,
        0
      ]
    },
    {
      "id": 36,
      "plugin": "Fundamental",
      "version": "1.4.0",
      "model": "Scope",
      "params": [
        {
          "id": 0,
          "value": 0.0
        },
        {
          "id": 1,
          "value": 0.0
        },
        {
          "id": 2,
          "value": 0.0
        },
        {
          "id": 3,
          "value": 0.0
        },
        {
          "id": 4,
          "value": 14.0
        },
        {
          "id": 5,
          "value": 0.0
        },
        {
          "id": 6,
          "value": 0.0
        },
        {
          "id": 7,
          "value": 0.0
        }
      ],
      "rightModuleId": 37,
      "data": {
        "lissajous": 0,
        "external": 0
      },
      "pos": [
        0,
        1
      ]
    },
    {
      "id": 37,
      "plugin": "Fundamental",
      "version": "1.4.0",
      "model": "Scope",
      "params": [
        {
          "id": 0,
          "value": 0.0
        },
        {
          "id": 1,
          "value": 0.0
        },
        {
          "id": 2,
          "value": 0.0
        },
        {
          "id": 3,
          "value": 0.0
        },
        {
          "id": 4,
          "value": 14.0
        },
        {
          "id": 5,
          "value": 0.0
        },
        {
          "id": 6,
          "value": 0.0
        },
        {
          "id": 7,
          "value": 0.0
        }
      ],
      "leftModuleId": 36,
      "rightModuleId": 38,
      "data": {
        "lissajous": 0,
        "external": 0
      },
      "pos": [
        13,
        1
      ]
    },
    {
      "id": 38,
      "plugin": "Fundamental",
      "version": "1.4.0",
      "model": "Scope",
      "params": [
        {
          "id": 0,
          "value": 0.0
        },
        {
          "id": 1,
          "value": 0.0
        },
        {
          "id": 2,
          "value": 0.0
        },
        {
          "id": 3,
          "value": 0.0
        },
        {
          "id": 4,
          "value": 14.0
        },
        {
          "id": 5,
          "value": 0.0
        },
        {
          "id": 6,
          "value": 0.0
        },
        {
          "id": 7,
          "value": 0.0
        }
      ],
      "leftModuleId": 37,
      "rightModuleId": 39,
      "data": {
        "lissajous": 0,
        "external": 0
      },
      "pos": [
        26,
        1
      ]
    },
    {
      "id": 39,
      "plugin": "Fundamental",
      "version": "1.4.0",
      "model": "Scope",
      "params": [
        {
          "id": 0,
          "value": 0.0
        },
        {
          "id": 1,
          "value": 0.0
        },
        {
          "id": 2,
          "value": 0.0
        },
        {
          "id": 3,
          "value": 0.0
        },
        {
          "id": 4,
          "value": 14.0
        },
        {
          "id": 5,
          "value": 0.0
        },
        {
          "id": 6,
          "value": 0.0
        },
        {
          "id": 7,
          "value": 0.0
        }
      ],
      "leftModuleId": 38,
      "rightModuleId": 40,
      "data": {
        "lissajous": 0,
        "external": 0
      },
      "pos": [
        39,
        1
      ]
    },
    {
      "id": 40,
      "plugin": "Fundamental",
      "version": "1.4.0",
      "model": "Scope",
      "params": [
        {
          "id": 0,
          "value": 0.0
        },
        {
          "id": 1,
          "value": 0.0
        },
        {
          "id": 2,
          "value": 0.0
        },
        {
          "id": 3,
          "value": 0.0
        },
        {
          "id": 4,
          "value": 14.0
        },
        {
          "id": 5,
          "value": 0.0
        },
        {
          "id": 6,
          "value": 0.0
        },
        {
          "id": 7,
          "value": 0.0
        }
      ],
      "leftModuleId": 39,
      "data": {
        "lissajous": 0,
        "external": 0
      },
      "pos": [
        52,
        1
      ]
    },
    {
      "id": 41,
      "plugin": "KautenjaDSP",
      "version": "1.0.0",
      "model": "CountingHertz",
      "params": [],
      "leftModuleId": 1,
      "pos": [
        74,
        0
      ]
    }
  ],
  "cables": [
    {
      "id": 104,
      "outputModuleId": 19,
      "outputId": 0,
      "inputModuleId": 1,
      "inputId": 0,
      "color": "#0986ad"
    },
    {
      "id": 105,
      "outputModuleId": 19,
      "outputId": 1,
      "inputModuleId": 1,
      "inputId": 1,
      "color": "#0986ad"
    },
    {
      "id": 714,
      "outputModuleId": 27,
      "outputId": 1,
      "inputModuleId": 19,
      "inputId": 5,
      "color": "#c91847"
    },
    {
      "id": 715,
      "outputModuleId": 27,
      "outputId": 0,
      "inputModuleId": 19,
      "inputId": 2,
      "color": "#c91847"
    },
    {
      "id": 716,
      "outputModuleId": 27,
      "outputId": 2,
      "inputModuleId": 19,
      "inputId": 8,
      "color": "#c91847"
    },
    {
      "id": 717,
      "outputModuleId": 27,
      "outputId": 3,
      "inputModuleId": 19,
      "inputId": 11,
      "color": "#c91847"
    },
    {
      "id": 718,
      "outputModuleId": 27,
      "outputId": 4,
      "inputModuleId": 19,
      "inputId": 14,
      "color": "#c91847"
    },
    {
      "id": 719,
      "outputModuleId": 5,
      "outputId": 0,
      "inputModuleId": 27,
      "inputId": 0,
      "color": "#c91847"
    },
    {
      "id": 720,
      "outputModuleId": 5,
      "outputId": 0,
      "inputModuleId": 27,
      "inputId": 1,
      "color": "#c91847"
    },
    {
      "id": 721,
      "outputModuleId": 5,
      "outputId": 0,
      "inputModuleId": 27,
      "inputId": 2,
      "color": "#c91847"
    },
    {
      "id": 722,
      "outputModuleId": 5,
      "outputId": 0,
      "inputModuleId": 27,
      "inputId": 3,
      "color": "#c91847"
    },
    {
      "id": 723,
      "outputModuleId": 5,
      "outputId": 0,
      "inputModuleId": 27,
      "inputId": 4,
      "color": "#c91847"
    },
    {
      "id": 743,
      "outputModuleId": 27,
      "outputId": 0,
      "inputModuleId": 36,
      "inputId": 0,
      "color": "#0c8e15"
    },
    {
      "id": 744,
      "outputModuleId": 27,
      "outputId": 1,
      "inputModuleId": 37,
      "inputId": 0,
      "color": "#c91847"
    },
    {
      "id": 745,
      "outputModuleId": 27,
      "outputId": 2,
      "inputModuleId": 38,
      "inputId": 0,
      "color": "#0986ad"
    },
    {
      "id": 746,
      "outputModuleId": 27,
      "outputId": 3,
      "inputModuleId": 39,
      "inputId": 0,
      "color": "#c9b70e"
    },
    {
      "id": 747,
      "outputModuleId": 27,
      "outputId": 4,
      "inputModuleId": 40,
      "inputId": 0,
      "color": "#0c8e15"
    },
    {
      "id": 748,
      "outputModuleId": 19,
      "outputId": 0,
      "inputModuleId": 41,
      "inputId": 0,
      "color": "#c91847"
    }
  ]
}