{
  "version": "1.dev.476a49b",
  "modules": [
    {
      "id": 1,
      "plugin": "Core",
      "version": "1.1.6",
      "model": "AudioInterface",
      "params": [],
      "leftModuleId": 156,
      "data": {
        "audio": {
          "driver": 1,
          "deviceName": "default",
          "offset": 0,
          "maxChannels": 8,
          "sampleRate": 44100,
          "blockSize": 512
        }
      },
      "pos": [
        64,
        2
      ]
    },
    {
      "id": 5,
      "plugin": "Core",
      "version": "1.1.6",
      "model": "MIDIToCVInterface",
      "params": [],
      "rightModuleId": 157,
      "data": {
        "channels": 4,
        "polyMode": 0,
        "clockDivision": 24,
        "lastPitch": 8192,
        "lastMod": 0,
        "midi": {
          "driver": -11,
          "deviceName": "QWERTY keyboard (US)",
          "channel": -1
        }
      },
      "pos": [
        9,
        2
      ]
    },
    {
      "id": 152,
      "plugin": "KautenjaDSP-PotatoChips",
      "version": "1.8.0",
      "model": "S_SMP_BRR",
      "params": [
        {
          "id": 0,
          "value": 2.0
        },
        {
          "id": 1,
          "value": 2.0
        },
        {
          "id": 2,
          "value": 2.0
        },
        {
          "id": 3,
          "value": 2.08999991
        },
        {
          "id": 4,
          "value": 2.0
        },
        {
          "id": 5,
          "value": 2.0
        },
        {
          "id": 6,
          "value": 2.0
        },
        {
          "id": 7,
          "value": 2.0
        },
        {
          "id": 8,
          "value": 0.0
        },
        {
          "id": 9,
          "value": 0.0
        },
        {
          "id": 10,
          "value": 0.0
        },
        {
          "id": 11,
          "value": 0.0
        },
        {
          "id": 12,
          "value": 0.0
        },
        {
          "id": 13,
          "value": 0.0
        },
        {
          "id": 14,
          "value": 0.0
        },
        {
          "id": 15,
          "value": 0.0
        },
        {
          "id": 16,
          "value": 0.0
        },
        {
          "id": 17,
          "value": 0.0
        },
        {
          "id": 18,
          "value": 0.0
        },
        {
          "id": 19,
          "value": 0.0
        },
        {
          "id": 20,
          "value": 0.0
        },
        {
          "id": 21,
          "value": 0.0
        },
        {
          "id": 22,
          "value": 0.0
        },
        {
          "id": 23,
          "value": 127.0
        },
        {
          "id": 24,
          "value": 0.0
        },
        {
          "id": 25,
          "value": 0.0
        },
        {
          "id": 26,
          "value": 0.0
        },
        {
          "id": 27,
          "value": 0.0
        },
        {
          "id": 28,
          "value": 0.0
        },
        {
          "id": 29,
          "value": 0.0
        },
        {
          "id": 30,
          "value": 0.0
        },
        {
          "id": 31,
          "value": 127.0
        }
      ],
      "leftModuleId": 157,
      "rightModuleId": 156,
      "pos": [
        25,
        2
      ]
    },
    {
      "id": 153,
      "plugin": "KautenjaDSP",
      "version": "1.0.0",
      "model": "Oscilloscope",
      "params": [
        {
          "id": 0,
          "value": 0.0
        },
        {
          "id": 1,
          "value": 0.0
        },
        {
          "id": 2,
          "value": 0.0
        },
        {
          "id": 3,
          "value": 0.0
        },
        {
          "id": 4,
          "value": 14.0
        },
        {
          "id": 5,
          "value": 0.0
        },
        {
          "id": 6,
          "value": 0.0
        },
        {
          "id": 7,
          "value": 0.0
        }
      ],
      "rightModuleId": 173,
      "data": {
        "lissajous": 0,
        "external": 0
      },
      "pos": [
        0,
        3
      ]
    },
    {
      "id": 156,
      "plugin": "Fundamental",
      "version": "1.4.0",
      "model": "VCMixer",
      "params": [
        {
          "id": 0,
          "value": 1.0
        },
        {
          "id": 1,
          "value": 1.41421354
        },
        {
          "id": 2,
          "value": 1.41421354
        },
        {
          "id": 3,
          "value": 1.41421354
        },
        {
          "id": 4,
          "value": 1.41421354
        }
      ],
      "leftModuleId": 152,
      "rightModuleId": 1,
      "pos": [
        54,
        2
      ]
    },
    {
      "id": 157,
      "plugin": "Fundamental",
      "version": "1.4.0",
      "model": "ADSR",
      "params": [
        {
          "id": 0,
          "value": 0.5
        },
        {
          "id": 1,
          "value": 0.5
        },
        {
          "id": 2,
          "value": 0.5
        },
        {
          "id": 3,
          "value": 0.5
        }
      ],
      "leftModuleId": 5,
      "rightModuleId": 152,
      "pos": [
        17,
        2
      ]
    },
    {
      "id": 163,
      "plugin": "Fundamental",
      "version": "1.4.0",
      "model": "VCMixer",
      "params": [
        {
          "id": 0,
          "value": 1.0
        },
        {
          "id": 1,
          "value": 1.0
        },
        {
          "id": 2,
          "value": 1.0
        },
        {
          "id": 3,
          "value": 1.0
        },
        {
          "id": 4,
          "value": 1.0
        }
      ],
      "leftModuleId": 170,
      "rightModuleId": 165,
      "pos": [
        14,
        1
      ]
    },
    {
      "id": 164,
      "plugin": "Fundamental",
      "version": "1.4.0",
      "model": "VCMixer",
      "params": [
        {
          "id": 0,
          "value": 1.0
        },
        {
          "id": 1,
          "value": 1.0
        },
        {
          "id": 2,
          "value": 1.0
        },
        {
          "id": 3,
          "value": 1.0
        },
        {
          "id": 4,
          "value": 1.0
        }
      ],
      "leftModuleId": 169,
      "rightModuleId": 166,
      "pos": [
        47,
        1
      ]
    },
    {
      "id": 165,
      "plugin": "Fundamental",
      "version": "1.4.0",
      "model": "VCMixer",
      "params": [
        {
          "id": 0,
          "value": 1.0
        },
        {
          "id": 1,
          "value": 1.0
        },
        {
          "id": 2,
          "value": 1.0
        },
        {
          "id": 3,
          "value": 1.0
        },
        {
          "id": 4,
          "value": 1.0
        }
      ],
      "leftModuleId": 163,
      "rightModuleId": 167,
      "pos": [
        24,
        1
      ]
    },
    {
      "id": 166,
      "plugin": "Fundamental",
      "version": "1.4.0",
      "model": "VCMixer",
      "params": [
        {
          "id": 0,
          "value": 1.0
        },
        {
          "id": 1,
          "value": 1.0
        },
        {
          "id": 2,
          "value": 1.0
        },
        {
          "id": 3,
          "value": 1.0
        },
        {
          "id": 4,
          "value": 1.0
        }
      ],
      "leftModuleId": 164,
      "rightModuleId": 168,
      "pos": [
        57,
        1
      ]
    },
    {
      "id": 167,
      "plugin": "Fundamental",
      "version": "1.4.0",
      "model": "VCMixer",
      "params": [
        {
          "id": 0,
          "value": 1.0
        },
        {
          "id": 1,
          "value": 1.0
        },
        {
          "id": 2,
          "value": 1.0
        },
        {
          "id": 3,
          "value": 1.0
        },
        {
          "id": 4,
          "value": 1.0
        }
      ],
      "leftModuleId": 165,
      "rightModuleId": 169,
      "pos": [
        34,
        1
      ]
    },
    {
      "id": 168,
      "plugin": "Fundamental",
      "version": "1.4.0",
      "model": "VCMixer",
      "params": [
        {
          "id": 0,
          "value": 1.0
        },
        {
          "id": 1,
          "value": 1.0
        },
        {
          "id": 2,
          "value": 1.0
        },
        {
          "id": 3,
          "value": 1.0
        },
        {
          "id": 4,
          "value": 1.0
        }
      ],
      "leftModuleId": 166,
      "pos": [
        67,
        1
      ]
    },
    {
      "id": 169,
      "plugin": "Bogaudio",
      "version": "1.1.34",
      "model": "Bogaudio-Blank3",
      "params": [],
      "leftModuleId": 167,
      "rightModuleId": 164,
      "data": {},
      "pos": [
        44,
        1
      ]
    },
    {
      "id": 170,
      "plugin": "Fundamental",
      "version": "1.4.0",
      "model": "LFO",
      "params": [
        {
          "id": 0,
          "value": 1.0
        },
        {
          "id": 1,
          "value": 1.0
        },
        {
          "id": 2,
          "value": 2.59300041
        },
        {
          "id": 3,
          "value": 0.0
        },
        {
          "id": 4,
          "value": 0.0
        },
        {
          "id": 5,
          "value": 0.5
        },
        {
          "id": 6,
          "value": 0.0
        }
      ],
      "rightModuleId": 163,
      "pos": [
        4,
        1
      ]
    },
    {
      "id": 171,
      "plugin": "Bogaudio",
      "version": "1.1.34",
      "model": "Bogaudio-AnalyzerXL",
      "params": [],
      "rightModuleId": 172,
      "data": {
        "frequency_plot": "log",
        "range": 0.0,
        "amplitude_plot": "decibels_80",
        "smooth": 0.25,
        "quality": "high",
        "window": "kaiser"
      },
      "pos": [
        4,
        0
      ]
    },
    {
      "id": 172,
      "plugin": "Bogaudio",
      "version": "1.1.34",
      "model": "Bogaudio-AnalyzerXL",
      "params": [],
      "leftModuleId": 171,
      "data": {
        "frequency_plot": "log",
        "range": 0.0,
        "amplitude_plot": "decibels_80",
        "smooth": 0.25,
        "quality": "high",
        "window": "kaiser"
      },
      "pos": [
        46,
        0
      ]
    },
    {
      "id": 173,
      "plugin": "KautenjaDSP",
      "version": "1.0.0",
      "model": "Oscilloscope",
      "params": [
        {
          "id": 0,
          "value": 0.0
        },
        {
          "id": 1,
          "value": 0.0
        },
        {
          "id": 2,
          "value": 0.0
        },
        {
          "id": 3,
          "value": 0.0
        },
        {
          "id": 4,
          "value": 14.0
        },
        {
          "id": 5,
          "value": 0.0
        },
        {
          "id": 6,
          "value": 0.0
        },
        {
          "id": 7,
          "value": 0.0
        }
      ],
      "leftModuleId": 153,
      "data": {
        "lissajous": 0,
        "external": 0
      },
      "pos": [
        47,
        3
      ]
    }
  ],
  "cables": [
    {
      "id": 240,
      "outputModuleId": 5,
      "outputId": 1,
      "inputModuleId": 152,
      "inputId": 26,
      "color": "#0c8e15"
    },
    {
      "id": 241,
      "outputModuleId": 5,
      "outputId": 1,
      "inputModuleId": 152,
      "inputId": 27,
      "color": "#0c8e15"
    },
    {
      "id": 242,
      "outputModuleId": 5,
      "outputId": 1,
      "inputModuleId": 157,
      "inputId": 4,
      "color": "#0c8e15"
    },
    {
      "id": 243,
      "outputModuleId": 5,
      "outputId": 6,
      "inputModuleId": 157,
      "inputId": 5,
      "color": "#0c8e15"
    },
    {
      "id": 244,
      "outputModuleId": 157,
      "outputId": 0,
      "inputModuleId": 156,
      "inputId": 5,
      "color": "#0c8e15"
    },
    {
      "id": 245,
      "outputModuleId": 157,
      "outputId": 0,
      "inputModuleId": 156,
      "inputId": 6,
      "color": "#0c8e15"
    },
    {
      "id": 237,
      "outputModuleId": 5,
      "outputId": 1,
      "inputModuleId": 152,
      "inputId": 25,
      "color": "#0c8e15"
    },
    {
      "id": 236,
      "outputModuleId": 5,
      "outputId": 1,
      "inputModuleId": 152,
      "inputId": 24,
      "color": "#0c8e15"
    },
    {
      "id": 270,
      "outputModuleId": 5,
      "outputId": 1,
      "inputModuleId": 152,
      "inputId": 28,
      "color": "#0c8e15"
    },
    {
      "id": 271,
      "outputModuleId": 5,
      "outputId": 1,
      "inputModuleId": 152,
      "inputId": 29,
      "color": "#0c8e15"
    },
    {
      "id": 272,
      "outputModuleId": 5,
      "outputId": 1,
      "inputModuleId": 152,
      "inputId": 30,
      "color": "#0c8e15"
    },
    {
      "id": 273,
      "outputModuleId": 5,
      "outputId": 1,
      "inputModuleId": 152,
      "inputId": 31,
      "color": "#0c8e15"
    },
    {
      "id": 276,
      "outputModuleId": 5,
      "outputId": 0,
      "inputModuleId": 152,
      "inputId": 0,
      "color": "#c9b70e"
    },
    {
      "id": 221,
      "outputModuleId": 5,
      "outputId": 0,
      "inputModuleId": 152,
      "inputId": 1,
      "color": "#c9b70e"
    },
    {
      "id": 225,
      "outputModuleId": 5,
      "outputId": 0,
      "inputModuleId": 152,
      "inputId": 3,
      "color": "#c9b70e"
    },
    {
      "id": 232,
      "outputModuleId": 5,
      "outputId": 0,
      "inputModuleId": 152,
      "inputId": 2,
      "color": "#c9b70e"
    },
    {
      "id": 233,
      "outputModuleId": 5,
      "outputId": 0,
      "inputModuleId": 152,
      "inputId": 4,
      "color": "#c9b70e"
    },
    {
      "id": 234,
      "outputModuleId": 5,
      "outputId": 0,
      "inputModuleId": 152,
      "inputId": 5,
      "color": "#c9b70e"
    },
    {
      "id": 277,
      "outputModuleId": 5,
      "outputId": 0,
      "inputModuleId": 152,
      "inputId": 6,
      "color": "#c9b70e"
    },
    {
      "id": 278,
      "outputModuleId": 5,
      "outputId": 0,
      "inputModuleId": 152,
      "inputId": 7,
      "color": "#c9b70e"
    },
    {
      "id": 254,
      "outputModuleId": 152,
      "outputId": 0,
      "inputModuleId": 163,
      "inputId": 1,
      "color": "#0986ad"
    },
    {
      "id": 255,
      "outputModuleId": 152,
      "outputId": 1,
      "inputModuleId": 163,
      "inputId": 2,
      "color": "#0986ad"
    },
    {
      "id": 256,
      "outputModuleId": 152,
      "outputId": 2,
      "inputModuleId": 163,
      "inputId": 3,
      "color": "#0986ad"
    },
    {
      "id": 257,
      "outputModuleId": 152,
      "outputId": 3,
      "inputModuleId": 163,
      "inputId": 4,
      "color": "#0986ad"
    },
    {
      "id": 269,
      "outputModuleId": 152,
      "outputId": 8,
      "inputModuleId": 164,
      "inputId": 1,
      "color": "#c91847"
    },
    {
      "id": 268,
      "outputModuleId": 152,
      "outputId": 9,
      "inputModuleId": 164,
      "inputId": 2,
      "color": "#c91847"
    },
    {
      "id": 267,
      "outputModuleId": 152,
      "outputId": 10,
      "inputModuleId": 164,
      "inputId": 3,
      "color": "#c91847"
    },
    {
      "id": 266,
      "outputModuleId": 152,
      "outputId": 11,
      "inputModuleId": 164,
      "inputId": 4,
      "color": "#c91847"
    },
    {
      "id": 279,
      "outputModuleId": 152,
      "outputId": 4,
      "inputModuleId": 165,
      "inputId": 1,
      "color": "#0986ad"
    },
    {
      "id": 280,
      "outputModuleId": 152,
      "outputId": 5,
      "inputModuleId": 165,
      "inputId": 2,
      "color": "#0986ad"
    },
    {
      "id": 281,
      "outputModuleId": 152,
      "outputId": 6,
      "inputModuleId": 165,
      "inputId": 3,
      "color": "#0986ad"
    },
    {
      "id": 282,
      "outputModuleId": 152,
      "outputId": 7,
      "inputModuleId": 165,
      "inputId": 4,
      "color": "#0986ad"
    },
    {
      "id": 283,
      "outputModuleId": 152,
      "outputId": 12,
      "inputModuleId": 166,
      "inputId": 1,
      "color": "#c91847"
    },
    {
      "id": 284,
      "outputModuleId": 152,
      "outputId": 13,
      "inputModuleId": 166,
      "inputId": 2,
      "color": "#c91847"
    },
    {
      "id": 285,
      "outputModuleId": 152,
      "outputId": 14,
      "inputModuleId": 166,
      "inputId": 3,
      "color": "#c91847"
    },
    {
      "id": 286,
      "outputModuleId": 152,
      "outputId": 15,
      "inputModuleId": 166,
      "inputId": 4,
      "color": "#c91847"
    },
    {
      "id": 289,
      "outputModuleId": 156,
      "outputId": 1,
      "inputModuleId": 1,
      "inputId": 0,
      "color": "#0986ad"
    },
    {
      "id": 290,
      "outputModuleId": 156,
      "outputId": 2,
      "inputModuleId": 1,
      "inputId": 1,
      "color": "#c91847"
    },
    {
      "id": 287,
      "outputModuleId": 165,
      "outputId": 0,
      "inputModuleId": 167,
      "inputId": 1,
      "color": "#0986ad"
    },
    {
      "id": 291,
      "outputModuleId": 163,
      "outputId": 0,
      "inputModuleId": 167,
      "inputId": 2,
      "color": "#0986ad"
    },
    {
      "id": 292,
      "outputModuleId": 167,
      "outputId": 0,
      "inputModuleId": 156,
      "inputId": 1,
      "color": "#0986ad"
    },
    {
      "id": 288,
      "outputModuleId": 166,
      "outputId": 0,
      "inputModuleId": 168,
      "inputId": 2,
      "color": "#c91847"
    },
    {
      "id": 293,
      "outputModuleId": 164,
      "outputId": 0,
      "inputModuleId": 168,
      "inputId": 1,
      "color": "#c91847"
    },
    {
      "id": 294,
      "outputModuleId": 168,
      "outputId": 0,
      "inputModuleId": 156,
      "inputId": 2,
      "color": "#c91847"
    },
    {
      "id": 295,
      "outputModuleId": 156,
      "outputId": 0,
      "inputModuleId": 169,
      "inputId": 0,
      "color": "#c9b70e"
    },
    {
      "id": 297,
      "outputModuleId": 5,
      "outputId": 0,
      "inputModuleId": 170,
      "inputId": 0,
      "color": "#c91847"
    },
    {
      "id": 296,
      "outputModuleId": 170,
      "outputId": 3,
      "inputModuleId": 170,
      "inputId": 1,
      "color": "#0c8e15"
    },
    {
      "id": 298,
      "outputModuleId": 163,
      "outputId": 1,
      "inputModuleId": 171,
      "inputId": 0,
      "color": "#0986ad"
    },
    {
      "id": 299,
      "outputModuleId": 163,
      "outputId": 2,
      "inputModuleId": 171,
      "inputId": 1,
      "color": "#0986ad"
    },
    {
      "id": 300,
      "outputModuleId": 163,
      "outputId": 3,
      "inputModuleId": 171,
      "inputId": 2,
      "color": "#0986ad"
    },
    {
      "id": 301,
      "outputModuleId": 163,
      "outputId": 4,
      "inputModuleId": 171,
      "inputId": 3,
      "color": "#0986ad"
    },
    {
      "id": 302,
      "outputModuleId": 165,
      "outputId": 1,
      "inputModuleId": 171,
      "inputId": 4,
      "color": "#0986ad"
    },
    {
      "id": 303,
      "outputModuleId": 165,
      "outputId": 2,
      "inputModuleId": 171,
      "inputId": 5,
      "color": "#0986ad"
    },
    {
      "id": 304,
      "outputModuleId": 165,
      "outputId": 3,
      "inputModuleId": 171,
      "inputId": 6,
      "color": "#0986ad"
    },
    {
      "id": 305,
      "outputModuleId": 165,
      "outputId": 4,
      "inputModuleId": 171,
      "inputId": 7,
      "color": "#0986ad"
    },
    {
      "id": 306,
      "outputModuleId": 164,
      "outputId": 1,
      "inputModuleId": 172,
      "inputId": 0,
      "color": "#c91847"
    },
    {
      "id": 307,
      "outputModuleId": 164,
      "outputId": 2,
      "inputModuleId": 172,
      "inputId": 1,
      "color": "#c91847"
    },
    {
      "id": 308,
      "outputModuleId": 164,
      "outputId": 3,
      "inputModuleId": 172,
      "inputId": 2,
      "color": "#c91847"
    },
    {
      "id": 309,
      "outputModuleId": 164,
      "outputId": 4,
      "inputModuleId": 172,
      "inputId": 3,
      "color": "#c91847"
    },
    {
      "id": 310,
      "outputModuleId": 166,
      "outputId": 1,
      "inputModuleId": 172,
      "inputId": 4,
      "color": "#c91847"
    },
    {
      "id": 311,
      "outputModuleId": 166,
      "outputId": 2,
      "inputModuleId": 172,
      "inputId": 5,
      "color": "#c91847"
    },
    {
      "id": 312,
      "outputModuleId": 166,
      "outputId": 3,
      "inputModuleId": 172,
      "inputId": 6,
      "color": "#c91847"
    },
    {
      "id": 313,
      "outputModuleId": 166,
      "outputId": 4,
      "inputModuleId": 172,
      "inputId": 7,
      "color": "#c91847"
    },
    {
      "id": 7,
      "outputModuleId": 156,
      "outputId": 1,
      "inputModuleId": 153,
      "inputId": 0,
      "color": "#0986ad"
    },
    {
      "id": 6,
      "outputModuleId": 156,
      "outputId": 2,
      "inputModuleId": 173,
      "inputId": 0,
      "color": "#c91847"
    }
  ]
}