{
  "version": "1.dev.476a49b",
  "modules": [
    {
      "id": 1,
      "plugin": "Core",
      "version": "1.1.6",
      "model": "AudioInterface",
      "params": [],
      "leftModuleId": 156,
      "data": {
        "audio": {
          "driver": 1,
          "deviceName": "default",
          "offset": 0,
          "maxChannels": 8,
          "sampleRate": 44100,
          "blockSize": 512
        }
      },
      "pos": [
        53,
        0
      ]
    },
    {
      "id": 5,
      "plugin": "Core",
      "version": "1.1.6",
      "model": "MIDIToCVInterface",
      "params": [],
      "leftModuleId": 160,
      "rightModuleId": 152,
      "data": {
        "channels": 8,
        "polyMode": 0,
        "clockDivision": 24,
        "lastPitch": 8192,
        "lastMod": 0,
        "midi": {
          "driver": -11,
          "deviceName": "QWERTY keyboard (US)",
          "channel": -1
        }
      },
      "pos": [
        50,
        1
      ]
    },
    {
      "id": 152,
      "plugin": "KautenjaDSP-PotatoChips",
      "version": "1.7.3",
      "model": "S_SMP_Echo",
      "params": [
        {
          "id": 0,
          "value": 31.0
        },
        {
          "id": 1,
          "value": 21.0
        },
        {
          "id": 2,
          "value": 127.0
        },
        {
          "id": 3,
          "value": 127.0
        },
        {
          "id": 4,
          "value": 120.0
        },
        {
          "id": 5,
          "value": -44.0
        },
        {
          "id": 6,
          "value": -122.0
        },
        {
          "id": 7,
          "value": 8.0
        },
        {
          "id": 8,
          "value": 11.0
        },
        {
          "id": 9,
          "value": 9.0
        },
        {
          "id": 10,
          "value": -112.0
        },
        {
          "id": 11,
          "value": 9.0
        }
      ],
      "leftModuleId": 5,
      "pos": [
        58,
        1
      ]
    },
    {
      "id": 153,
      "plugin": "KautenjaDSP",
      "version": "1.0.0",
      "model": "Oscilloscope",
      "params": [
        {
          "id": 0,
          "value": 0.0
        },
        {
          "id": 1,
          "value": 0.0
        },
        {
          "id": 2,
          "value": 0.0
        },
        {
          "id": 3,
          "value": 0.0
        },
        {
          "id": 4,
          "value": 14.0
        },
        {
          "id": 5,
          "value": 0.0
        },
        {
          "id": 6,
          "value": 0.0
        },
        {
          "id": 7,
          "value": 0.0
        }
      ],
      "data": {
        "lissajous": 0,
        "external": 0
      },
      "pos": [
        1,
        2
      ]
    },
    {
      "id": 154,
      "plugin": "Bogaudio",
      "version": "1.1.31",
      "model": "Bogaudio-AnalyzerXL",
      "params": [],
      "rightModuleId": 156,
      "data": {
        "range": 0.0,
        "range_db": 80.0,
        "smooth": 0.25,
        "quality": "high",
        "window": "kaiser"
      },
      "pos": [
        1,
        0
      ]
    },
    {
      "id": 155,
      "plugin": "KautenjaDSP",
      "version": "1.0.0",
      "model": "Oscilloscope",
      "params": [
        {
          "id": 0,
          "value": 0.0
        },
        {
          "id": 1,
          "value": 0.0
        },
        {
          "id": 2,
          "value": 0.0
        },
        {
          "id": 3,
          "value": 0.0
        },
        {
          "id": 4,
          "value": 14.0
        },
        {
          "id": 5,
          "value": 0.0
        },
        {
          "id": 6,
          "value": 0.0
        },
        {
          "id": 7,
          "value": 0.0
        }
      ],
      "data": {
        "lissajous": 0,
        "external": 0
      },
      "pos": [
        1,
        3
      ]
    },
    {
      "id": 156,
      "plugin": "Fundamental",
      "version": "1.4.0",
      "model": "VCMixer",
      "params": [
        {
          "id": 0,
          "value": 1.0
        },
        {
          "id": 1,
          "value": 1.0
        },
        {
          "id": 2,
          "value": 1.0
        },
        {
          "id": 3,
          "value": 1.0
        },
        {
          "id": 4,
          "value": 1.0
        }
      ],
      "leftModuleId": 154,
      "rightModuleId": 1,
      "pos": [
        43,
        0
      ]
    },
    {
      "id": 160,
      "plugin": "Fundamental",
      "version": "1.4.0",
      "model": "ADSR",
      "params": [
        {
          "id": 0,
          "value": 0.387115061
        },
        {
          "id": 1,
          "value": 0.0810418129
        },
        {
          "id": 2,
          "value": 0.565365255
        },
        {
          "id": 3,
          "value": 0.528592706
        }
      ],
      "leftModuleId": 161,
      "rightModuleId": 5,
      "pos": [
        42,
        1
      ]
    },
    {
      "id": 161,
      "plugin": "KautenjaDSP-PotatoChips",
      "version": "1.7.3",
      "model": "106",
      "params": [
        {
          "id": 0,
          "value": 0.0
        },
        {
          "id": 1,
          "value": 0.0
        },
        {
          "id": 2,
          "value": 0.0
        },
        {
          "id": 3,
          "value": 0.0
        },
        {
          "id": 4,
          "value": 0.0
        },
        {
          "id": 5,
          "value": 0.0
        },
        {
          "id": 6,
          "value": 0.0
        },
        {
          "id": 7,
          "value": 0.0
        },
        {
          "id": 8,
          "value": 15.0
        },
        {
          "id": 9,
          "value": 15.0
        },
        {
          "id": 10,
          "value": 15.0
        },
        {
          "id": 11,
          "value": 15.0
        },
        {
          "id": 12,
          "value": 15.0
        },
        {
          "id": 13,
          "value": 15.0
        },
        {
          "id": 14,
          "value": 3.75
        },
        {
          "id": 15,
          "value": 3.75
        },
        {
          "id": 16,
          "value": 2.28849626
        },
        {
          "id": 17,
          "value": 0.0
        },
        {
          "id": 18,
          "value": 5.0
        },
        {
          "id": 19,
          "value": -1.0
        }
      ],
      "leftModuleId": 163,
      "rightModuleId": 160,
      "data": {
        "wavetable0": [
          8,
          9,
          10,
          12,
          13,
          3,
          3,
          3,
          3,
          3,
          3,
          3,
          3,
          3,
          3,
          3,
          8,
          6,
          5,
          3,
          2,
          11,
          13,
          15,
          15,
          15,
          13,
          13,
          2,
          3,
          5,
          6
        ],
        "wavetable1": [
          15,
          15,
          15,
          4,
          4,
          4,
          4,
          4,
          4,
          5,
          5,
          15,
          15,
          0,
          0,
          0,
          0,
          0,
          0,
          0,
          0,
          0,
          0,
          0,
          0,
          0,
          0,
          0,
          0,
          0,
          0,
          0
        ],
        "wavetable2": [
          0,
          0,
          1,
          1,
          2,
          2,
          3,
          3,
          4,
          4,
          5,
          5,
          6,
          6,
          7,
          7,
          2,
          3,
          3,
          4,
          4,
          5,
          5,
          11,
          11,
          12,
          12,
          13,
          13,
          14,
          1,
          6
        ],
        "wavetable3": [
          8,
          6,
          9,
          8,
          11,
          10,
          13,
          12,
          15,
          12,
          13,
          10,
          11,
          8,
          9,
          6,
          8,
          5,
          6,
          3,
          4,
          1,
          9,
          15,
          15,
          15,
          15,
          15,
          15,
          15,
          6,
          5
        ],
        "wavetable4": [
          15,
          15,
          14,
          14,
          0,
          1,
          1,
          1,
          2,
          3,
          3,
          4,
          9,
          9,
          8,
          13,
          13,
          13,
          13,
          13,
          13,
          13,
          13,
          9,
          11,
          3,
          3,
          2,
          2,
          1,
          1,
          0
        ]
      },
      "pos": [
        13,
        1
      ]
    },
    {
      "id": 162,
      "plugin": "Fundamental",
      "version": "1.4.0",
      "model": "LFO",
      "params": [
        {
          "id": 0,
          "value": 1.0
        },
        {
          "id": 1,
          "value": 1.0
        },
        {
          "id": 2,
          "value": 2.16099977
        },
        {
          "id": 3,
          "value": 0.0
        },
        {
          "id": 4,
          "value": 0.0
        },
        {
          "id": 5,
          "value": 0.5
        },
        {
          "id": 6,
          "value": 0.0
        }
      ],
      "rightModuleId": 163,
      "pos": [
        0,
        1
      ]
    },
    {
      "id": 163,
      "plugin": "Fundamental",
      "version": "1.4.0",
      "model": "VCA-1",
      "params": [
        {
          "id": 0,
          "value": 0.0399998799
        },
        {
          "id": 1,
          "value": 1.0
        }
      ],
      "leftModuleId": 162,
      "rightModuleId": 161,
      "pos": [
        10,
        1
      ]
    }
  ],
  "cables": [
    {
      "id": 7,
      "outputModuleId": 152,
      "outputId": 0,
      "inputModuleId": 153,
      "inputId": 0,
      "color": "#0986ad"
    },
    {
      "id": 6,
      "outputModuleId": 152,
      "outputId": 1,
      "inputModuleId": 155,
      "inputId": 0,
      "color": "#c91847"
    },
    {
      "id": 10,
      "outputModuleId": 152,
      "outputId": 1,
      "inputModuleId": 154,
      "inputId": 1,
      "color": "#c91847"
    },
    {
      "id": 11,
      "outputModuleId": 152,
      "outputId": 0,
      "inputModuleId": 154,
      "inputId": 0,
      "color": "#0986ad"
    },
    {
      "id": 12,
      "outputModuleId": 152,
      "outputId": 0,
      "inputModuleId": 156,
      "inputId": 1,
      "color": "#0986ad"
    },
    {
      "id": 13,
      "outputModuleId": 152,
      "outputId": 1,
      "inputModuleId": 156,
      "inputId": 2,
      "color": "#c91847"
    },
    {
      "id": 15,
      "outputModuleId": 156,
      "outputId": 2,
      "inputModuleId": 1,
      "inputId": 1,
      "color": "#c91847"
    },
    {
      "id": 14,
      "outputModuleId": 156,
      "outputId": 1,
      "inputModuleId": 1,
      "inputId": 0,
      "color": "#0986ad"
    },
    {
      "id": 72,
      "outputModuleId": 5,
      "outputId": 1,
      "inputModuleId": 160,
      "inputId": 4,
      "color": "#c9b70e"
    },
    {
      "id": 73,
      "outputModuleId": 5,
      "outputId": 0,
      "inputModuleId": 161,
      "inputId": 6,
      "color": "#c9b70e"
    },
    {
      "id": 74,
      "outputModuleId": 5,
      "outputId": 0,
      "inputModuleId": 161,
      "inputId": 7,
      "color": "#c9b70e"
    },
    {
      "id": 71,
      "outputModuleId": 160,
      "outputId": 0,
      "inputModuleId": 161,
      "inputId": 22,
      "color": "#c9b70e"
    },
    {
      "id": 75,
      "outputModuleId": 160,
      "outputId": 0,
      "inputModuleId": 161,
      "inputId": 23,
      "color": "#c9b70e"
    },
    {
      "id": 78,
      "outputModuleId": 161,
      "outputId": 6,
      "inputModuleId": 152,
      "inputId": 0,
      "color": "#0986ad"
    },
    {
      "id": 79,
      "outputModuleId": 161,
      "outputId": 7,
      "inputModuleId": 152,
      "inputId": 1,
      "color": "#c91847"
    },
    {
      "id": 95,
      "outputModuleId": 162,
      "outputId": 0,
      "inputModuleId": 163,
      "inputId": 1,
      "color": "#c9b70e"
    },
    {
      "id": 96,
      "outputModuleId": 163,
      "outputId": 0,
      "inputModuleId": 161,
      "inputId": 14,
      "color": "#c9b70e"
    },
    {
      "id": 97,
      "outputModuleId": 163,
      "outputId": 0,
      "inputModuleId": 161,
      "inputId": 15,
      "color": "#c9b70e"
    }
  ]
}