{
  "version": "1.dev.eefe794",
  "modules": [
    {
      "id": 1,
      "plugin": "Core",
      "version": "1.1.6",
      "model": "AudioInterface",
      "params": [],
      "leftModuleId": 2,
      "rightModuleId": 68,
      "data": {
        "audio": {
          "driver": 5,
          "deviceName": "Apple Inc.: Built-in Output",
          "offset": 0,
          "maxChannels": 8,
          "sampleRate": 48000,
          "blockSize": 2048
        }
      },
      "pos": [
        28,
        0
      ]
    },
    {
      "id": 2,
      "plugin": "Fundamental",
      "version": "1.4.0",
      "model": "VCMixer",
      "params": [
        {
          "id": 0,
          "value": 0.391000032
        },
        {
          "id": 1,
          "value": 1.0
        },
        {
          "id": 2,
          "value": 0.0
        },
        {
          "id": 3,
          "value": 0.0
        },
        {
          "id": 4,
          "value": 0.0
        }
      ],
      "bypass": true,
      "leftModuleId": 59,
      "rightModuleId": 1,
      "pos": [
        18,
        0
      ]
    },
    {
      "id": 34,
      "plugin": "Core",
      "version": "1.1.6",
      "model": "MIDIToCVInterface",
      "params": [],
      "rightModuleId": 59,
      "data": {
        "channels": 1,
        "polyMode": 0,
        "clockDivision": 24,
        "lastPitch": 8192,
        "lastMod": 0,
        "midi": {
          "driver": 1,
          "channel": -1
        }
      },
      "pos": [
        0,
        0
      ]
    },
    {
      "id": 59,
      "plugin": "KautenjaDSP-PotatoChips",
      "version": "1.7.0",
      "model": "2A03",
      "params": [
        {
          "id": 0,
          "value": 0.0
        },
        {
          "id": 1,
          "value": 0.0
        },
        {
          "id": 2,
          "value": 0.0
        },
        {
          "id": 3,
          "value": 7.0
        },
        {
          "id": 4,
          "value": 2.0
        },
        {
          "id": 5,
          "value": 2.0
        }
      ],
      "leftModuleId": 34,
      "rightModuleId": 2,
      "pos": [
        8,
        0
      ]
    },
    {
      "id": 64,
      "plugin": "Fundamental",
      "version": "1.4.0",
      "model": "Scope",
      "params": [
        {
          "id": 0,
          "value": 0.0
        },
        {
          "id": 1,
          "value": 0.0
        },
        {
          "id": 2,
          "value": 0.0
        },
        {
          "id": 3,
          "value": 0.0
        },
        {
          "id": 4,
          "value": 14.0
        },
        {
          "id": 5,
          "value": 0.0
        },
        {
          "id": 6,
          "value": 0.0
        },
        {
          "id": 7,
          "value": 0.0
        }
      ],
      "rightModuleId": 65,
      "data": {
        "lissajous": 0,
        "external": 0
      },
      "pos": [
        0,
        1
      ]
    },
    {
      "id": 65,
      "plugin": "Fundamental",
      "version": "1.4.0",
      "model": "Scope",
      "params": [
        {
          "id": 0,
          "value": 0.0
        },
        {
          "id": 1,
          "value": 0.0
        },
        {
          "id": 2,
          "value": 0.0
        },
        {
          "id": 3,
          "value": 0.0
        },
        {
          "id": 4,
          "value": 14.0
        },
        {
          "id": 5,
          "value": 0.0
        },
        {
          "id": 6,
          "value": 0.0
        },
        {
          "id": 7,
          "value": 0.0
        }
      ],
      "leftModuleId": 64,
      "rightModuleId": 66,
      "data": {
        "lissajous": 0,
        "external": 0
      },
      "pos": [
        13,
        1
      ]
    },
    {
      "id": 66,
      "plugin": "Fundamental",
      "version": "1.4.0",
      "model": "Scope",
      "params": [
        {
          "id": 0,
          "value": 0.0
        },
        {
          "id": 1,
          "value": 0.0
        },
        {
          "id": 2,
          "value": 0.0
        },
        {
          "id": 3,
          "value": 0.0
        },
        {
          "id": 4,
          "value": 14.0
        },
        {
          "id": 5,
          "value": 0.0
        },
        {
          "id": 6,
          "value": 0.0
        },
        {
          "id": 7,
          "value": 0.0
        }
      ],
      "leftModuleId": 65,
      "rightModuleId": 67,
      "data": {
        "lissajous": 0,
        "external": 0
      },
      "pos": [
        26,
        1
      ]
    },
    {
      "id": 67,
      "plugin": "Fundamental",
      "version": "1.4.0",
      "model": "Scope",
      "params": [
        {
          "id": 0,
          "value": 0.0
        },
        {
          "id": 1,
          "value": 0.0
        },
        {
          "id": 2,
          "value": 0.0
        },
        {
          "id": 3,
          "value": 0.0
        },
        {
          "id": 4,
          "value": 14.0
        },
        {
          "id": 5,
          "value": 0.0
        },
        {
          "id": 6,
          "value": 0.0
        },
        {
          "id": 7,
          "value": 0.0
        }
      ],
      "leftModuleId": 66,
      "data": {
        "lissajous": 0,
        "external": 0
      },
      "pos": [
        39,
        1
      ]
    },
    {
      "id": 68,
      "plugin": "KautenjaDSP",
      "version": "1.0.0",
      "model": "CountingHertz",
      "params": [],
      "leftModuleId": 1,
      "rightModuleId": 69,
      "pos": [
        38,
        0
      ]
    },
    {
      "id": 69,
      "plugin": "Bogaudio",
      "version": "1.1.31",
      "model": "Bogaudio-AnalyzerXL",
      "params": [],
      "leftModuleId": 68,
      "data": {
        "range": 0.0,
        "range_db": 80.0,
        "smooth": 0.25,
        "quality": "good",
        "window": "kaiser"
      },
      "pos": [
        43,
        0
      ]
    }
  ],
  "cables": [
    {
      "id": 54,
      "outputModuleId": 59,
      "outputId": 0,
      "inputModuleId": 2,
      "inputId": 1,
      "color": "#c91847"
    },
    {
      "id": 56,
      "outputModuleId": 59,
      "outputId": 2,
      "inputModuleId": 2,
      "inputId": 3,
      "color": "#c9b70e"
    },
    {
      "id": 57,
      "outputModuleId": 59,
      "outputId": 3,
      "inputModuleId": 2,
      "inputId": 4,
      "color": "#0c8e15"
    },
    {
      "id": 68,
      "outputModuleId": 34,
      "outputId": 0,
      "inputModuleId": 59,
      "inputId": 2,
      "color": "#c9b70e"
    },
    {
      "id": 69,
      "outputModuleId": 34,
      "outputId": 0,
      "inputModuleId": 59,
      "inputId": 1,
      "color": "#0c8e15"
    },
    {
      "id": 70,
      "outputModuleId": 34,
      "outputId": 0,
      "inputModuleId": 59,
      "inputId": 0,
      "color": "#0986ad"
    },
    {
      "id": 165,
      "outputModuleId": 2,
      "outputId": 0,
      "inputModuleId": 1,
      "inputId": 0,
      "color": "#c91847"
    },
    {
      "id": 166,
      "outputModuleId": 2,
      "outputId": 0,
      "inputModuleId": 1,
      "inputId": 1,
      "color": "#0986ad"
    },
    {
      "id": 167,
      "outputModuleId": 59,
      "outputId": 0,
      "inputModuleId": 64,
      "inputId": 0,
      "color": "#c9b70e"
    },
    {
      "id": 168,
      "outputModuleId": 59,
      "outputId": 1,
      "inputModuleId": 65,
      "inputId": 0,
      "color": "#0c8e15"
    },
    {
      "id": 169,
      "outputModuleId": 59,
      "outputId": 2,
      "inputModuleId": 66,
      "inputId": 0,
      "color": "#0986ad"
    },
    {
      "id": 170,
      "outputModuleId": 59,
      "outputId": 3,
      "inputModuleId": 67,
      "inputId": 0,
      "color": "#c9b70e"
    },
    {
      "id": 55,
      "outputModuleId": 59,
      "outputId": 1,
      "inputModuleId": 2,
      "inputId": 2,
      "color": "#0986ad"
    },
    {
      "id": 172,
      "outputModuleId": 59,
      "outputId": 0,
      "inputModuleId": 68,
      "inputId": 0,
      "color": "#0986ad"
    },
    {
      "id": 173,
      "outputModuleId": 59,
      "outputId": 0,
      "inputModuleId": 69,
      "inputId": 0,
      "color": "#c91847"
    }
  ]
}