{
  "version": "1.dev.eefe794",
  "modules": [
    {
      "id": 1,
      "plugin": "Core",
      "version": "1.1.6",
      "model": "AudioInterface",
      "params": [],
      "leftModuleId": 51,
      "data": {
        "audio": {
          "driver": 5,
          "deviceName": "Apple Inc.: Built-in Output",
          "offset": 0,
          "maxChannels": 8,
          "sampleRate": 48000,
          "blockSize": 2048
        }
      },
      "pos": [
        52,
        1
      ]
    },
    {
      "id": 2,
      "plugin": "Fundamental",
      "version": "1.4.0",
      "model": "VCMixer",
      "params": [
        {
          "id": 0,
          "value": 0.123999812
        },
        {
          "id": 1,
          "value": 1.0
        },
        {
          "id": 2,
          "value": 1.0
        },
        {
          "id": 3,
          "value": 1.0
        },
        {
          "id": 4,
          "value": 1.0
        }
      ],
      "leftModuleId": 55,
      "pos": [
        54,
        0
      ]
    },
    {
      "id": 5,
      "plugin": "Core",
      "version": "1.1.6",
      "model": "MIDIToCVInterface",
      "params": [],
      "rightModuleId": 48,
      "data": {
        "channels": 1,
        "polyMode": 0,
        "clockDivision": 24,
        "lastPitch": 8192,
        "lastMod": 0,
        "midi": {
          "driver": -11,
          "deviceName": "QWERTY keyboard (US)",
          "channel": -1
        }
      },
      "pos": [
        0,
        0
      ]
    },
    {
      "id": 7,
      "plugin": "Fundamental",
      "version": "1.4.0",
      "model": "Scope",
      "params": [
        {
          "id": 0,
          "value": 0.0
        },
        {
          "id": 1,
          "value": 0.0
        },
        {
          "id": 2,
          "value": 0.0
        },
        {
          "id": 3,
          "value": 0.0
        },
        {
          "id": 4,
          "value": 14.0
        },
        {
          "id": 5,
          "value": 0.0
        },
        {
          "id": 6,
          "value": 0.0
        },
        {
          "id": 7,
          "value": 0.0
        }
      ],
      "rightModuleId": 49,
      "data": {
        "lissajous": 0,
        "external": 0
      },
      "pos": [
        0,
        1
      ]
    },
    {
      "id": 48,
      "plugin": "KautenjaDSP-PotatoChips",
      "version": "1.4.1",
      "model": "GBS",
      "params": [
        {
          "id": 0,
          "value": 0.0
        },
        {
          "id": 1,
          "value": 0.0
        },
        {
          "id": 2,
          "value": 0.0
        },
        {
          "id": 3,
          "value": 4.0
        },
        {
          "id": 4,
          "value": 2.0
        },
        {
          "id": 5,
          "value": 2.0
        },
        {
          "id": 6,
          "value": 0.0
        },
        {
          "id": 7,
          "value": 0.0
        },
        {
          "id": 8,
          "value": 0.5
        },
        {
          "id": 9,
          "value": 0.5
        },
        {
          "id": 10,
          "value": 0.5
        },
        {
          "id": 11,
          "value": 0.5
        }
      ],
      "leftModuleId": 5,
      "rightModuleId": 52,
      "pos": [
        8,
        0
      ]
    },
    {
      "id": 49,
      "plugin": "Fundamental",
      "version": "1.4.0",
      "model": "Scope",
      "params": [
        {
          "id": 0,
          "value": 0.0
        },
        {
          "id": 1,
          "value": 0.0
        },
        {
          "id": 2,
          "value": 0.0
        },
        {
          "id": 3,
          "value": 0.0
        },
        {
          "id": 4,
          "value": 14.0
        },
        {
          "id": 5,
          "value": 0.0
        },
        {
          "id": 6,
          "value": 0.0
        },
        {
          "id": 7,
          "value": 0.0
        }
      ],
      "leftModuleId": 7,
      "rightModuleId": 50,
      "data": {
        "lissajous": 0,
        "external": 0
      },
      "pos": [
        13,
        1
      ]
    },
    {
      "id": 50,
      "plugin": "Fundamental",
      "version": "1.4.0",
      "model": "Scope",
      "params": [
        {
          "id": 0,
          "value": 0.0
        },
        {
          "id": 1,
          "value": 0.0
        },
        {
          "id": 2,
          "value": 0.0
        },
        {
          "id": 3,
          "value": 0.0
        },
        {
          "id": 4,
          "value": 14.0
        },
        {
          "id": 5,
          "value": 0.0
        },
        {
          "id": 6,
          "value": 0.0
        },
        {
          "id": 7,
          "value": 0.0
        }
      ],
      "leftModuleId": 49,
      "rightModuleId": 51,
      "data": {
        "lissajous": 0,
        "external": 0
      },
      "pos": [
        26,
        1
      ]
    },
    {
      "id": 51,
      "plugin": "Fundamental",
      "version": "1.4.0",
      "model": "Scope",
      "params": [
        {
          "id": 0,
          "value": 0.0
        },
        {
          "id": 1,
          "value": 0.0
        },
        {
          "id": 2,
          "value": 0.0
        },
        {
          "id": 3,
          "value": 0.0
        },
        {
          "id": 4,
          "value": 14.0
        },
        {
          "id": 5,
          "value": 0.0
        },
        {
          "id": 6,
          "value": 0.0
        },
        {
          "id": 7,
          "value": 0.0
        }
      ],
      "leftModuleId": 50,
      "rightModuleId": 1,
      "data": {
        "lissajous": 0,
        "external": 0
      },
      "pos": [
        39,
        1
      ]
    },
    {
      "id": 52,
      "plugin": "KautenjaDSP",
      "version": "1.0.0",
      "model": "CountingHertz",
      "params": [],
      "leftModuleId": 48,
      "rightModuleId": 53,
      "pos": [
        34,
        0
      ]
    },
    {
      "id": 53,
      "plugin": "KautenjaDSP",
      "version": "1.0.0",
      "model": "CountingHertz",
      "params": [],
      "leftModuleId": 52,
      "rightModuleId": 54,
      "pos": [
        39,
        0
      ]
    },
    {
      "id": 54,
      "plugin": "KautenjaDSP",
      "version": "1.0.0",
      "model": "CountingHertz",
      "params": [],
      "leftModuleId": 53,
      "rightModuleId": 55,
      "pos": [
        44,
        0
      ]
    },
    {
      "id": 55,
      "plugin": "KautenjaDSP",
      "version": "1.0.0",
      "model": "CountingHertz",
      "params": [],
      "leftModuleId": 54,
      "rightModuleId": 2,
      "pos": [
        49,
        0
      ]
    }
  ],
  "cables": [
    {
      "id": 743,
      "outputModuleId": 48,
      "outputId": 0,
      "inputModuleId": 2,
      "inputId": 1,
      "color": "#c91847"
    },
    {
      "id": 744,
      "outputModuleId": 48,
      "outputId": 1,
      "inputModuleId": 2,
      "inputId": 2,
      "color": "#0986ad"
    },
    {
      "id": 745,
      "outputModuleId": 48,
      "outputId": 2,
      "inputModuleId": 2,
      "inputId": 3,
      "color": "#c9b70e"
    },
    {
      "id": 746,
      "outputModuleId": 48,
      "outputId": 3,
      "inputModuleId": 2,
      "inputId": 4,
      "color": "#0c8e15"
    },
    {
      "id": 747,
      "outputModuleId": 2,
      "outputId": 0,
      "inputModuleId": 1,
      "inputId": 0,
      "color": "#c91847"
    },
    {
      "id": 748,
      "outputModuleId": 2,
      "outputId": 0,
      "inputModuleId": 1,
      "inputId": 1,
      "color": "#0986ad"
    },
    {
      "id": 752,
      "outputModuleId": 48,
      "outputId": 3,
      "inputModuleId": 51,
      "inputId": 0,
      "color": "#0986ad"
    },
    {
      "id": 751,
      "outputModuleId": 48,
      "outputId": 2,
      "inputModuleId": 50,
      "inputId": 0,
      "color": "#c91847"
    },
    {
      "id": 750,
      "outputModuleId": 48,
      "outputId": 1,
      "inputModuleId": 49,
      "inputId": 0,
      "color": "#0c8e15"
    },
    {
      "id": 749,
      "outputModuleId": 48,
      "outputId": 0,
      "inputModuleId": 7,
      "inputId": 0,
      "color": "#c9b70e"
    },
    {
      "id": 753,
      "outputModuleId": 48,
      "outputId": 0,
      "inputModuleId": 52,
      "inputId": 0,
      "color": "#0c8e15"
    },
    {
      "id": 754,
      "outputModuleId": 48,
      "outputId": 1,
      "inputModuleId": 53,
      "inputId": 0,
      "color": "#c91847"
    },
    {
      "id": 756,
      "outputModuleId": 48,
      "outputId": 3,
      "inputModuleId": 55,
      "inputId": 0,
      "color": "#c9b70e"
    },
    {
      "id": 757,
      "outputModuleId": 5,
      "outputId": 0,
      "inputModuleId": 48,
      "inputId": 0,
      "color": "#c91847"
    },
    {
      "id": 758,
      "outputModuleId": 5,
      "outputId": 0,
      "inputModuleId": 48,
      "inputId": 1,
      "color": "#0986ad"
    },
    {
      "id": 759,
      "outputModuleId": 5,
      "outputId": 0,
      "inputModuleId": 48,
      "inputId": 2,
      "color": "#c9b70e"
    },
    {
      "id": 755,
      "outputModuleId": 48,
      "outputId": 2,
      "inputModuleId": 54,
      "inputId": 0,
      "color": "#0986ad"
    }
  ]
}