{
  "version": "1.dev.476a49b",
  "modules": [
    {
      "id": 1,
      "plugin": "Core",
      "version": "1.1.6",
      "model": "AudioInterface",
      "params": [],
      "leftModuleId": 156,
      "data": {
        "audio": {
          "driver": 1,
          "deviceName": "default",
          "offset": 0,
          "maxChannels": 8,
          "sampleRate": 44100,
          "blockSize": 512
        }
      },
      "pos": [
        52,
        0
      ]
    },
    {
      "id": 5,
      "plugin": "Core",
      "version": "1.1.6",
      "model": "MIDIToCVInterface",
      "params": [],
      "rightModuleId": 152,
      "data": {
        "channels": 1,
        "polyMode": 0,
        "clockDivision": 24,
        "lastPitch": 8192,
        "lastMod": 0,
        "midi": {
          "driver": -11,
          "deviceName": "QWERTY keyboard (US)",
          "channel": -1
        }
      },
      "pos": [
        0,
        1
      ]
    },
    {
      "id": 152,
      "plugin": "KautenjaDSP-PotatoChips",
      "version": "1.8.0",
      "model": "S_SMP_BRR",
      "params": [
        {
          "id": 0,
          "value": 3.88999963
        },
        {
          "id": 1,
          "value": 2.0
        },
        {
          "id": 2,
          "value": 2.0
        },
        {
          "id": 3,
          "value": 2.0
        },
        {
          "id": 4,
          "value": 2.0
        },
        {
          "id": 5,
          "value": 2.0
        },
        {
          "id": 6,
          "value": 2.0
        },
        {
          "id": 7,
          "value": 2.0
        },
        {
          "id": 8,
          "value": 0.0
        },
        {
          "id": 9,
          "value": 0.0
        },
        {
          "id": 10,
          "value": 0.0
        },
        {
          "id": 11,
          "value": 0.0
        },
        {
          "id": 12,
          "value": 0.0
        },
        {
          "id": 13,
          "value": 0.0
        },
        {
          "id": 14,
          "value": 0.0
        },
        {
          "id": 15,
          "value": 0.0
        },
        {
          "id": 16,
          "value": 127.0
        },
        {
          "id": 17,
          "value": 127.0
        },
        {
          "id": 18,
          "value": 127.0
        },
        {
          "id": 19,
          "value": 127.0
        },
        {
          "id": 20,
          "value": 127.0
        },
        {
          "id": 21,
          "value": 127.0
        },
        {
          "id": 22,
          "value": 127.0
        },
        {
          "id": 23,
          "value": 127.0
        },
        {
          "id": 24,
          "value": 127.0
        },
        {
          "id": 25,
          "value": 127.0
        },
        {
          "id": 26,
          "value": 127.0
        },
        {
          "id": 27,
          "value": 127.0
        },
        {
          "id": 28,
          "value": 127.0
        },
        {
          "id": 29,
          "value": 127.0
        },
        {
          "id": 30,
          "value": 127.0
        },
        {
          "id": 31,
          "value": 127.0
        }
      ],
      "leftModuleId": 5,
      "pos": [
        8,
        1
      ]
    },
    {
      "id": 153,
      "plugin": "KautenjaDSP",
      "version": "1.0.0",
      "model": "Oscilloscope",
      "params": [
        {
          "id": 0,
          "value": 0.0
        },
        {
          "id": 1,
          "value": 0.0
        },
        {
          "id": 2,
          "value": 0.0
        },
        {
          "id": 3,
          "value": 0.0
        },
        {
          "id": 4,
          "value": 14.0
        },
        {
          "id": 5,
          "value": 0.0
        },
        {
          "id": 6,
          "value": 0.0
        },
        {
          "id": 7,
          "value": 0.0
        }
      ],
      "data": {
        "lissajous": 0,
        "external": 0
      },
      "pos": [
        0,
        2
      ]
    },
    {
      "id": 154,
      "plugin": "Bogaudio",
      "version": "1.1.34",
      "model": "Bogaudio-AnalyzerXL",
      "params": [],
      "rightModuleId": 156,
      "data": {
        "frequency_plot": "log",
        "range": 0.0,
        "amplitude_plot": "decibels_80",
        "smooth": 0.25,
        "quality": "high",
        "window": "kaiser"
      },
      "pos": [
        0,
        0
      ]
    },
    {
      "id": 156,
      "plugin": "Fundamental",
      "version": "1.4.0",
      "model": "VCMixer",
      "params": [
        {
          "id": 0,
          "value": 1.0
        },
        {
          "id": 1,
          "value": 1.41421354
        },
        {
          "id": 2,
          "value": 1.41421354
        },
        {
          "id": 3,
          "value": 1.0
        },
        {
          "id": 4,
          "value": 1.0
        }
      ],
      "leftModuleId": 154,
      "rightModuleId": 1,
      "pos": [
        42,
        0
      ]
    },
    {
      "id": 157,
      "plugin": "Fundamental",
      "version": "1.4.0",
      "model": "ADSR",
      "params": [
        {
          "id": 0,
          "value": 0.5
        },
        {
          "id": 1,
          "value": 0.5
        },
        {
          "id": 2,
          "value": 0.5
        },
        {
          "id": 3,
          "value": 0.5
        }
      ],
      "pos": [
        39,
        1
      ]
    }
  ],
  "cables": [
    {
      "id": 45,
      "outputModuleId": 5,
      "outputId": 0,
      "inputModuleId": 152,
      "inputId": 0,
      "color": "#c9b70e"
    },
    {
      "id": 218,
      "outputModuleId": 156,
      "outputId": 1,
      "inputModuleId": 1,
      "inputId": 0,
      "color": "#0986ad"
    },
    {
      "id": 221,
      "outputModuleId": 5,
      "outputId": 0,
      "inputModuleId": 152,
      "inputId": 1,
      "color": "#c9b70e"
    },
    {
      "id": 225,
      "outputModuleId": 5,
      "outputId": 0,
      "inputModuleId": 152,
      "inputId": 3,
      "color": "#c9b70e"
    },
    {
      "id": 229,
      "outputModuleId": 5,
      "outputId": 0,
      "inputModuleId": 152,
      "inputId": 7,
      "color": "#c9b70e"
    },
    {
      "id": 7,
      "outputModuleId": 156,
      "outputId": 1,
      "inputModuleId": 153,
      "inputId": 0,
      "color": "#0986ad"
    },
    {
      "id": 11,
      "outputModuleId": 156,
      "outputId": 1,
      "inputModuleId": 154,
      "inputId": 0,
      "color": "#0986ad"
    },
    {
      "id": 10,
      "outputModuleId": 156,
      "outputId": 2,
      "inputModuleId": 154,
      "inputId": 1,
      "color": "#c91847"
    },
    {
      "id": 6,
      "outputModuleId": 156,
      "outputId": 2,
      "inputModuleId": 153,
      "inputId": 1,
      "color": "#c91847"
    },
    {
      "id": 232,
      "outputModuleId": 5,
      "outputId": 0,
      "inputModuleId": 152,
      "inputId": 2,
      "color": "#c9b70e"
    },
    {
      "id": 233,
      "outputModuleId": 5,
      "outputId": 0,
      "inputModuleId": 152,
      "inputId": 4,
      "color": "#c9b70e"
    },
    {
      "id": 234,
      "outputModuleId": 5,
      "outputId": 0,
      "inputModuleId": 152,
      "inputId": 5,
      "color": "#c9b70e"
    },
    {
      "id": 235,
      "outputModuleId": 5,
      "outputId": 0,
      "inputModuleId": 152,
      "inputId": 6,
      "color": "#c9b70e"
    },
    {
      "id": 240,
      "outputModuleId": 5,
      "outputId": 1,
      "inputModuleId": 152,
      "inputId": 26,
      "color": "#0c8e15"
    },
    {
      "id": 241,
      "outputModuleId": 5,
      "outputId": 1,
      "inputModuleId": 152,
      "inputId": 27,
      "color": "#0c8e15"
    },
    {
      "id": 237,
      "outputModuleId": 5,
      "outputId": 1,
      "inputModuleId": 152,
      "inputId": 25,
      "color": "#0c8e15"
    },
    {
      "id": 236,
      "outputModuleId": 5,
      "outputId": 1,
      "inputModuleId": 152,
      "inputId": 24,
      "color": "#0c8e15"
    },
    {
      "id": 242,
      "outputModuleId": 5,
      "outputId": 1,
      "inputModuleId": 157,
      "inputId": 4,
      "color": "#0c8e15"
    },
    {
      "id": 243,
      "outputModuleId": 5,
      "outputId": 6,
      "inputModuleId": 157,
      "inputId": 5,
      "color": "#0c8e15"
    },
    {
      "id": 244,
      "outputModuleId": 157,
      "outputId": 0,
      "inputModuleId": 156,
      "inputId": 5,
      "color": "#0c8e15"
    },
    {
      "id": 245,
      "outputModuleId": 157,
      "outputId": 0,
      "inputModuleId": 156,
      "inputId": 6,
      "color": "#0c8e15"
    },
    {
      "id": 219,
      "outputModuleId": 156,
      "outputId": 2,
      "inputModuleId": 1,
      "inputId": 1,
      "color": "#c91847"
    },
    {
      "id": 231,
      "outputModuleId": 152,
      "outputId": 8,
      "inputModuleId": 156,
      "inputId": 2,
      "color": "#c91847"
    },
    {
      "id": 230,
      "outputModuleId": 152,
      "outputId": 0,
      "inputModuleId": 156,
      "inputId": 1,
      "color": "#0986ad"
    }
  ]
}