{
  "version": "1.dev.476a49b",
  "modules": [
    {
      "id": 1,
      "plugin": "Core",
      "version": "1.1.6",
      "model": "AudioInterface",
      "params": [],
      "leftModuleId": 156,
      "data": {
        "audio": {
          "driver": 1,
          "deviceName": "default",
          "offset": 0,
          "maxChannels": 8,
          "sampleRate": 44100,
          "blockSize": 512
        }
      },
      "pos": [
        52,
        1
      ]
    },
    {
      "id": 5,
      "plugin": "Core",
      "version": "1.1.6",
      "model": "MIDIToCVInterface",
      "params": [],
      "rightModuleId": 160,
      "data": {
        "channels": 1,
        "polyMode": 0,
        "clockDivision": 24,
        "lastPitch": 8192,
        "lastMod": 0,
        "midi": {
          "driver": -11,
          "deviceName": "QWERTY keyboard (US)",
          "channel": -1
        }
      },
      "pos": [
        0,
        2
      ]
    },
    {
      "id": 152,
      "plugin": "KautenjaDSP-PotatoChips",
      "version": "1.8.0",
      "model": "S_SMP_BRR",
      "params": [
        {
          "id": 0,
          "value": 3.25635242
        },
        {
          "id": 1,
          "value": 2.0
        },
        {
          "id": 2,
          "value": 2.0
        },
        {
          "id": 3,
          "value": 2.0
        },
        {
          "id": 4,
          "value": 2.0
        },
        {
          "id": 5,
          "value": 2.0
        },
        {
          "id": 6,
          "value": 2.0
        },
        {
          "id": 7,
          "value": 2.0
        },
        {
          "id": 8,
          "value": 0.0
        },
        {
          "id": 9,
          "value": 0.0
        },
        {
          "id": 10,
          "value": 0.0
        },
        {
          "id": 11,
          "value": 0.0
        },
        {
          "id": 12,
          "value": 0.0
        },
        {
          "id": 13,
          "value": 0.0
        },
        {
          "id": 14,
          "value": 0.0
        },
        {
          "id": 15,
          "value": 0.0
        },
        {
          "id": 16,
          "value": 127.0
        },
        {
          "id": 17,
          "value": 127.0
        },
        {
          "id": 18,
          "value": 127.0
        },
        {
          "id": 19,
          "value": 127.0
        },
        {
          "id": 20,
          "value": 127.0
        },
        {
          "id": 21,
          "value": 127.0
        },
        {
          "id": 22,
          "value": 127.0
        },
        {
          "id": 23,
          "value": 127.0
        },
        {
          "id": 24,
          "value": 127.0
        },
        {
          "id": 25,
          "value": 127.0
        },
        {
          "id": 26,
          "value": 127.0
        },
        {
          "id": 27,
          "value": 127.0
        },
        {
          "id": 28,
          "value": 127.0
        },
        {
          "id": 29,
          "value": 127.0
        },
        {
          "id": 30,
          "value": 127.0
        },
        {
          "id": 31,
          "value": 127.0
        }
      ],
      "leftModuleId": 160,
      "pos": [
        15,
        2
      ]
    },
    {
      "id": 153,
      "plugin": "KautenjaDSP",
      "version": "1.0.0",
      "model": "Oscilloscope",
      "params": [
        {
          "id": 0,
          "value": 0.0
        },
        {
          "id": 1,
          "value": 0.0
        },
        {
          "id": 2,
          "value": 0.0
        },
        {
          "id": 3,
          "value": 0.0
        },
        {
          "id": 4,
          "value": 14.0
        },
        {
          "id": 5,
          "value": 0.0
        },
        {
          "id": 6,
          "value": 0.0
        },
        {
          "id": 7,
          "value": 0.0
        }
      ],
      "data": {
        "lissajous": 0,
        "external": 0
      },
      "pos": [
        0,
        3
      ]
    },
    {
      "id": 154,
      "plugin": "Bogaudio",
      "version": "1.1.34",
      "model": "Bogaudio-AnalyzerXL",
      "params": [],
      "rightModuleId": 156,
      "data": {
        "frequency_plot": "log",
        "range": 0.0,
        "amplitude_plot": "decibels_80",
        "smooth": 0.25,
        "quality": "high",
        "window": "kaiser"
      },
      "pos": [
        0,
        1
      ]
    },
    {
      "id": 156,
      "plugin": "Fundamental",
      "version": "1.4.0",
      "model": "VCMixer",
      "params": [
        {
          "id": 0,
          "value": 1.0
        },
        {
          "id": 1,
          "value": 1.41421354
        },
        {
          "id": 2,
          "value": 1.41421354
        },
        {
          "id": 3,
          "value": 1.41421354
        },
        {
          "id": 4,
          "value": 1.41421354
        }
      ],
      "leftModuleId": 154,
      "rightModuleId": 1,
      "pos": [
        42,
        1
      ]
    },
    {
      "id": 157,
      "plugin": "Fundamental",
      "version": "1.4.0",
      "model": "ADSR",
      "params": [
        {
          "id": 0,
          "value": 0.5
        },
        {
          "id": 1,
          "value": 0.5
        },
        {
          "id": 2,
          "value": 0.5
        },
        {
          "id": 3,
          "value": 0.5
        }
      ],
      "pos": [
        47,
        2
      ]
    },
    {
      "id": 160,
      "plugin": "ChordController",
      "version": "1.0.0",
      "model": "ChordController",
      "params": [
        {
          "id": 0,
          "value": 0.0
        },
        {
          "id": 1,
          "value": 0.0
        },
        {
          "id": 2,
          "value": 0.0
        },
        {
          "id": 3,
          "value": 0.0
        },
        {
          "id": 4,
          "value": 0.0
        },
        {
          "id": 5,
          "value": 0.0
        },
        {
          "id": 6,
          "value": 0.0
        }
      ],
      "leftModuleId": 5,
      "rightModuleId": 152,
      "pos": [
        8,
        2
      ]
    },
    {
      "id": 161,
      "plugin": "Bogaudio",
      "version": "1.1.34",
      "model": "Bogaudio-Mix8",
      "params": [
        {
          "id": 0,
          "value": 0.909090936
        },
        {
          "id": 1,
          "value": 0.0
        },
        {
          "id": 2,
          "value": 0.0
        },
        {
          "id": 3,
          "value": 0.909090936
        },
        {
          "id": 4,
          "value": 0.0
        },
        {
          "id": 5,
          "value": 0.0
        },
        {
          "id": 6,
          "value": 0.909090936
        },
        {
          "id": 7,
          "value": 0.0
        },
        {
          "id": 8,
          "value": 0.0
        },
        {
          "id": 9,
          "value": 0.909090936
        },
        {
          "id": 10,
          "value": 0.0
        },
        {
          "id": 11,
          "value": 0.0
        },
        {
          "id": 12,
          "value": 0.909090936
        },
        {
          "id": 13,
          "value": 0.0
        },
        {
          "id": 14,
          "value": 0.0
        },
        {
          "id": 15,
          "value": 0.909090936
        },
        {
          "id": 16,
          "value": 0.0
        },
        {
          "id": 17,
          "value": 0.0
        },
        {
          "id": 18,
          "value": 0.909090936
        },
        {
          "id": 19,
          "value": 0.0
        },
        {
          "id": 20,
          "value": 0.0
        },
        {
          "id": 21,
          "value": 0.909090936
        },
        {
          "id": 22,
          "value": 0.0
        },
        {
          "id": 23,
          "value": 0.0
        },
        {
          "id": 24,
          "value": 0.909090936
        },
        {
          "id": 25,
          "value": 0.0
        },
        {
          "id": 26,
          "value": 0.0
        }
      ],
      "rightModuleId": 162,
      "data": {
        "dim_decibels": 12.0,
        "poly_channel_offset": -1
      },
      "pos": [
        1,
        0
      ]
    },
    {
      "id": 162,
      "plugin": "Bogaudio",
      "version": "1.1.34",
      "model": "Bogaudio-Mix8",
      "params": [
        {
          "id": 0,
          "value": 0.909090936
        },
        {
          "id": 1,
          "value": 0.0
        },
        {
          "id": 2,
          "value": 0.0
        },
        {
          "id": 3,
          "value": 0.909090936
        },
        {
          "id": 4,
          "value": 0.0
        },
        {
          "id": 5,
          "value": 0.0
        },
        {
          "id": 6,
          "value": 0.909090936
        },
        {
          "id": 7,
          "value": 0.0
        },
        {
          "id": 8,
          "value": 0.0
        },
        {
          "id": 9,
          "value": 0.909090936
        },
        {
          "id": 10,
          "value": 0.0
        },
        {
          "id": 11,
          "value": 0.0
        },
        {
          "id": 12,
          "value": 0.909090936
        },
        {
          "id": 13,
          "value": 0.0
        },
        {
          "id": 14,
          "value": 0.0
        },
        {
          "id": 15,
          "value": 0.909090936
        },
        {
          "id": 16,
          "value": 0.0
        },
        {
          "id": 17,
          "value": 0.0
        },
        {
          "id": 18,
          "value": 0.909090936
        },
        {
          "id": 19,
          "value": 0.0
        },
        {
          "id": 20,
          "value": 0.0
        },
        {
          "id": 21,
          "value": 0.909090936
        },
        {
          "id": 22,
          "value": 0.0
        },
        {
          "id": 23,
          "value": 0.0
        },
        {
          "id": 24,
          "value": 0.909090936
        },
        {
          "id": 25,
          "value": 0.0
        },
        {
          "id": 26,
          "value": 0.0
        }
      ],
      "leftModuleId": 161,
      "data": {
        "dim_decibels": 12.0,
        "poly_channel_offset": -1
      },
      "pos": [
        28,
        0
      ]
    }
  ],
  "cables": [
    {
      "id": 45,
      "outputModuleId": 5,
      "outputId": 0,
      "inputModuleId": 152,
      "inputId": 0,
      "color": "#c9b70e"
    },
    {
      "id": 221,
      "outputModuleId": 5,
      "outputId": 0,
      "inputModuleId": 152,
      "inputId": 1,
      "color": "#c9b70e"
    },
    {
      "id": 225,
      "outputModuleId": 5,
      "outputId": 0,
      "inputModuleId": 152,
      "inputId": 3,
      "color": "#c9b70e"
    },
    {
      "id": 229,
      "outputModuleId": 5,
      "outputId": 0,
      "inputModuleId": 152,
      "inputId": 7,
      "color": "#c9b70e"
    },
    {
      "id": 7,
      "outputModuleId": 156,
      "outputId": 1,
      "inputModuleId": 153,
      "inputId": 0,
      "color": "#0986ad"
    },
    {
      "id": 11,
      "outputModuleId": 156,
      "outputId": 1,
      "inputModuleId": 154,
      "inputId": 0,
      "color": "#0986ad"
    },
    {
      "id": 10,
      "outputModuleId": 156,
      "outputId": 2,
      "inputModuleId": 154,
      "inputId": 1,
      "color": "#c91847"
    },
    {
      "id": 6,
      "outputModuleId": 156,
      "outputId": 2,
      "inputModuleId": 153,
      "inputId": 1,
      "color": "#c91847"
    },
    {
      "id": 232,
      "outputModuleId": 5,
      "outputId": 0,
      "inputModuleId": 152,
      "inputId": 2,
      "color": "#c9b70e"
    },
    {
      "id": 233,
      "outputModuleId": 5,
      "outputId": 0,
      "inputModuleId": 152,
      "inputId": 4,
      "color": "#c9b70e"
    },
    {
      "id": 234,
      "outputModuleId": 5,
      "outputId": 0,
      "inputModuleId": 152,
      "inputId": 5,
      "color": "#c9b70e"
    },
    {
      "id": 235,
      "outputModuleId": 5,
      "outputId": 0,
      "inputModuleId": 152,
      "inputId": 6,
      "color": "#c9b70e"
    },
    {
      "id": 240,
      "outputModuleId": 5,
      "outputId": 1,
      "inputModuleId": 152,
      "inputId": 26,
      "color": "#0c8e15"
    },
    {
      "id": 241,
      "outputModuleId": 5,
      "outputId": 1,
      "inputModuleId": 152,
      "inputId": 27,
      "color": "#0c8e15"
    },
    {
      "id": 242,
      "outputModuleId": 5,
      "outputId": 1,
      "inputModuleId": 157,
      "inputId": 4,
      "color": "#0c8e15"
    },
    {
      "id": 243,
      "outputModuleId": 5,
      "outputId": 6,
      "inputModuleId": 157,
      "inputId": 5,
      "color": "#0c8e15"
    },
    {
      "id": 244,
      "outputModuleId": 157,
      "outputId": 0,
      "inputModuleId": 156,
      "inputId": 5,
      "color": "#0c8e15"
    },
    {
      "id": 245,
      "outputModuleId": 157,
      "outputId": 0,
      "inputModuleId": 156,
      "inputId": 6,
      "color": "#0c8e15"
    },
    {
      "id": 218,
      "outputModuleId": 156,
      "outputId": 1,
      "inputModuleId": 1,
      "inputId": 0,
      "color": "#0986ad"
    },
    {
      "id": 237,
      "outputModuleId": 5,
      "outputId": 1,
      "inputModuleId": 152,
      "inputId": 25,
      "color": "#0c8e15"
    },
    {
      "id": 236,
      "outputModuleId": 5,
      "outputId": 1,
      "inputModuleId": 152,
      "inputId": 24,
      "color": "#0c8e15"
    },
    {
      "id": 252,
      "outputModuleId": 156,
      "outputId": 2,
      "inputModuleId": 1,
      "inputId": 1,
      "color": "#c91847"
    },
    {
      "id": 254,
      "outputModuleId": 152,
      "outputId": 0,
      "inputModuleId": 161,
      "inputId": 2,
      "color": "#0986ad"
    },
    {
      "id": 256,
      "outputModuleId": 152,
      "outputId": 2,
      "inputModuleId": 161,
      "inputId": 8,
      "color": "#0986ad"
    },
    {
      "id": 255,
      "outputModuleId": 152,
      "outputId": 1,
      "inputModuleId": 161,
      "inputId": 5,
      "color": "#0986ad"
    },
    {
      "id": 257,
      "outputModuleId": 152,
      "outputId": 3,
      "inputModuleId": 161,
      "inputId": 11,
      "color": "#0986ad"
    },
    {
      "id": 258,
      "outputModuleId": 152,
      "outputId": 4,
      "inputModuleId": 161,
      "inputId": 14,
      "color": "#0986ad"
    },
    {
      "id": 259,
      "outputModuleId": 152,
      "outputId": 5,
      "inputModuleId": 161,
      "inputId": 17,
      "color": "#0986ad"
    },
    {
      "id": 260,
      "outputModuleId": 152,
      "outputId": 6,
      "inputModuleId": 161,
      "inputId": 20,
      "color": "#0986ad"
    },
    {
      "id": 261,
      "outputModuleId": 152,
      "outputId": 7,
      "inputModuleId": 161,
      "inputId": 23,
      "color": "#0986ad"
    },
    {
      "id": 262,
      "outputModuleId": 152,
      "outputId": 15,
      "inputModuleId": 162,
      "inputId": 23,
      "color": "#c91847"
    },
    {
      "id": 263,
      "outputModuleId": 152,
      "outputId": 14,
      "inputModuleId": 162,
      "inputId": 20,
      "color": "#c91847"
    },
    {
      "id": 264,
      "outputModuleId": 152,
      "outputId": 13,
      "inputModuleId": 162,
      "inputId": 17,
      "color": "#c91847"
    },
    {
      "id": 265,
      "outputModuleId": 152,
      "outputId": 12,
      "inputModuleId": 162,
      "inputId": 14,
      "color": "#c91847"
    },
    {
      "id": 266,
      "outputModuleId": 152,
      "outputId": 11,
      "inputModuleId": 162,
      "inputId": 11,
      "color": "#c91847"
    },
    {
      "id": 267,
      "outputModuleId": 152,
      "outputId": 10,
      "inputModuleId": 162,
      "inputId": 8,
      "color": "#c91847"
    },
    {
      "id": 268,
      "outputModuleId": 152,
      "outputId": 9,
      "inputModuleId": 162,
      "inputId": 5,
      "color": "#c91847"
    },
    {
      "id": 269,
      "outputModuleId": 152,
      "outputId": 8,
      "inputModuleId": 162,
      "inputId": 2,
      "color": "#c91847"
    },
    {
      "id": 270,
      "outputModuleId": 5,
      "outputId": 1,
      "inputModuleId": 152,
      "inputId": 28,
      "color": "#0c8e15"
    },
    {
      "id": 271,
      "outputModuleId": 5,
      "outputId": 1,
      "inputModuleId": 152,
      "inputId": 29,
      "color": "#0c8e15"
    },
    {
      "id": 272,
      "outputModuleId": 5,
      "outputId": 1,
      "inputModuleId": 152,
      "inputId": 30,
      "color": "#0c8e15"
    },
    {
      "id": 273,
      "outputModuleId": 5,
      "outputId": 1,
      "inputModuleId": 152,
      "inputId": 31,
      "color": "#0c8e15"
    },
    {
      "id": 231,
      "outputModuleId": 152,
      "outputId": 8,
      "inputModuleId": 156,
      "inputId": 4,
      "color": "#c91847"
    },
    {
      "id": 230,
      "outputModuleId": 152,
      "outputId": 0,
      "inputModuleId": 156,
      "inputId": 3,
      "color": "#0986ad"
    },
    {
      "id": 274,
      "outputModuleId": 162,
      "outputId": 1,
      "inputModuleId": 156,
      "inputId": 2,
      "color": "#c91847"
    },
    {
      "id": 275,
      "outputModuleId": 161,
      "outputId": 1,
      "inputModuleId": 156,
      "inputId": 1,
      "color": "#0986ad"
    }
  ]
}