{
  "version": "1.dev.eefe794",
  "modules": [
    {
      "id": 1,
      "plugin": "Core",
      "version": "1.1.6",
      "model": "AudioInterface",
      "params": [],
      "leftModuleId": 19,
      "rightModuleId": 82,
      "data": {
        "audio": {
          "driver": 5,
          "deviceName": "Apple Inc.: Built-in Output",
          "offset": 0,
          "maxChannels": 8,
          "sampleRate": 96000,
          "blockSize": 1024
        }
      },
      "pos": [
        73,
        0
      ]
    },
    {
      "id": 5,
      "plugin": "Core",
      "version": "1.1.6",
      "model": "MIDIToCVInterface",
      "params": [],
      "leftModuleId": 137,
      "rightModuleId": 136,
      "data": {
        "channels": 4,
        "polyMode": 0,
        "clockDivision": 24,
        "lastPitch": 8192,
        "lastMod": 0,
        "midi": {
          "driver": -11,
          "deviceName": "QWERTY keyboard (US)",
          "channel": -1
        }
      },
      "pos": [
        1,
        0
      ]
    },
    {
      "id": 7,
      "plugin": "Fundamental",
      "version": "1.4.0",
      "model": "Scope",
      "params": [
        {
          "id": 0,
          "value": 0.0
        },
        {
          "id": 1,
          "value": 0.0
        },
        {
          "id": 2,
          "value": 0.0
        },
        {
          "id": 3,
          "value": 0.0
        },
        {
          "id": 4,
          "value": 14.0
        },
        {
          "id": 5,
          "value": 0.0
        },
        {
          "id": 6,
          "value": 0.0
        },
        {
          "id": 7,
          "value": 0.0
        }
      ],
      "rightModuleId": 16,
      "data": {
        "lissajous": 0,
        "external": 0
      },
      "pos": [
        0,
        1
      ]
    },
    {
      "id": 11,
      "plugin": "KautenjaDSP-PotatoChips",
      "version": "1.8.0",
      "model": "106",
      "params": [
        {
          "id": 0,
          "value": 0.0
        },
        {
          "id": 1,
          "value": 0.0
        },
        {
          "id": 2,
          "value": 0.0
        },
        {
          "id": 3,
          "value": 0.0
        },
        {
          "id": 4,
          "value": 0.0
        },
        {
          "id": 5,
          "value": 0.0
        },
        {
          "id": 6,
          "value": 0.0
        },
        {
          "id": 7,
          "value": 0.0
        },
        {
          "id": 8,
          "value": 15.0
        },
        {
          "id": 9,
          "value": 15.0
        },
        {
          "id": 10,
          "value": 15.0
        },
        {
          "id": 11,
          "value": 15.0
        },
        {
          "id": 12,
          "value": 15.0
        },
        {
          "id": 13,
          "value": 15.0
        },
        {
          "id": 14,
          "value": 15.0
        },
        {
          "id": 15,
          "value": 15.0
        },
        {
          "id": 16,
          "value": 5.13699961
        },
        {
          "id": 17,
          "value": 0.0
        },
        {
          "id": 18,
          "value": 1.0
        },
        {
          "id": 19,
          "value": 1.0
        }
      ],
      "leftModuleId": 136,
      "rightModuleId": 19,
      "data": {
        "wavetable0": [
          8,
          9,
          10,
          12,
          13,
          14,
          14,
          15,
          15,
          15,
          14,
          14,
          13,
          12,
          10,
          9,
          8,
          6,
          5,
          3,
          2,
          12,
          12,
          13,
          13,
          14,
          15,
          1,
          2,
          3,
          5,
          6
        ],
        "wavetable1": [
          15,
          15,
          15,
          15,
          15,
          15,
          15,
          7,
          15,
          15,
          15,
          15,
          15,
          0,
          0,
          0,
          0,
          0,
          0,
          0,
          11,
          0,
          0,
          0,
          0,
          0,
          0,
          0,
          0,
          0,
          7,
          0
        ],
        "wavetable2": [
          0,
          0,
          1,
          1,
          2,
          2,
          3,
          3,
          4,
          4,
          5,
          5,
          6,
          6,
          7,
          7,
          8,
          8,
          8,
          9,
          9,
          10,
          10,
          11,
          3,
          12,
          12,
          13,
          13,
          14,
          14,
          15
        ],
        "wavetable3": [
          8,
          6,
          9,
          8,
          11,
          10,
          13,
          12,
          15,
          12,
          13,
          10,
          11,
          8,
          9,
          6,
          8,
          5,
          6,
          3,
          4,
          1,
          2,
          0,
          0,
          0,
          2,
          1,
          4,
          3,
          6,
          5
        ],
        "wavetable4": [
          15,
          15,
          14,
          14,
          13,
          13,
          12,
          0,
          5,
          6,
          6,
          7,
          9,
          9,
          8,
          8,
          7,
          7,
          7,
          6,
          6,
          5,
          5,
          4,
          4,
          3,
          13,
          13,
          14,
          14,
          1,
          0
        ]
      },
      "pos": [
        17,
        0
      ]
    },
    {
      "id": 12,
      "plugin": "Fundamental",
      "version": "1.4.0",
      "model": "Scope",
      "params": [
        {
          "id": 0,
          "value": 0.0
        },
        {
          "id": 1,
          "value": 0.0
        },
        {
          "id": 2,
          "value": 0.0
        },
        {
          "id": 3,
          "value": 0.0
        },
        {
          "id": 4,
          "value": 14.0
        },
        {
          "id": 5,
          "value": 0.0
        },
        {
          "id": 6,
          "value": 0.0
        },
        {
          "id": 7,
          "value": 0.0
        }
      ],
      "leftModuleId": 14,
      "rightModuleId": 15,
      "data": {
        "lissajous": 0,
        "external": 0
      },
      "pos": [
        52,
        1
      ]
    },
    {
      "id": 13,
      "plugin": "Fundamental",
      "version": "1.4.0",
      "model": "Scope",
      "params": [
        {
          "id": 0,
          "value": 0.0
        },
        {
          "id": 1,
          "value": 0.0
        },
        {
          "id": 2,
          "value": 0.0
        },
        {
          "id": 3,
          "value": 0.0
        },
        {
          "id": 4,
          "value": 14.0
        },
        {
          "id": 5,
          "value": 0.0
        },
        {
          "id": 6,
          "value": 0.0
        },
        {
          "id": 7,
          "value": 0.0
        }
      ],
      "leftModuleId": 16,
      "rightModuleId": 14,
      "data": {
        "lissajous": 0,
        "external": 0
      },
      "pos": [
        26,
        1
      ]
    },
    {
      "id": 14,
      "plugin": "Fundamental",
      "version": "1.4.0",
      "model": "Scope",
      "params": [
        {
          "id": 0,
          "value": 0.0
        },
        {
          "id": 1,
          "value": 0.0
        },
        {
          "id": 2,
          "value": 0.0
        },
        {
          "id": 3,
          "value": 0.0
        },
        {
          "id": 4,
          "value": 14.0
        },
        {
          "id": 5,
          "value": 0.0
        },
        {
          "id": 6,
          "value": 0.0
        },
        {
          "id": 7,
          "value": 0.0
        }
      ],
      "leftModuleId": 13,
      "rightModuleId": 12,
      "data": {
        "lissajous": 0,
        "external": 0
      },
      "pos": [
        39,
        1
      ]
    },
    {
      "id": 15,
      "plugin": "Fundamental",
      "version": "1.4.0",
      "model": "Scope",
      "params": [
        {
          "id": 0,
          "value": 0.0
        },
        {
          "id": 1,
          "value": 0.0
        },
        {
          "id": 2,
          "value": 0.0
        },
        {
          "id": 3,
          "value": 0.0
        },
        {
          "id": 4,
          "value": 14.0
        },
        {
          "id": 5,
          "value": 0.0
        },
        {
          "id": 6,
          "value": 0.0
        },
        {
          "id": 7,
          "value": 0.0
        }
      ],
      "leftModuleId": 12,
      "rightModuleId": 17,
      "data": {
        "lissajous": 0,
        "external": 0
      },
      "pos": [
        65,
        1
      ]
    },
    {
      "id": 16,
      "plugin": "Fundamental",
      "version": "1.4.0",
      "model": "Scope",
      "params": [
        {
          "id": 0,
          "value": 0.0
        },
        {
          "id": 1,
          "value": 0.0
        },
        {
          "id": 2,
          "value": 0.0
        },
        {
          "id": 3,
          "value": 0.0
        },
        {
          "id": 4,
          "value": 14.0
        },
        {
          "id": 5,
          "value": 0.0
        },
        {
          "id": 6,
          "value": 0.0
        },
        {
          "id": 7,
          "value": 0.0
        }
      ],
      "leftModuleId": 7,
      "rightModuleId": 13,
      "data": {
        "lissajous": 0,
        "external": 0
      },
      "pos": [
        13,
        1
      ]
    },
    {
      "id": 17,
      "plugin": "Fundamental",
      "version": "1.4.0",
      "model": "Scope",
      "params": [
        {
          "id": 0,
          "value": 0.0
        },
        {
          "id": 1,
          "value": 0.0
        },
        {
          "id": 2,
          "value": 0.0
        },
        {
          "id": 3,
          "value": 0.0
        },
        {
          "id": 4,
          "value": 14.0
        },
        {
          "id": 5,
          "value": 0.0
        },
        {
          "id": 6,
          "value": 0.0
        },
        {
          "id": 7,
          "value": 0.0
        }
      ],
      "leftModuleId": 15,
      "rightModuleId": 18,
      "data": {
        "lissajous": 0,
        "external": 0
      },
      "pos": [
        78,
        1
      ]
    },
    {
      "id": 18,
      "plugin": "Fundamental",
      "version": "1.4.0",
      "model": "Scope",
      "params": [
        {
          "id": 0,
          "value": 0.0
        },
        {
          "id": 1,
          "value": 0.0
        },
        {
          "id": 2,
          "value": 0.0
        },
        {
          "id": 3,
          "value": 0.0
        },
        {
          "id": 4,
          "value": 14.0
        },
        {
          "id": 5,
          "value": 0.0
        },
        {
          "id": 6,
          "value": 0.0
        },
        {
          "id": 7,
          "value": 0.0
        }
      ],
      "leftModuleId": 17,
      "data": {
        "lissajous": 0,
        "external": 0
      },
      "pos": [
        91,
        1
      ]
    },
    {
      "id": 19,
      "plugin": "Bogaudio",
      "version": "1.1.34",
      "model": "Bogaudio-Mix8",
      "params": [
        {
          "id": 0,
          "value": 0.818181813
        },
        {
          "id": 1,
          "value": 0.0
        },
        {
          "id": 2,
          "value": 0.0
        },
        {
          "id": 3,
          "value": 0.818181813
        },
        {
          "id": 4,
          "value": 0.0
        },
        {
          "id": 5,
          "value": 0.0
        },
        {
          "id": 6,
          "value": 0.818181813
        },
        {
          "id": 7,
          "value": 0.0
        },
        {
          "id": 8,
          "value": 0.0
        },
        {
          "id": 9,
          "value": 0.818181813
        },
        {
          "id": 10,
          "value": 0.0
        },
        {
          "id": 11,
          "value": 0.0
        },
        {
          "id": 12,
          "value": 0.818181813
        },
        {
          "id": 13,
          "value": 0.0
        },
        {
          "id": 14,
          "value": 0.0
        },
        {
          "id": 15,
          "value": 0.828090966
        },
        {
          "id": 16,
          "value": 0.0
        },
        {
          "id": 17,
          "value": 0.0
        },
        {
          "id": 18,
          "value": 0.818181813
        },
        {
          "id": 19,
          "value": 0.0
        },
        {
          "id": 20,
          "value": 0.0
        },
        {
          "id": 21,
          "value": 0.818181813
        },
        {
          "id": 22,
          "value": 0.0
        },
        {
          "id": 23,
          "value": 0.0
        },
        {
          "id": 24,
          "value": 0.818181813
        },
        {
          "id": 25,
          "value": 0.0
        },
        {
          "id": 26,
          "value": 0.0
        }
      ],
      "leftModuleId": 11,
      "rightModuleId": 1,
      "data": {
        "dim_decibels": 12.0,
        "poly_channel_offset": -1
      },
      "pos": [
        46,
        0
      ]
    },
    {
      "id": 82,
      "plugin": "Bogaudio",
      "version": "1.1.34",
      "model": "Bogaudio-AnalyzerXL",
      "params": [],
      "leftModuleId": 1,
      "data": {
        "range": 0.0,
        "range_db": 80.0,
        "smooth": 0.25,
        "quality": "good",
        "window": "kaiser"
      },
      "pos": [
        83,
        0
      ]
    },
    {
      "id": 136,
      "plugin": "Fundamental",
      "version": "1.4.0",
      "model": "ADSR",
      "params": [
        {
          "id": 0,
          "value": 0.705499887
        },
        {
          "id": 1,
          "value": 0.713
        },
        {
          "id": 2,
          "value": 0.5
        },
        {
          "id": 3,
          "value": 0.641000032
        }
      ],
      "leftModuleId": 5,
      "rightModuleId": 11,
      "pos": [
        9,
        0
      ]
    },
    {
      "id": 137,
      "plugin": "ModularFungi",
      "version": "1.1.4",
      "model": "LightsOff",
      "params": [
        {
          "id": 0,
          "value": 0.800000012
        }
      ],
      "rightModuleId": 5,
      "pos": [
        0,
        0
      ]
    }
  ],
  "cables": [
    {
      "id": 94,
      "outputModuleId": 11,
      "outputId": 0,
      "inputModuleId": 7,
      "inputId": 0,
      "color": "#c91847"
    },
    {
      "id": 96,
      "outputModuleId": 11,
      "outputId": 1,
      "inputModuleId": 16,
      "inputId": 0,
      "color": "#c91847"
    },
    {
      "id": 98,
      "outputModuleId": 11,
      "outputId": 2,
      "inputModuleId": 13,
      "inputId": 0,
      "color": "#c91847"
    },
    {
      "id": 99,
      "outputModuleId": 11,
      "outputId": 3,
      "inputModuleId": 14,
      "inputId": 0,
      "color": "#c91847"
    },
    {
      "id": 100,
      "outputModuleId": 11,
      "outputId": 4,
      "inputModuleId": 12,
      "inputId": 0,
      "color": "#c91847"
    },
    {
      "id": 101,
      "outputModuleId": 11,
      "outputId": 5,
      "inputModuleId": 15,
      "inputId": 0,
      "color": "#c91847"
    },
    {
      "id": 102,
      "outputModuleId": 11,
      "outputId": 6,
      "inputModuleId": 17,
      "inputId": 0,
      "color": "#c91847"
    },
    {
      "id": 103,
      "outputModuleId": 11,
      "outputId": 7,
      "inputModuleId": 18,
      "inputId": 0,
      "color": "#c91847"
    },
    {
      "id": 97,
      "outputModuleId": 11,
      "outputId": 0,
      "inputModuleId": 19,
      "inputId": 2,
      "color": "#c91847"
    },
    {
      "id": 106,
      "outputModuleId": 11,
      "outputId": 1,
      "inputModuleId": 19,
      "inputId": 5,
      "color": "#c91847"
    },
    {
      "id": 107,
      "outputModuleId": 11,
      "outputId": 2,
      "inputModuleId": 19,
      "inputId": 8,
      "color": "#c91847"
    },
    {
      "id": 108,
      "outputModuleId": 11,
      "outputId": 3,
      "inputModuleId": 19,
      "inputId": 11,
      "color": "#c91847"
    },
    {
      "id": 109,
      "outputModuleId": 11,
      "outputId": 4,
      "inputModuleId": 19,
      "inputId": 14,
      "color": "#c91847"
    },
    {
      "id": 110,
      "outputModuleId": 11,
      "outputId": 5,
      "inputModuleId": 19,
      "inputId": 17,
      "color": "#c91847"
    },
    {
      "id": 111,
      "outputModuleId": 11,
      "outputId": 6,
      "inputModuleId": 19,
      "inputId": 20,
      "color": "#c91847"
    },
    {
      "id": 157,
      "outputModuleId": 5,
      "outputId": 0,
      "inputModuleId": 11,
      "inputId": 0,
      "color": "#0c8e15"
    },
    {
      "id": 158,
      "outputModuleId": 5,
      "outputId": 0,
      "inputModuleId": 11,
      "inputId": 1,
      "color": "#c91847"
    },
    {
      "id": 159,
      "outputModuleId": 5,
      "outputId": 0,
      "inputModuleId": 11,
      "inputId": 2,
      "color": "#0986ad"
    },
    {
      "id": 160,
      "outputModuleId": 5,
      "outputId": 0,
      "inputModuleId": 11,
      "inputId": 3,
      "color": "#c9b70e"
    },
    {
      "id": 161,
      "outputModuleId": 5,
      "outputId": 0,
      "inputModuleId": 11,
      "inputId": 4,
      "color": "#0c8e15"
    },
    {
      "id": 162,
      "outputModuleId": 5,
      "outputId": 0,
      "inputModuleId": 11,
      "inputId": 5,
      "color": "#c91847"
    },
    {
      "id": 163,
      "outputModuleId": 5,
      "outputId": 0,
      "inputModuleId": 11,
      "inputId": 6,
      "color": "#0986ad"
    },
    {
      "id": 164,
      "outputModuleId": 5,
      "outputId": 0,
      "inputModuleId": 11,
      "inputId": 7,
      "color": "#c9b70e"
    },
    {
      "id": 104,
      "outputModuleId": 19,
      "outputId": 0,
      "inputModuleId": 1,
      "inputId": 0,
      "color": "#0986ad"
    },
    {
      "id": 105,
      "outputModuleId": 19,
      "outputId": 1,
      "inputModuleId": 1,
      "inputId": 1,
      "color": "#0986ad"
    },
    {
      "id": 217,
      "outputModuleId": 11,
      "outputId": 7,
      "inputModuleId": 19,
      "inputId": 23,
      "color": "#c91847"
    },
    {
      "id": 218,
      "outputModuleId": 11,
      "outputId": 7,
      "inputModuleId": 82,
      "inputId": 0,
      "color": "#0986ad"
    },
    {
      "id": 775,
      "outputModuleId": 5,
      "outputId": 4,
      "inputModuleId": 11,
      "inputId": 8,
      "color": "#c91847"
    },
    {
      "id": 776,
      "outputModuleId": 5,
      "outputId": 4,
      "inputModuleId": 11,
      "inputId": 9,
      "color": "#0986ad"
    },
    {
      "id": 777,
      "outputModuleId": 5,
      "outputId": 4,
      "inputModuleId": 11,
      "inputId": 10,
      "color": "#c9b70e"
    },
    {
      "id": 778,
      "outputModuleId": 5,
      "outputId": 4,
      "inputModuleId": 11,
      "inputId": 11,
      "color": "#0c8e15"
    },
    {
      "id": 779,
      "outputModuleId": 5,
      "outputId": 4,
      "inputModuleId": 11,
      "inputId": 12,
      "color": "#c91847"
    },
    {
      "id": 780,
      "outputModuleId": 5,
      "outputId": 4,
      "inputModuleId": 11,
      "inputId": 13,
      "color": "#0986ad"
    },
    {
      "id": 781,
      "outputModuleId": 5,
      "outputId": 4,
      "inputModuleId": 11,
      "inputId": 14,
      "color": "#c9b70e"
    },
    {
      "id": 782,
      "outputModuleId": 5,
      "outputId": 4,
      "inputModuleId": 11,
      "inputId": 15,
      "color": "#0c8e15"
    },
    {
      "id": 831,
      "outputModuleId": 136,
      "outputId": 0,
      "inputModuleId": 11,
      "inputId": 23,
      "color": "#c91847"
    },
    {
      "id": 832,
      "outputModuleId": 5,
      "outputId": 1,
      "inputModuleId": 136,
      "inputId": 4,
      "color": "#0986ad"
    },
    {
      "id": 833,
      "outputModuleId": 136,
      "outputId": 0,
      "inputModuleId": 11,
      "inputId": 22,
      "color": "#0c8e15"
    },
    {
      "id": 834,
      "outputModuleId": 136,
      "outputId": 0,
      "inputModuleId": 11,
      "inputId": 21,
      "color": "#c91847"
    },
    {
      "id": 835,
      "outputModuleId": 136,
      "outputId": 0,
      "inputModuleId": 11,
      "inputId": 20,
      "color": "#0986ad"
    },
    {
      "id": 836,
      "outputModuleId": 136,
      "outputId": 0,
      "inputModuleId": 11,
      "inputId": 19,
      "color": "#c9b70e"
    },
    {
      "id": 837,
      "outputModuleId": 136,
      "outputId": 0,
      "inputModuleId": 11,
      "inputId": 18,
      "color": "#0c8e15"
    },
    {
      "id": 838,
      "outputModuleId": 136,
      "outputId": 0,
      "inputModuleId": 11,
      "inputId": 17,
      "color": "#c91847"
    },
    {
      "id": 839,
      "outputModuleId": 136,
      "outputId": 0,
      "inputModuleId": 11,
      "inputId": 16,
      "color": "#0986ad"
    },
    {
      "id": 841,
      "outputModuleId": 136,
      "outputId": 0,
      "inputModuleId": 11,
      "inputId": 24,
      "color": "#0c8e15"
    },
    {
      "id": 842,
      "outputModuleId": 5,
      "outputId": 5,
      "inputModuleId": 136,
      "inputId": 3,
      "color": "#c91847"
    },
    {
      "id": 840,
      "outputModuleId": 136,
      "outputId": 0,
      "inputModuleId": 11,
      "inputId": 25,
      "color": "#0986ad"
    }
  ]
}