{
  "version": "1.dev.eefe794",
  "modules": [
    {
      "id": 1,
      "plugin": "Core",
      "version": "1.1.6",
      "model": "AudioInterface",
      "params": [],
      "leftModuleId": 2,
      "data": {
        "audio": {
          "driver": 5,
          "deviceName": "Apple Inc.: Built-in Output",
          "offset": 0,
          "maxChannels": 8,
          "sampleRate": 44100,
          "blockSize": 512
        }
      },
      "pos": [
        82,
        0
      ]
    },
    {
      "id": 2,
      "plugin": "Fundamental",
      "version": "1.4.0",
      "model": "VCMixer",
      "params": [
        {
          "id": 0,
          "value": 1.0
        },
        {
          "id": 1,
          "value": 1.0
        },
        {
          "id": 2,
          "value": 1.0
        },
        {
          "id": 3,
          "value": 1.0
        },
        {
          "id": 4,
          "value": 1.0
        }
      ],
      "leftModuleId": 166,
      "rightModuleId": 1,
      "pos": [
        72,
        0
      ]
    },
    {
      "id": 5,
      "plugin": "Core",
      "version": "1.1.6",
      "model": "MIDIToCVInterface",
      "params": [],
      "rightModuleId": 175,
      "data": {
        "channels": 8,
        "polyMode": 0,
        "clockDivision": 24,
        "lastPitch": 8192,
        "lastMod": 0,
        "midi": {
          "driver": -11,
          "deviceName": "QWERTY keyboard (US)",
          "channel": -1
        }
      },
      "pos": [
        0,
        0
      ]
    },
    {
      "id": 165,
      "plugin": "KautenjaDSP-PotatoChips",
      "version": "1.8.0",
      "model": "S_SMP_Gauss",
      "params": [
        {
          "id": 0,
          "value": 2.0
        },
        {
          "id": 1,
          "value": 0.707106769
        },
        {
          "id": 2,
          "value": 0.707106769
        },
        {
          "id": 3,
          "value": 127.0
        },
        {
          "id": 4,
          "value": 127.0
        }
      ],
      "leftModuleId": 172,
      "rightModuleId": 166,
      "pos": [
        50,
        0
      ]
    },
    {
      "id": 166,
      "plugin": "KautenjaDSP-PotatoChips",
      "version": "1.8.0",
      "model": "S_SMP_Echo",
      "params": [
        {
          "id": 0,
          "value": 11.0
        },
        {
          "id": 1,
          "value": 63.0
        },
        {
          "id": 2,
          "value": 127.0
        },
        {
          "id": 3,
          "value": 127.0
        },
        {
          "id": 4,
          "value": 80.0
        },
        {
          "id": 5,
          "value": -43.0
        },
        {
          "id": 6,
          "value": -37.0
        },
        {
          "id": 7,
          "value": 29.0
        },
        {
          "id": 8,
          "value": -32.0
        },
        {
          "id": 9,
          "value": 32.0
        },
        {
          "id": 10,
          "value": -56.0
        },
        {
          "id": 11,
          "value": -56.0
        }
      ],
      "leftModuleId": 165,
      "rightModuleId": 2,
      "pos": [
        58,
        0
      ]
    },
    {
      "id": 168,
      "plugin": "KautenjaDSP",
      "version": "1.0.0",
      "model": "Oscilloscope",
      "params": [
        {
          "id": 0,
          "value": 0.0
        },
        {
          "id": 1,
          "value": 0.0
        },
        {
          "id": 2,
          "value": 0.0
        },
        {
          "id": 3,
          "value": 0.0
        },
        {
          "id": 4,
          "value": 14.0
        },
        {
          "id": 5,
          "value": 0.0
        },
        {
          "id": 6,
          "value": 0.0
        },
        {
          "id": 7,
          "value": 0.0
        }
      ],
      "rightModuleId": 169,
      "data": {
        "lissajous": 0,
        "external": 0
      },
      "pos": [
        0,
        1
      ]
    },
    {
      "id": 169,
      "plugin": "Bogaudio",
      "version": "1.1.34",
      "model": "Bogaudio-AnalyzerXL",
      "params": [],
      "leftModuleId": 168,
      "data": {
        "range": 0.0,
        "range_db": 80.0,
        "smooth": 0.25,
        "quality": "good",
        "window": "kaiser"
      },
      "pos": [
        47,
        1
      ]
    },
    {
      "id": 172,
      "plugin": "KautenjaDSP-PotatoChips",
      "version": "1.8.0",
      "model": "S_SMP_ADSR",
      "params": [
        {
          "id": 0,
          "value": 127.0
        },
        {
          "id": 1,
          "value": 127.0
        },
        {
          "id": 2,
          "value": 10.0
        },
        {
          "id": 3,
          "value": 5.0
        },
        {
          "id": 4,
          "value": 7.0
        },
        {
          "id": 5,
          "value": 7.0
        },
        {
          "id": 6,
          "value": 5.0
        },
        {
          "id": 7,
          "value": 2.0
        },
        {
          "id": 8,
          "value": 15.0
        },
        {
          "id": 9,
          "value": 20.0
        }
      ],
      "leftModuleId": 175,
      "rightModuleId": 165,
      "pos": [
        34,
        0
      ]
    },
    {
      "id": 175,
      "plugin": "KautenjaDSP-PotatoChips",
      "version": "1.8.0",
      "model": "GBS",
      "params": [
        {
          "id": 0,
          "value": 0.0
        },
        {
          "id": 1,
          "value": 0.0
        },
        {
          "id": 2,
          "value": 0.0
        },
        {
          "id": 3,
          "value": 7.0
        },
        {
          "id": 4,
          "value": 2.0
        },
        {
          "id": 5,
          "value": 2.0
        },
        {
          "id": 6,
          "value": 0.0
        },
        {
          "id": 7,
          "value": 1.0
        },
        {
          "id": 8,
          "value": 1.0
        },
        {
          "id": 9,
          "value": 1.0
        },
        {
          "id": 10,
          "value": 1.0
        },
        {
          "id": 11,
          "value": 1.0
        }
      ],
      "leftModuleId": 5,
      "rightModuleId": 172,
      "data": {
        "wavetable0": [
          8,
          9,
          10,
          12,
          13,
          14,
          14,
          15,
          15,
          15,
          14,
          14,
          13,
          12,
          10,
          9,
          8,
          6,
          11,
          11,
          11,
          14,
          14,
          14,
          15,
          14,
          1,
          1,
          2,
          3,
          5,
          6
        ],
        "wavetable1": [
          15,
          15,
          15,
          15,
          15,
          15,
          15,
          15,
          15,
          15,
          15,
          15,
          15,
          0,
          0,
          0,
          0,
          0,
          0,
          2,
          5,
          5,
          5,
          5,
          7,
          7,
          8,
          8,
          15,
          15,
          15,
          15
        ],
        "wavetable2": [
          0,
          0,
          1,
          1,
          2,
          2,
          3,
          10,
          10,
          10,
          8,
          7,
          6,
          6,
          7,
          7,
          8,
          8,
          8,
          9,
          9,
          10,
          13,
          11,
          11,
          0,
          12,
          13,
          13,
          14,
          14,
          15
        ],
        "wavetable3": [
          8,
          6,
          9,
          8,
          11,
          10,
          13,
          12,
          15,
          12,
          13,
          10,
          11,
          8,
          9,
          6,
          8,
          5,
          6,
          3,
          4,
          1,
          12,
          12,
          14,
          0,
          2,
          1,
          4,
          3,
          6,
          5
        ],
        "wavetable4": [
          15,
          15,
          14,
          14,
          13,
          13,
          3,
          5,
          5,
          7,
          7,
          7,
          7,
          8,
          8,
          8,
          7,
          7,
          7,
          6,
          6,
          5,
          5,
          4,
          4,
          3,
          3,
          2,
          2,
          1,
          1,
          0
        ]
      },
      "pos": [
        8,
        0
      ]
    }
  ],
  "cables": [
    {
      "id": 89,
      "outputModuleId": 165,
      "outputId": 1,
      "inputModuleId": 166,
      "inputId": 1,
      "color": "#c91847"
    },
    {
      "id": 91,
      "outputModuleId": 2,
      "outputId": 1,
      "inputModuleId": 1,
      "inputId": 0,
      "color": "#0986ad"
    },
    {
      "id": 92,
      "outputModuleId": 2,
      "outputId": 2,
      "inputModuleId": 1,
      "inputId": 1,
      "color": "#c91847"
    },
    {
      "id": 97,
      "outputModuleId": 2,
      "outputId": 1,
      "inputModuleId": 168,
      "inputId": 0,
      "color": "#0986ad"
    },
    {
      "id": 98,
      "outputModuleId": 2,
      "outputId": 1,
      "inputModuleId": 169,
      "inputId": 0,
      "color": "#0986ad"
    },
    {
      "id": 86,
      "outputModuleId": 166,
      "outputId": 0,
      "inputModuleId": 2,
      "inputId": 1,
      "color": "#0986ad"
    },
    {
      "id": 93,
      "outputModuleId": 166,
      "outputId": 1,
      "inputModuleId": 2,
      "inputId": 2,
      "color": "#c91847"
    },
    {
      "id": 90,
      "outputModuleId": 165,
      "outputId": 0,
      "inputModuleId": 166,
      "inputId": 0,
      "color": "#0986ad"
    },
    {
      "id": 143,
      "outputModuleId": 2,
      "outputId": 2,
      "inputModuleId": 168,
      "inputId": 1,
      "color": "#c91847"
    },
    {
      "id": 144,
      "outputModuleId": 2,
      "outputId": 2,
      "inputModuleId": 169,
      "inputId": 1,
      "color": "#c91847"
    },
    {
      "id": 84,
      "outputModuleId": 5,
      "outputId": 1,
      "inputModuleId": 172,
      "inputId": 0,
      "color": "#c9b70e"
    },
    {
      "id": 111,
      "outputModuleId": 5,
      "outputId": 6,
      "inputModuleId": 172,
      "inputId": 2,
      "color": "#c9b70e"
    },
    {
      "id": 142,
      "outputModuleId": 172,
      "outputId": 0,
      "inputModuleId": 165,
      "inputId": 2,
      "color": "#c91847"
    },
    {
      "id": 109,
      "outputModuleId": 172,
      "outputId": 0,
      "inputModuleId": 165,
      "inputId": 1,
      "color": "#0986ad"
    },
    {
      "id": 156,
      "outputModuleId": 5,
      "outputId": 1,
      "inputModuleId": 172,
      "inputId": 1,
      "color": "#c9b70e"
    },
    {
      "id": 157,
      "outputModuleId": 5,
      "outputId": 6,
      "inputModuleId": 172,
      "inputId": 3,
      "color": "#c9b70e"
    },
    {
      "id": 141,
      "outputModuleId": 175,
      "outputId": 2,
      "inputModuleId": 165,
      "inputId": 4,
      "color": "#c91847"
    },
    {
      "id": 112,
      "outputModuleId": 175,
      "outputId": 2,
      "inputModuleId": 165,
      "inputId": 3,
      "color": "#0986ad"
    },
    {
      "id": 174,
      "outputModuleId": 5,
      "outputId": 0,
      "inputModuleId": 175,
      "inputId": 2,
      "color": "#c91847"
    }
  ]
}