{
  "version": "1.dev.eefe794",
  "modules": [
    {
      "id": 1,
      "plugin": "Core",
      "version": "1.1.6",
      "model": "AudioInterface",
      "params": [],
      "leftModuleId": 2,
      "rightModuleId": 180,
      "data": {
        "audio": {
          "driver": 5,
          "deviceName": "Apple Inc.: Built-in Output",
          "offset": 0,
          "maxChannels": 8,
          "sampleRate": 44100,
          "blockSize": 512
        }
      },
      "pos": [
        43,
        1
      ]
    },
    {
      "id": 2,
      "plugin": "Fundamental",
      "version": "1.4.0",
      "model": "VCMixer",
      "params": [
        {
          "id": 0,
          "value": 1.0
        },
        {
          "id": 1,
          "value": 1.0
        },
        {
          "id": 2,
          "value": 1.0
        },
        {
          "id": 3,
          "value": 1.0
        },
        {
          "id": 4,
          "value": 1.0
        }
      ],
      "leftModuleId": 177,
      "rightModuleId": 1,
      "pos": [
        33,
        1
      ]
    },
    {
      "id": 5,
      "plugin": "Core",
      "version": "1.1.6",
      "model": "MIDIToCVInterface",
      "params": [],
      "rightModuleId": 181,
      "data": {
        "channels": 1,
        "polyMode": 0,
        "clockDivision": 24,
        "lastPitch": 8192,
        "lastMod": 0,
        "midi": {
          "driver": -11,
          "deviceName": "QWERTY keyboard (US)",
          "channel": -1
        }
      },
      "pos": [
        0,
        0
      ]
    },
    {
      "id": 166,
      "plugin": "KautenjaDSP-PotatoChips",
      "version": "1.8.0",
      "model": "S_SMP_Echo",
      "params": [
        {
          "id": 0,
          "value": 31.0
        },
        {
          "id": 1,
          "value": 56.0
        },
        {
          "id": 2,
          "value": 127.0
        },
        {
          "id": 3,
          "value": 127.0
        },
        {
          "id": 4,
          "value": 8.0
        },
        {
          "id": 5,
          "value": -1.0
        },
        {
          "id": 6,
          "value": -32.0
        },
        {
          "id": 7,
          "value": -72.0
        },
        {
          "id": 8,
          "value": 4.0
        },
        {
          "id": 9,
          "value": -128.0
        },
        {
          "id": 10,
          "value": 9.0
        },
        {
          "id": 11,
          "value": -1.0
        }
      ],
      "leftModuleId": 172,
      "pos": [
        53,
        0
      ]
    },
    {
      "id": 172,
      "plugin": "KautenjaDSP-PotatoChips",
      "version": "1.8.0",
      "model": "S_SMP_ADSR",
      "params": [
        {
          "id": 0,
          "value": 127.0
        },
        {
          "id": 1,
          "value": 57.0
        },
        {
          "id": 2,
          "value": 9.0
        },
        {
          "id": 3,
          "value": 10.0
        },
        {
          "id": 4,
          "value": 7.0
        },
        {
          "id": 5,
          "value": 7.0
        },
        {
          "id": 6,
          "value": 7.0
        },
        {
          "id": 7,
          "value": 5.0
        },
        {
          "id": 8,
          "value": 31.0
        },
        {
          "id": 9,
          "value": 20.0
        }
      ],
      "leftModuleId": 181,
      "rightModuleId": 166,
      "pos": [
        37,
        0
      ]
    },
    {
      "id": 177,
      "plugin": "Bogaudio",
      "version": "1.1.34",
      "model": "Bogaudio-Analyzer",
      "params": [
        {
          "id": 0,
          "value": 0.0
        },
        {
          "id": 1,
          "value": 0.200000003
        },
        {
          "id": 2,
          "value": 1.0
        },
        {
          "id": 3,
          "value": 0.0
        },
        {
          "id": 4,
          "value": 1.0
        },
        {
          "id": 5,
          "value": 0.0
        }
      ],
      "leftModuleId": 178,
      "rightModuleId": 2,
      "data": {
        "range_db": 80.0
      },
      "pos": [
        13,
        1
      ]
    },
    {
      "id": 178,
      "plugin": "Fundamental",
      "version": "1.4.0",
      "model": "Scope",
      "params": [
        {
          "id": 0,
          "value": 0.0
        },
        {
          "id": 1,
          "value": 0.0
        },
        {
          "id": 2,
          "value": 0.0
        },
        {
          "id": 3,
          "value": 0.0
        },
        {
          "id": 4,
          "value": 14.0
        },
        {
          "id": 5,
          "value": 0.0
        },
        {
          "id": 6,
          "value": 0.0
        },
        {
          "id": 7,
          "value": 0.0
        }
      ],
      "rightModuleId": 177,
      "data": {
        "lissajous": 0,
        "external": 0
      },
      "pos": [
        0,
        1
      ]
    },
    {
      "id": 180,
      "plugin": "VCV-Recorder",
      "version": "1.1.0",
      "model": "Recorder",
      "params": [
        {
          "id": 0,
          "value": 1.0
        },
        {
          "id": 1,
          "value": 0.0
        }
      ],
      "leftModuleId": 1,
      "data": {
        "format": "h264",
        "path": "/Users/jameskauten/Desktop/magic.mp4",
        "incrementPath": true,
        "sampleRate": 44100,
        "depth": 16,
        "bitRate": 256000,
        "videoBitRate": 2048000
      },
      "pos": [
        53,
        1
      ]
    },
    {
      "id": 181,
      "plugin": "KautenjaDSP-PotatoChips",
      "version": "1.8.0",
      "model": "S_SMP_BRR",
      "params": [
        {
          "id": 0,
          "value": 5.38800144
        },
        {
          "id": 1,
          "value": 2.0
        },
        {
          "id": 2,
          "value": 2.0
        },
        {
          "id": 3,
          "value": 2.0
        },
        {
          "id": 4,
          "value": 2.0
        },
        {
          "id": 5,
          "value": 2.0
        },
        {
          "id": 6,
          "value": 2.0
        },
        {
          "id": 7,
          "value": 2.0
        },
        {
          "id": 8,
          "value": 0.0
        },
        {
          "id": 9,
          "value": 0.0
        },
        {
          "id": 10,
          "value": 0.0
        },
        {
          "id": 11,
          "value": 0.0
        },
        {
          "id": 12,
          "value": 0.0
        },
        {
          "id": 13,
          "value": 0.0
        },
        {
          "id": 14,
          "value": 0.0
        },
        {
          "id": 15,
          "value": 0.0
        },
        {
          "id": 16,
          "value": 127.0
        },
        {
          "id": 17,
          "value": 127.0
        },
        {
          "id": 18,
          "value": 127.0
        },
        {
          "id": 19,
          "value": 127.0
        },
        {
          "id": 20,
          "value": 127.0
        },
        {
          "id": 21,
          "value": 127.0
        },
        {
          "id": 22,
          "value": 127.0
        },
        {
          "id": 23,
          "value": 127.0
        },
        {
          "id": 24,
          "value": 127.0
        },
        {
          "id": 25,
          "value": 127.0
        },
        {
          "id": 26,
          "value": 127.0
        },
        {
          "id": 27,
          "value": 127.0
        },
        {
          "id": 28,
          "value": 127.0
        },
        {
          "id": 29,
          "value": 127.0
        },
        {
          "id": 30,
          "value": 127.0
        },
        {
          "id": 31,
          "value": 127.0
        },
        {
          "id": 32,
          "value": 0.0
        },
        {
          "id": 33,
          "value": 0.0
        }
      ],
      "leftModuleId": 5,
      "rightModuleId": 172,
      "pos": [
        8,
        0
      ]
    }
  ],
  "cables": [
    {
      "id": 91,
      "outputModuleId": 2,
      "outputId": 1,
      "inputModuleId": 1,
      "inputId": 0,
      "color": "#0986ad"
    },
    {
      "id": 92,
      "outputModuleId": 2,
      "outputId": 2,
      "inputModuleId": 1,
      "inputId": 1,
      "color": "#c91847"
    },
    {
      "id": 84,
      "outputModuleId": 5,
      "outputId": 1,
      "inputModuleId": 172,
      "inputId": 0,
      "color": "#c9b70e"
    },
    {
      "id": 156,
      "outputModuleId": 5,
      "outputId": 1,
      "inputModuleId": 172,
      "inputId": 1,
      "color": "#c9b70e"
    },
    {
      "id": 98,
      "outputModuleId": 2,
      "outputId": 1,
      "inputModuleId": 177,
      "inputId": 0,
      "color": "#0986ad"
    },
    {
      "id": 144,
      "outputModuleId": 2,
      "outputId": 2,
      "inputModuleId": 177,
      "inputId": 1,
      "color": "#c91847"
    },
    {
      "id": 97,
      "outputModuleId": 2,
      "outputId": 1,
      "inputModuleId": 178,
      "inputId": 0,
      "color": "#0986ad"
    },
    {
      "id": 143,
      "outputModuleId": 2,
      "outputId": 2,
      "inputModuleId": 178,
      "inputId": 1,
      "color": "#c91847"
    },
    {
      "id": 86,
      "outputModuleId": 166,
      "outputId": 0,
      "inputModuleId": 2,
      "inputId": 1,
      "color": "#0986ad"
    },
    {
      "id": 211,
      "outputModuleId": 166,
      "outputId": 1,
      "inputModuleId": 2,
      "inputId": 2,
      "color": "#c91847"
    },
    {
      "id": 222,
      "outputModuleId": 2,
      "outputId": 2,
      "inputModuleId": 180,
      "inputId": 3,
      "color": "#c91847"
    },
    {
      "id": 223,
      "outputModuleId": 2,
      "outputId": 1,
      "inputModuleId": 180,
      "inputId": 2,
      "color": "#0986ad"
    },
    {
      "id": 224,
      "outputModuleId": 5,
      "outputId": 0,
      "inputModuleId": 181,
      "inputId": 0,
      "color": "#0c8e15"
    },
    {
      "id": 225,
      "outputModuleId": 5,
      "outputId": 1,
      "inputModuleId": 181,
      "inputId": 24,
      "color": "#c9b70e"
    },
    {
      "id": 228,
      "outputModuleId": 181,
      "outputId": 1,
      "inputModuleId": 166,
      "inputId": 1,
      "color": "#c91847"
    },
    {
      "id": 229,
      "outputModuleId": 181,
      "outputId": 0,
      "inputModuleId": 166,
      "inputId": 0,
      "color": "#0986ad"
    },
    {
      "id": 231,
      "outputModuleId": 172,
      "outputId": 0,
      "inputModuleId": 2,
      "inputId": 6,
      "color": "#c91847"
    },
    {
      "id": 232,
      "outputModuleId": 172,
      "outputId": 0,
      "inputModuleId": 2,
      "inputId": 5,
      "color": "#0986ad"
    },
    {
      "id": 233,
      "outputModuleId": 5,
      "outputId": 6,
      "inputModuleId": 172,
      "inputId": 2,
      "color": "#c9b70e"
    },
    {
      "id": 234,
      "outputModuleId": 5,
      "outputId": 6,
      "inputModuleId": 172,
      "inputId": 3,
      "color": "#c9b70e"
    }
  ]
}