{
  "version": "1.dev.2db08f1",
  "modules": [
    {
      "id": 1,
      "plugin": "Core",
      "version": "1.1.6",
      "model": "AudioInterface",
      "params": [],
      "rightModuleId": 2,
      "data": {
        "audio": {
          "driver": 5,
          "deviceName": "Apple Inc.: Built-in Output",
          "offset": 0,
          "maxChannels": 8,
          "sampleRate": 48000,
          "blockSize": 2048
        }
      },
      "pos": [
        65,
        0
      ]
    },
    {
      "id": 2,
      "plugin": "Fundamental",
      "version": "1.4.0",
      "model": "VCMixer",
      "params": [
        {
          "id": 0,
          "value": 1.0
        },
        {
          "id": 1,
          "value": 1.0
        },
        {
          "id": 2,
          "value": 1.00550592
        },
        {
          "id": 3,
          "value": 1.0
        },
        {
          "id": 4,
          "value": 1.0
        }
      ],
      "leftModuleId": 1,
      "pos": [
        75,
        0
      ]
    },
    {
      "id": 9,
      "plugin": "Fundamental",
      "version": "1.4.0",
      "model": "Scope",
      "params": [
        {
          "id": 0,
          "value": 0.0
        },
        {
          "id": 1,
          "value": 0.0
        },
        {
          "id": 2,
          "value": 0.0
        },
        {
          "id": 3,
          "value": 0.0
        },
        {
          "id": 4,
          "value": 14.0
        },
        {
          "id": 5,
          "value": 0.0
        },
        {
          "id": 6,
          "value": 0.0
        },
        {
          "id": 7,
          "value": 0.0
        }
      ],
      "leftModuleId": 165,
      "data": {
        "lissajous": 0,
        "external": 0
      },
      "pos": [
        48,
        1
      ]
    },
    {
      "id": 76,
      "plugin": "KautenjaDSP-PotatoChips",
      "version": "1.8.0",
      "model": "SN76489",
      "params": [
        {
          "id": 0,
          "value": 0.0
        },
        {
          "id": 1,
          "value": 0.0
        },
        {
          "id": 2,
          "value": 0.0
        },
        {
          "id": 3,
          "value": 0.0
        },
        {
          "id": 4,
          "value": 0.0
        },
        {
          "id": 5,
          "value": 0.0
        },
        {
          "id": 6,
          "value": 0.0
        },
        {
          "id": 7,
          "value": 0.0
        },
        {
          "id": 8,
          "value": 7.0
        },
        {
          "id": 9,
          "value": 7.0
        },
        {
          "id": 10,
          "value": 7.0
        },
        {
          "id": 11,
          "value": 7.0
        }
      ],
      "leftModuleId": 135,
      "rightModuleId": 165,
      "pos": [
        33,
        1
      ]
    },
    {
      "id": 135,
      "plugin": "Fundamental",
      "version": "1.4.0",
      "model": "ADSR",
      "params": [
        {
          "id": 0,
          "value": 0.600499868
        },
        {
          "id": 1,
          "value": 0.5
        },
        {
          "id": 2,
          "value": 0.5
        },
        {
          "id": 3,
          "value": 0.662
        }
      ],
      "leftModuleId": 169,
      "rightModuleId": 76,
      "pos": [
        25,
        1
      ]
    },
    {
      "id": 163,
      "plugin": "Bogaudio",
      "version": "1.1.35",
      "model": "Bogaudio-Analyzer",
      "params": [
        {
          "id": 0,
          "value": 0.0
        },
        {
          "id": 1,
          "value": 0.5
        },
        {
          "id": 2,
          "value": 1.0
        },
        {
          "id": 3,
          "value": 0.0
        },
        {
          "id": 4,
          "value": 1.0
        },
        {
          "id": 5,
          "value": 0.0
        }
      ],
      "data": {
        "frequency_plot": "log",
        "amplitude_plot": "decibels_80"
      },
      "pos": [
        68,
        1
      ]
    },
    {
      "id": 165,
      "plugin": "VCV-Recorder",
      "version": "1.1.0",
      "model": "Recorder",
      "params": [
        {
          "id": 0,
          "value": 1.0
        },
        {
          "id": 1,
          "value": 0.0
        }
      ],
      "leftModuleId": 76,
      "rightModuleId": 9,
      "data": {
        "format": "wav",
        "path": "",
        "incrementPath": true,
        "sampleRate": 96000,
        "depth": 16,
        "bitRate": 256000,
        "videoBitRate": 2048000
      },
      "pos": [
        43,
        1
      ]
    },
    {
      "id": 168,
      "plugin": "Fundamental",
      "version": "1.4.0",
      "model": "SEQ3",
      "params": [
        {
          "id": 0,
          "value": 1.0
        },
        {
          "id": 1,
          "value": 0.0
        },
        {
          "id": 2,
          "value": 0.0
        },
        {
          "id": 3,
          "value": 5.0
        },
        {
          "id": 4,
          "value": 0.99000001
        },
        {
          "id": 5,
          "value": 1.17000008
        },
        {
          "id": 6,
          "value": 0.674999952
        },
        {
          "id": 7,
          "value": 0.0
        },
        {
          "id": 8,
          "value": 0.61499995
        },
        {
          "id": 9,
          "value": 0.945000052
        },
        {
          "id": 10,
          "value": 0.539999962
        },
        {
          "id": 11,
          "value": 0.0
        },
        {
          "id": 12,
          "value": 8.2406702
        },
        {
          "id": 13,
          "value": 7.3171196
        },
        {
          "id": 14,
          "value": 7.8504591
        },
        {
          "id": 15,
          "value": 8.56013393
        },
        {
          "id": 16,
          "value": 9.6907568
        },
        {
          "id": 17,
          "value": 6.89911938
        },
        {
          "id": 18,
          "value": 6.62219572
        },
        {
          "id": 19,
          "value": 9.63614082
        },
        {
          "id": 20,
          "value": 2.09116268
        },
        {
          "id": 21,
          "value": 4.36654377
        },
        {
          "id": 22,
          "value": 4.99902773
        },
        {
          "id": 23,
          "value": 0.993269086
        },
        {
          "id": 24,
          "value": 3.32948565
        },
        {
          "id": 25,
          "value": 5.85466433
        },
        {
          "id": 26,
          "value": 4.26198578
        },
        {
          "id": 27,
          "value": 5.61925459
        },
        {
          "id": 28,
          "value": 0.0
        },
        {
          "id": 29,
          "value": 0.0
        },
        {
          "id": 30,
          "value": 0.0
        },
        {
          "id": 31,
          "value": 0.0
        },
        {
          "id": 32,
          "value": 0.0
        },
        {
          "id": 33,
          "value": 0.0
        },
        {
          "id": 34,
          "value": 0.0
        },
        {
          "id": 35,
          "value": 0.0
        }
      ],
      "rightModuleId": 169,
      "data": {
        "running": true,
        "gates": [
          1,
          0,
          1,
          1,
          1,
          1,
          0,
          1
        ]
      },
      "pos": [
        0,
        1
      ]
    },
    {
      "id": 169,
      "plugin": "Fundamental",
      "version": "1.4.0",
      "model": "Quantizer",
      "params": [],
      "leftModuleId": 168,
      "rightModuleId": 135,
      "data": {
        "enabledNotes": [
          true,
          false,
          true,
          true,
          false,
          true,
          false,
          true,
          true,
          false,
          true,
          true
        ]
      },
      "pos": [
        22,
        1
      ]
    }
  ],
  "cables": [
    {
      "id": 286,
      "outputModuleId": 2,
      "outputId": 0,
      "inputModuleId": 1,
      "inputId": 0,
      "color": "#0986ad"
    },
    {
      "id": 287,
      "outputModuleId": 2,
      "outputId": 0,
      "inputModuleId": 1,
      "inputId": 1,
      "color": "#0986ad"
    },
    {
      "id": 1434,
      "outputModuleId": 2,
      "outputId": 1,
      "inputModuleId": 163,
      "inputId": 0,
      "color": "#c91847"
    },
    {
      "id": 1435,
      "outputModuleId": 2,
      "outputId": 2,
      "inputModuleId": 163,
      "inputId": 1,
      "color": "#c91847"
    },
    {
      "id": 1436,
      "outputModuleId": 2,
      "outputId": 3,
      "inputModuleId": 163,
      "inputId": 2,
      "color": "#c91847"
    },
    {
      "id": 1437,
      "outputModuleId": 2,
      "outputId": 4,
      "inputModuleId": 163,
      "inputId": 3,
      "color": "#c91847"
    },
    {
      "id": 1447,
      "outputModuleId": 135,
      "outputId": 0,
      "inputModuleId": 76,
      "inputId": 8,
      "color": "#0986ad"
    },
    {
      "id": 1451,
      "outputModuleId": 168,
      "outputId": 0,
      "inputModuleId": 135,
      "inputId": 4,
      "color": "#c91847"
    },
    {
      "id": 1450,
      "outputModuleId": 168,
      "outputId": 1,
      "inputModuleId": 169,
      "inputId": 0,
      "color": "#0c8e15"
    },
    {
      "id": 1452,
      "outputModuleId": 169,
      "outputId": 0,
      "inputModuleId": 76,
      "inputId": 0,
      "color": "#0986ad"
    },
    {
      "id": 1448,
      "outputModuleId": 76,
      "outputId": 0,
      "inputModuleId": 2,
      "inputId": 1,
      "color": "#c91847"
    }
  ]
}