{
  "version": "1.dev.eefe794",
  "modules": [
    {
      "id": 1,
      "plugin": "Core",
      "version": "1.1.6",
      "model": "AudioInterface",
      "params": [],
      "leftModuleId": 2,
      "rightModuleId": 12,
      "data": {
        "audio": {
          "driver": 5,
          "deviceName": "Apple Inc.: Built-in Output",
          "offset": 0,
          "maxChannels": 8,
          "sampleRate": 48000,
          "blockSize": 256
        }
      },
      "pos": [
        63,
        0
      ]
    },
    {
      "id": 2,
      "plugin": "Fundamental",
      "version": "1.4.0",
      "model": "VCMixer",
      "params": [
        {
          "id": 0,
          "value": 1.0
        },
        {
          "id": 1,
          "value": 0.707945764
        },
        {
          "id": 2,
          "value": 0.707945764
        },
        {
          "id": 3,
          "value": 0.707945764
        },
        {
          "id": 4,
          "value": 0.707945764
        }
      ],
      "leftModuleId": 11,
      "rightModuleId": 1,
      "pos": [
        53,
        0
      ]
    },
    {
      "id": 5,
      "plugin": "Core",
      "version": "1.1.6",
      "model": "MIDIToCVInterface",
      "params": [],
      "data": {
        "channels": 1,
        "polyMode": 0,
        "clockDivision": 24,
        "lastPitch": 8192,
        "lastMod": 0,
        "midi": {
          "driver": 1,
          "deviceName": "Arturia KeyStep 32",
          "channel": -1
        }
      },
      "pos": [
        0,
        0
      ]
    },
    {
      "id": 7,
      "plugin": "Fundamental",
      "version": "1.4.0",
      "model": "Scope",
      "params": [
        {
          "id": 0,
          "value": 0.0
        },
        {
          "id": 1,
          "value": 0.0
        },
        {
          "id": 2,
          "value": 0.0
        },
        {
          "id": 3,
          "value": 0.0
        },
        {
          "id": 4,
          "value": 14.0
        },
        {
          "id": 5,
          "value": 0.0
        },
        {
          "id": 6,
          "value": 0.0
        },
        {
          "id": 7,
          "value": 0.0
        }
      ],
      "rightModuleId": 8,
      "data": {
        "lissajous": 0,
        "external": 0
      },
      "pos": [
        22,
        1
      ]
    },
    {
      "id": 8,
      "plugin": "Fundamental",
      "version": "1.4.0",
      "model": "Scope",
      "params": [
        {
          "id": 0,
          "value": 0.0
        },
        {
          "id": 1,
          "value": 0.0
        },
        {
          "id": 2,
          "value": 0.0
        },
        {
          "id": 3,
          "value": 0.0
        },
        {
          "id": 4,
          "value": 14.0
        },
        {
          "id": 5,
          "value": 0.0
        },
        {
          "id": 6,
          "value": 0.0
        },
        {
          "id": 7,
          "value": 0.0
        }
      ],
      "leftModuleId": 7,
      "rightModuleId": 9,
      "data": {
        "lissajous": 0,
        "external": 0
      },
      "pos": [
        35,
        1
      ]
    },
    {
      "id": 9,
      "plugin": "Fundamental",
      "version": "1.4.0",
      "model": "Scope",
      "params": [
        {
          "id": 0,
          "value": 0.0
        },
        {
          "id": 1,
          "value": 0.0
        },
        {
          "id": 2,
          "value": 0.0
        },
        {
          "id": 3,
          "value": 0.0
        },
        {
          "id": 4,
          "value": 14.0
        },
        {
          "id": 5,
          "value": 0.0
        },
        {
          "id": 6,
          "value": 0.0
        },
        {
          "id": 7,
          "value": 0.0
        }
      ],
      "leftModuleId": 8,
      "rightModuleId": 10,
      "data": {
        "lissajous": 0,
        "external": 0
      },
      "pos": [
        48,
        1
      ]
    },
    {
      "id": 10,
      "plugin": "Fundamental",
      "version": "1.4.0",
      "model": "Scope",
      "params": [
        {
          "id": 0,
          "value": 0.0
        },
        {
          "id": 1,
          "value": 0.0
        },
        {
          "id": 2,
          "value": 0.0
        },
        {
          "id": 3,
          "value": 0.0
        },
        {
          "id": 4,
          "value": 14.0
        },
        {
          "id": 5,
          "value": 0.0
        },
        {
          "id": 6,
          "value": 0.0
        },
        {
          "id": 7,
          "value": 0.0
        }
      ],
      "leftModuleId": 9,
      "data": {
        "lissajous": 0,
        "external": 0
      },
      "pos": [
        61,
        1
      ]
    },
    {
      "id": 11,
      "plugin": "KautenjaDSP",
      "version": "1.0.0",
      "model": "CountingHertz",
      "params": [],
      "leftModuleId": 6,
      "rightModuleId": 2,
      "pos": [
        48,
        0
      ]
    },
    {
      "id": 12,
      "plugin": "Bogaudio",
      "version": "1.1.31",
      "model": "Bogaudio-AnalyzerXL",
      "params": [],
      "leftModuleId": 1,
      "data": {
        "range": 0.0,
        "range_db": 80.0,
        "smooth": 0.25,
        "quality": "good",
        "window": "kaiser"
      },
      "pos": [
        73,
        0
      ]
    },
    {
      "id": 6,
      "plugin": "KautenjaDSP-PotatoChips",
      "version": "1.4.1",
      "model": "POKEY",
      "params": [
        {
          "id": 0,
          "value": -12.1078959
        },
        {
          "id": 1,
          "value": -0.107905492
        },
        {
          "id": 2,
          "value": 11.8920851
        },
        {
          "id": 3,
          "value": 0.0
        },
        {
          "id": 4,
          "value": 7.0
        },
        {
          "id": 5,
          "value": 7.0
        },
        {
          "id": 6,
          "value": 7.0
        },
        {
          "id": 7,
          "value": 7.0
        },
        {
          "id": 8,
          "value": 0.5
        },
        {
          "id": 9,
          "value": 0.5
        },
        {
          "id": 10,
          "value": 0.5
        },
        {
          "id": 11,
          "value": 0.5
        },
        {
          "id": 12,
          "value": 0.0
        },
        {
          "id": 13,
          "value": 0.0
        },
        {
          "id": 14,
          "value": 0.0
        },
        {
          "id": 15,
          "value": 1.0
        },
        {
          "id": 16,
          "value": 0.0
        },
        {
          "id": 17,
          "value": 0.0
        },
        {
          "id": 18,
          "value": 0.0
        },
        {
          "id": 19,
          "value": 0.0
        }
      ],
      "leftModuleId": 13,
      "rightModuleId": 11,
      "pos": [
        30,
        0
      ]
    },
    {
      "id": 13,
      "plugin": "KautenjaDSP",
      "version": "1.0.0",
      "model": "Maths",
      "params": [
        {
          "id": 0,
          "value": 0.0
        },
        {
          "id": 1,
          "value": 0.0
        },
        {
          "id": 2,
          "value": 5.45003271
        },
        {
          "id": 3,
          "value": 3.92056561
        },
        {
          "id": 4,
          "value": 6.39517689
        },
        {
          "id": 5,
          "value": 4.12928295
        },
        {
          "id": 6,
          "value": 0.0
        },
        {
          "id": 7,
          "value": 0.0
        },
        {
          "id": 8,
          "value": 0.0
        },
        {
          "id": 9,
          "value": 0.0
        },
        {
          "id": 10,
          "value": 0.0
        },
        {
          "id": 11,
          "value": 0.0
        }
      ],
      "rightModuleId": 6,
      "data": {
        "slew1.isCycling": 0,
        "slew4.isCycling": 0
      },
      "pos": [
        10,
        0
      ]
    }
  ],
  "cables": [
    {
      "id": 282,
      "outputModuleId": 2,
      "outputId": 1,
      "inputModuleId": 7,
      "inputId": 0,
      "color": "#0986ad"
    },
    {
      "id": 283,
      "outputModuleId": 2,
      "outputId": 2,
      "inputModuleId": 8,
      "inputId": 0,
      "color": "#0c8e15"
    },
    {
      "id": 284,
      "outputModuleId": 2,
      "outputId": 3,
      "inputModuleId": 9,
      "inputId": 0,
      "color": "#c91847"
    },
    {
      "id": 286,
      "outputModuleId": 2,
      "outputId": 0,
      "inputModuleId": 1,
      "inputId": 0,
      "color": "#0986ad"
    },
    {
      "id": 287,
      "outputModuleId": 2,
      "outputId": 0,
      "inputModuleId": 1,
      "inputId": 1,
      "color": "#0986ad"
    },
    {
      "id": 285,
      "outputModuleId": 2,
      "outputId": 4,
      "inputModuleId": 10,
      "inputId": 0,
      "color": "#c9b70e"
    },
    {
      "id": 281,
      "outputModuleId": 6,
      "outputId": 3,
      "inputModuleId": 2,
      "inputId": 4,
      "color": "#c9b70e"
    },
    {
      "id": 280,
      "outputModuleId": 6,
      "outputId": 2,
      "inputModuleId": 2,
      "inputId": 3,
      "color": "#c91847"
    },
    {
      "id": 279,
      "outputModuleId": 6,
      "outputId": 1,
      "inputModuleId": 2,
      "inputId": 2,
      "color": "#0c8e15"
    },
    {
      "id": 293,
      "outputModuleId": 6,
      "outputId": 0,
      "inputModuleId": 12,
      "inputId": 0,
      "color": "#0986ad"
    },
    {
      "id": 292,
      "outputModuleId": 6,
      "outputId": 0,
      "inputModuleId": 11,
      "inputId": 0,
      "color": "#c91847"
    },
    {
      "id": 278,
      "outputModuleId": 6,
      "outputId": 0,
      "inputModuleId": 2,
      "inputId": 1,
      "color": "#0986ad"
    },
    {
      "id": 300,
      "outputModuleId": 13,
      "outputId": 2,
      "inputModuleId": 6,
      "inputId": 13,
      "color": "#0986ad"
    },
    {
      "id": 301,
      "outputModuleId": 13,
      "outputId": 2,
      "inputModuleId": 6,
      "inputId": 14,
      "color": "#c9b70e"
    },
    {
      "id": 302,
      "outputModuleId": 13,
      "outputId": 2,
      "inputModuleId": 6,
      "inputId": 15,
      "color": "#0c8e15"
    },
    {
      "id": 303,
      "outputModuleId": 5,
      "outputId": 1,
      "inputModuleId": 13,
      "inputId": 0,
      "color": "#c91847"
    },
    {
      "id": 307,
      "outputModuleId": 5,
      "outputId": 4,
      "inputModuleId": 6,
      "inputId": 4,
      "color": "#c91847"
    },
    {
      "id": 308,
      "outputModuleId": 5,
      "outputId": 4,
      "inputModuleId": 6,
      "inputId": 5,
      "color": "#0986ad"
    },
    {
      "id": 309,
      "outputModuleId": 5,
      "outputId": 4,
      "inputModuleId": 6,
      "inputId": 6,
      "color": "#c9b70e"
    },
    {
      "id": 310,
      "outputModuleId": 5,
      "outputId": 4,
      "inputModuleId": 6,
      "inputId": 7,
      "color": "#0c8e15"
    },
    {
      "id": 299,
      "outputModuleId": 13,
      "outputId": 2,
      "inputModuleId": 6,
      "inputId": 12,
      "color": "#c91847"
    },
    {
      "id": 288,
      "outputModuleId": 13,
      "outputId": 3,
      "inputModuleId": 6,
      "inputId": 0,
      "color": "#0986ad"
    },
    {
      "id": 289,
      "outputModuleId": 13,
      "outputId": 3,
      "inputModuleId": 6,
      "inputId": 1,
      "color": "#0c8e15"
    },
    {
      "id": 290,
      "outputModuleId": 13,
      "outputId": 3,
      "inputModuleId": 6,
      "inputId": 2,
      "color": "#c91847"
    },
    {
      "id": 291,
      "outputModuleId": 13,
      "outputId": 3,
      "inputModuleId": 6,
      "inputId": 3,
      "color": "#c9b70e"
    },
    {
      "id": 315,
      "outputModuleId": 5,
      "outputId": 0,
      "inputModuleId": 13,
      "inputId": 3,
      "color": "#c91847"
    }
  ]
}