{
  "version": "1.dev.eefe794",
  "modules": [
    {
      "id": 1,
      "plugin": "Core",
      "version": "1.1.6",
      "model": "AudioInterface",
      "params": [],
      "leftModuleId": 177,
      "data": {
        "audio": {
          "driver": 5,
          "deviceName": "Apple Inc.: Built-in Output",
          "offset": 0,
          "maxChannels": 8,
          "sampleRate": 44100,
          "blockSize": 512
        }
      },
      "pos": [
        70,
        1
      ]
    },
    {
      "id": 2,
      "plugin": "Fundamental",
      "version": "1.4.0",
      "model": "VCMixer",
      "params": [
        {
          "id": 0,
          "value": 1.0
        },
        {
          "id": 1,
          "value": 1.0
        },
        {
          "id": 2,
          "value": 1.0
        },
        {
          "id": 3,
          "value": 1.0
        },
        {
          "id": 4,
          "value": 1.0
        }
      ],
      "leftModuleId": 183,
      "rightModuleId": 180,
      "pos": [
        66,
        0
      ]
    },
    {
      "id": 5,
      "plugin": "Core",
      "version": "1.1.6",
      "model": "MIDIToCVInterface",
      "params": [],
      "leftModuleId": 179,
      "rightModuleId": 178,
      "data": {
        "channels": 4,
        "polyMode": 0,
        "clockDivision": 24,
        "lastPitch": 8192,
        "lastMod": 0,
        "midi": {
          "driver": -11,
          "deviceName": "QWERTY keyboard (US)",
          "channel": -1
        }
      },
      "pos": [
        29,
        1
      ]
    },
    {
      "id": 165,
      "plugin": "KautenjaDSP-PotatoChips",
      "version": "1.8.0",
      "model": "S_SMP_Gauss",
      "params": [
        {
          "id": 0,
          "value": 3.0
        },
        {
          "id": 1,
          "value": 0.707106769
        },
        {
          "id": 2,
          "value": 0.707106769
        },
        {
          "id": 3,
          "value": 127.0
        },
        {
          "id": 4,
          "value": 127.0
        }
      ],
      "leftModuleId": 172,
      "rightModuleId": 166,
      "pos": [
        16,
        0
      ]
    },
    {
      "id": 166,
      "plugin": "KautenjaDSP-PotatoChips",
      "version": "1.8.0",
      "model": "SuperEcho",
      "params": [
        {
          "id": 0,
          "value": 5.0
        },
        {
          "id": 1,
          "value": 39.0
        },
        {
          "id": 2,
          "value": 127.0
        },
        {
          "id": 3,
          "value": 127.0
        },
        {
          "id": 4,
          "value": 96.0
        },
        {
          "id": 5,
          "value": 32.0
        },
        {
          "id": 6,
          "value": 96.0
        },
        {
          "id": 7,
          "value": 48.0
        },
        {
          "id": 8,
          "value": 85.0
        },
        {
          "id": 9,
          "value": 23.0
        },
        {
          "id": 10,
          "value": -128.0
        },
        {
          "id": 11,
          "value": 1.0
        }
      ],
      "leftModuleId": 165,
      "rightModuleId": 183,
      "pos": [
        24,
        0
      ]
    },
    {
      "id": 172,
      "plugin": "KautenjaDSP-PotatoChips",
      "version": "1.8.0",
      "model": "S_SMP_ADSR",
      "params": [
        {
          "id": 0,
          "value": 127.0
        },
        {
          "id": 1,
          "value": 127.0
        },
        {
          "id": 2,
          "value": 13.0
        },
        {
          "id": 3,
          "value": 8.0
        },
        {
          "id": 4,
          "value": 4.0
        },
        {
          "id": 5,
          "value": 7.0
        },
        {
          "id": 6,
          "value": 3.0
        },
        {
          "id": 7,
          "value": 2.0
        },
        {
          "id": 8,
          "value": 26.0
        },
        {
          "id": 9,
          "value": 20.0
        }
      ],
      "rightModuleId": 165,
      "pos": [
        0,
        0
      ]
    },
    {
      "id": 177,
      "plugin": "Bogaudio",
      "version": "1.1.34",
      "model": "Bogaudio-Analyzer",
      "params": [
        {
          "id": 0,
          "value": 0.0
        },
        {
          "id": 1,
          "value": 0.200000003
        },
        {
          "id": 2,
          "value": 1.0
        },
        {
          "id": 3,
          "value": 0.0
        },
        {
          "id": 4,
          "value": 1.0
        },
        {
          "id": 5,
          "value": 0.0
        }
      ],
      "leftModuleId": 178,
      "rightModuleId": 1,
      "data": {
        "range_db": 80.0
      },
      "pos": [
        50,
        1
      ]
    },
    {
      "id": 178,
      "plugin": "Fundamental",
      "version": "1.4.0",
      "model": "Scope",
      "params": [
        {
          "id": 0,
          "value": 0.0
        },
        {
          "id": 1,
          "value": 0.0
        },
        {
          "id": 2,
          "value": 0.0
        },
        {
          "id": 3,
          "value": 0.0
        },
        {
          "id": 4,
          "value": 14.0
        },
        {
          "id": 5,
          "value": 0.0
        },
        {
          "id": 6,
          "value": 0.0
        },
        {
          "id": 7,
          "value": 0.0
        }
      ],
      "leftModuleId": 5,
      "rightModuleId": 177,
      "data": {
        "lissajous": 0,
        "external": 0
      },
      "pos": [
        37,
        1
      ]
    },
    {
      "id": 179,
      "plugin": "KautenjaDSP-PotatoChips",
      "version": "1.8.0",
      "model": "106",
      "params": [
        {
          "id": 0,
          "value": 0.0
        },
        {
          "id": 1,
          "value": 0.0
        },
        {
          "id": 2,
          "value": 0.0
        },
        {
          "id": 3,
          "value": 0.0
        },
        {
          "id": 4,
          "value": 0.0
        },
        {
          "id": 5,
          "value": 0.0
        },
        {
          "id": 6,
          "value": 0.0
        },
        {
          "id": 7,
          "value": 0.0
        },
        {
          "id": 8,
          "value": 15.0
        },
        {
          "id": 9,
          "value": 15.0
        },
        {
          "id": 10,
          "value": 15.0
        },
        {
          "id": 11,
          "value": 15.0
        },
        {
          "id": 12,
          "value": 15.0
        },
        {
          "id": 13,
          "value": 15.0
        },
        {
          "id": 14,
          "value": 15.0
        },
        {
          "id": 15,
          "value": 15.0
        },
        {
          "id": 16,
          "value": 1.0
        },
        {
          "id": 17,
          "value": 1.0
        },
        {
          "id": 18,
          "value": 2.0
        },
        {
          "id": 19,
          "value": 1.0
        }
      ],
      "rightModuleId": 5,
      "data": {
        "wavetable0": [
          8,
          9,
          10,
          12,
          13,
          14,
          14,
          15,
          15,
          15,
          14,
          14,
          13,
          12,
          10,
          9,
          8,
          6,
          5,
          3,
          2,
          1,
          1,
          0,
          0,
          0,
          1,
          1,
          2,
          3,
          5,
          6
        ],
        "wavetable1": [
          15,
          15,
          15,
          15,
          5,
          15,
          15,
          15,
          15,
          15,
          15,
          15,
          15,
          0,
          0,
          0,
          15,
          15,
          15,
          15,
          15,
          15,
          15,
          0,
          0,
          0,
          0,
          7,
          0,
          0,
          0,
          0
        ],
        "wavetable2": [
          0,
          0,
          1,
          1,
          2,
          2,
          3,
          3,
          4,
          4,
          5,
          5,
          6,
          6,
          7,
          7,
          8,
          8,
          8,
          9,
          9,
          10,
          10,
          11,
          11,
          12,
          12,
          13,
          13,
          14,
          14,
          15
        ],
        "wavetable3": [
          8,
          6,
          9,
          8,
          11,
          10,
          13,
          12,
          15,
          12,
          13,
          10,
          11,
          8,
          9,
          6,
          8,
          5,
          6,
          3,
          4,
          1,
          2,
          0,
          0,
          0,
          2,
          1,
          4,
          3,
          6,
          5
        ],
        "wavetable4": [
          15,
          15,
          14,
          14,
          13,
          13,
          12,
          12,
          11,
          11,
          10,
          10,
          9,
          9,
          8,
          8,
          7,
          7,
          7,
          6,
          6,
          5,
          5,
          4,
          4,
          3,
          3,
          2,
          2,
          1,
          1,
          0
        ]
      },
      "pos": [
        0,
        1
      ]
    },
    {
      "id": 180,
      "plugin": "VCV-Recorder",
      "version": "1.1.0",
      "model": "Recorder",
      "params": [
        {
          "id": 0,
          "value": 1.0
        },
        {
          "id": 1,
          "value": 0.0
        }
      ],
      "leftModuleId": 2,
      "data": {
        "format": "h264",
        "path": "/Users/jameskauten/Desktop/magic.mp4",
        "incrementPath": true,
        "sampleRate": 44100,
        "depth": 16,
        "bitRate": 256000,
        "videoBitRate": 2048000
      },
      "pos": [
        76,
        0
      ]
    },
    {
      "id": 183,
      "plugin": "KautenjaDSP-PotatoChips",
      "version": "1.8.0",
      "model": "S_SMP_Blank1",
      "params": [],
      "leftModuleId": 166,
      "rightModuleId": 2,
      "pos": [
        38,
        0
      ]
    }
  ],
  "cables": [
    {
      "id": 89,
      "outputModuleId": 165,
      "outputId": 1,
      "inputModuleId": 166,
      "inputId": 1,
      "color": "#c91847"
    },
    {
      "id": 91,
      "outputModuleId": 2,
      "outputId": 1,
      "inputModuleId": 1,
      "inputId": 0,
      "color": "#0986ad"
    },
    {
      "id": 92,
      "outputModuleId": 2,
      "outputId": 2,
      "inputModuleId": 1,
      "inputId": 1,
      "color": "#c91847"
    },
    {
      "id": 90,
      "outputModuleId": 165,
      "outputId": 0,
      "inputModuleId": 166,
      "inputId": 0,
      "color": "#0986ad"
    },
    {
      "id": 84,
      "outputModuleId": 5,
      "outputId": 1,
      "inputModuleId": 172,
      "inputId": 0,
      "color": "#c9b70e"
    },
    {
      "id": 111,
      "outputModuleId": 5,
      "outputId": 6,
      "inputModuleId": 172,
      "inputId": 2,
      "color": "#c9b70e"
    },
    {
      "id": 142,
      "outputModuleId": 172,
      "outputId": 0,
      "inputModuleId": 165,
      "inputId": 2,
      "color": "#c91847"
    },
    {
      "id": 109,
      "outputModuleId": 172,
      "outputId": 0,
      "inputModuleId": 165,
      "inputId": 1,
      "color": "#0986ad"
    },
    {
      "id": 156,
      "outputModuleId": 5,
      "outputId": 1,
      "inputModuleId": 172,
      "inputId": 1,
      "color": "#c9b70e"
    },
    {
      "id": 157,
      "outputModuleId": 5,
      "outputId": 6,
      "inputModuleId": 172,
      "inputId": 3,
      "color": "#c9b70e"
    },
    {
      "id": 98,
      "outputModuleId": 2,
      "outputId": 1,
      "inputModuleId": 177,
      "inputId": 0,
      "color": "#0986ad"
    },
    {
      "id": 144,
      "outputModuleId": 2,
      "outputId": 2,
      "inputModuleId": 177,
      "inputId": 1,
      "color": "#c91847"
    },
    {
      "id": 97,
      "outputModuleId": 2,
      "outputId": 1,
      "inputModuleId": 178,
      "inputId": 0,
      "color": "#0986ad"
    },
    {
      "id": 143,
      "outputModuleId": 2,
      "outputId": 2,
      "inputModuleId": 178,
      "inputId": 1,
      "color": "#c91847"
    },
    {
      "id": 180,
      "outputModuleId": 179,
      "outputId": 7,
      "inputModuleId": 165,
      "inputId": 4,
      "color": "#c91847"
    },
    {
      "id": 181,
      "outputModuleId": 179,
      "outputId": 7,
      "inputModuleId": 165,
      "inputId": 3,
      "color": "#0986ad"
    },
    {
      "id": 179,
      "outputModuleId": 5,
      "outputId": 0,
      "inputModuleId": 179,
      "inputId": 7,
      "color": "#c9b70e"
    },
    {
      "id": 86,
      "outputModuleId": 166,
      "outputId": 0,
      "inputModuleId": 2,
      "inputId": 1,
      "color": "#0986ad"
    },
    {
      "id": 211,
      "outputModuleId": 166,
      "outputId": 1,
      "inputModuleId": 2,
      "inputId": 2,
      "color": "#c91847"
    },
    {
      "id": 220,
      "outputModuleId": 172,
      "outputId": 1,
      "inputModuleId": 179,
      "inputId": 25,
      "color": "#c91847"
    },
    {
      "id": 221,
      "outputModuleId": 172,
      "outputId": 1,
      "inputModuleId": 179,
      "inputId": 24,
      "color": "#0986ad"
    },
    {
      "id": 222,
      "outputModuleId": 2,
      "outputId": 2,
      "inputModuleId": 180,
      "inputId": 3,
      "color": "#c91847"
    },
    {
      "id": 223,
      "outputModuleId": 2,
      "outputId": 1,
      "inputModuleId": 180,
      "inputId": 2,
      "color": "#0986ad"
    }
  ]
}
