{
  "version": "1.dev.2db08f1",
  "modules": [
    {
      "id": 1,
      "plugin": "Core",
      "version": "1.1.6",
      "model": "AudioInterface",
      "params": [],
      "leftModuleId": 2,
      "rightModuleId": 186,
      "data": {
        "audio": {
          "driver": 5,
          "deviceName": "Apple Inc.: Built-in Output",
          "offset": 0,
          "maxChannels": 8,
          "sampleRate": 44100,
          "blockSize": 1024
        }
      },
      "pos": [
        67,
        0
      ]
    },
    {
      "id": 2,
      "plugin": "Fundamental",
      "version": "1.4.0",
      "model": "VCMixer",
      "params": [
        {
          "id": 0,
          "value": 1.47700036
        },
        {
          "id": 1,
          "value": 1.0
        },
        {
          "id": 2,
          "value": 1.0
        },
        {
          "id": 3,
          "value": 1.0
        },
        {
          "id": 4,
          "value": 1.0
        }
      ],
      "leftModuleId": 5,
      "rightModuleId": 1,
      "pos": [
        57,
        0
      ]
    },
    {
      "id": 5,
      "plugin": "Core",
      "version": "1.1.6",
      "model": "MIDIToCVInterface",
      "params": [],
      "leftModuleId": 180,
      "rightModuleId": 2,
      "data": {
        "channels": 16,
        "polyMode": 0,
        "clockDivision": 24,
        "lastPitch": 8192,
        "lastMod": 0,
        "midi": {
          "driver": -11,
          "deviceName": "QWERTY keyboard (US)",
          "channel": -1
        }
      },
      "pos": [
        49,
        0
      ]
    },
    {
      "id": 180,
      "plugin": "KautenjaDSP-PotatoChips",
      "version": "1.8.0",
      "model": "SuperEcho",
      "params": [
        {
          "id": 0,
          "value": 22.0
        },
        {
          "id": 1,
          "value": 25.0
        },
        {
          "id": 2,
          "value": 127.0
        },
        {
          "id": 3,
          "value": 127.0
        },
        {
          "id": 4,
          "value": 96.0
        },
        {
          "id": 5,
          "value": 32.0
        },
        {
          "id": 6,
          "value": 96.0
        },
        {
          "id": 7,
          "value": 48.0
        },
        {
          "id": 8,
          "value": 85.0
        },
        {
          "id": 9,
          "value": 23.0
        },
        {
          "id": 10,
          "value": -128.0
        },
        {
          "id": 11,
          "value": 1.0
        }
      ],
      "leftModuleId": 184,
      "rightModuleId": 5,
      "pos": [
        35,
        0
      ]
    },
    {
      "id": 182,
      "plugin": "AudibleInstruments",
      "version": "1.3.1",
      "model": "Tides2",
      "params": [
        {
          "id": 0,
          "value": 0.0
        },
        {
          "id": 1,
          "value": 0.0
        },
        {
          "id": 2,
          "value": 0.0
        },
        {
          "id": 3,
          "value": -27.6479893
        },
        {
          "id": 4,
          "value": 0.669500113
        },
        {
          "id": 5,
          "value": 0.843000293
        },
        {
          "id": 6,
          "value": 0.311000288
        },
        {
          "id": 7,
          "value": 0.629000008
        },
        {
          "id": 8,
          "value": 0.0
        },
        {
          "id": 9,
          "value": 0.0
        },
        {
          "id": 10,
          "value": 0.0
        },
        {
          "id": 11,
          "value": 0.0
        },
        {
          "id": 12,
          "value": -0.430000067
        }
      ],
      "leftModuleId": 187,
      "rightModuleId": 185,
      "data": {
        "range": 1,
        "output": 2,
        "ramp": 1
      },
      "pos": [
        10,
        0
      ]
    },
    {
      "id": 184,
      "plugin": "AudibleInstruments",
      "version": "1.3.1",
      "model": "Ripples",
      "params": [
        {
          "id": 0,
          "value": 0.725499809
        },
        {
          "id": 1,
          "value": 10.1020832
        },
        {
          "id": 2,
          "value": -0.708999872
        }
      ],
      "leftModuleId": 185,
      "rightModuleId": 180,
      "pos": [
        27,
        0
      ]
    },
    {
      "id": 185,
      "plugin": "Fundamental",
      "version": "1.4.0",
      "model": "VCA-1",
      "params": [
        {
          "id": 0,
          "value": 0.0624999888
        },
        {
          "id": 1,
          "value": 1.0
        }
      ],
      "leftModuleId": 182,
      "rightModuleId": 184,
      "pos": [
        24,
        0
      ]
    },
    {
      "id": 186,
      "plugin": "VCV-Recorder",
      "version": "1.1.0",
      "model": "Recorder",
      "params": [
        {
          "id": 0,
          "value": 1.0
        },
        {
          "id": 1,
          "value": 0.0
        }
      ],
      "leftModuleId": 1,
      "data": {
        "format": "h264",
        "path": "/Users/jameskauten/Desktop/Untitled.mp4",
        "incrementPath": true,
        "sampleRate": 44100,
        "depth": 16,
        "bitRate": 320000,
        "videoBitRate": 2048000
      },
      "pos": [
        77,
        0
      ]
    },
    {
      "id": 187,
      "plugin": "Fundamental",
      "version": "1.4.0",
      "model": "LFO",
      "params": [
        {
          "id": 0,
          "value": 0.0
        },
        {
          "id": 1,
          "value": 1.0
        },
        {
          "id": 2,
          "value": -4.62499905
        },
        {
          "id": 3,
          "value": 0.911999941
        },
        {
          "id": 4,
          "value": 0.0
        },
        {
          "id": 5,
          "value": 0.5
        },
        {
          "id": 6,
          "value": 0.0
        }
      ],
      "rightModuleId": 182,
      "pos": [
        0,
        0
      ]
    }
  ],
  "cables": [
    {
      "id": 1242,
      "outputModuleId": 2,
      "outputId": 0,
      "inputModuleId": 1,
      "inputId": 1,
      "color": "#c91847"
    },
    {
      "id": 1315,
      "outputModuleId": 2,
      "outputId": 0,
      "inputModuleId": 1,
      "inputId": 0,
      "color": "#0986ad"
    },
    {
      "id": 1398,
      "outputModuleId": 180,
      "outputId": 0,
      "inputModuleId": 2,
      "inputId": 1,
      "color": "#0c8e15"
    },
    {
      "id": 1399,
      "outputModuleId": 182,
      "outputId": 0,
      "inputModuleId": 180,
      "inputId": 6,
      "color": "#0986ad"
    },
    {
      "id": 1400,
      "outputModuleId": 182,
      "outputId": 1,
      "inputModuleId": 180,
      "inputId": 7,
      "color": "#c9b70e"
    },
    {
      "id": 1401,
      "outputModuleId": 182,
      "outputId": 2,
      "inputModuleId": 180,
      "inputId": 8,
      "color": "#0c8e15"
    },
    {
      "id": 1402,
      "outputModuleId": 182,
      "outputId": 3,
      "inputModuleId": 180,
      "inputId": 9,
      "color": "#c91847"
    },
    {
      "id": 1404,
      "outputModuleId": 182,
      "outputId": 1,
      "inputModuleId": 180,
      "inputId": 11,
      "color": "#c9b70e"
    },
    {
      "id": 1405,
      "outputModuleId": 182,
      "outputId": 2,
      "inputModuleId": 180,
      "inputId": 12,
      "color": "#0c8e15"
    },
    {
      "id": 1406,
      "outputModuleId": 182,
      "outputId": 3,
      "inputModuleId": 180,
      "inputId": 13,
      "color": "#c91847"
    },
    {
      "id": 1409,
      "outputModuleId": 184,
      "outputId": 3,
      "inputModuleId": 180,
      "inputId": 0,
      "color": "#0c8e15"
    },
    {
      "id": 1411,
      "outputModuleId": 5,
      "outputId": 6,
      "inputModuleId": 182,
      "inputId": 6,
      "color": "#0986ad"
    },
    {
      "id": 1410,
      "outputModuleId": 182,
      "outputId": 3,
      "inputModuleId": 184,
      "inputId": 2,
      "color": "#c91847"
    },
    {
      "id": 1413,
      "outputModuleId": 185,
      "outputId": 0,
      "inputModuleId": 184,
      "inputId": 0,
      "color": "#0c8e15"
    },
    {
      "id": 1414,
      "outputModuleId": 182,
      "outputId": 2,
      "inputModuleId": 185,
      "inputId": 1,
      "color": "#c91847"
    },
    {
      "id": 1403,
      "outputModuleId": 182,
      "outputId": 0,
      "inputModuleId": 180,
      "inputId": 10,
      "color": "#0986ad"
    },
    {
      "id": 1415,
      "outputModuleId": 182,
      "outputId": 2,
      "inputModuleId": 180,
      "inputId": 2,
      "color": "#c9b70e"
    },
    {
      "id": 1416,
      "outputModuleId": 2,
      "outputId": 0,
      "inputModuleId": 186,
      "inputId": 2,
      "color": "#0c8e15"
    },
    {
      "id": 1418,
      "outputModuleId": 182,
      "outputId": 0,
      "inputModuleId": 182,
      "inputId": 5,
      "color": "#0986ad"
    },
    {
      "id": 1419,
      "outputModuleId": 187,
      "outputId": 0,
      "inputModuleId": 184,
      "inputId": 1,
      "color": "#0986ad"
    },
    {
      "id": 1420,
      "outputModuleId": 182,
      "outputId": 0,
      "inputModuleId": 187,
      "inputId": 0,
      "color": "#c9b70e"
    }
  ]
}
