{
  "version": "1.dev.2db08f1",
  "modules": [
    {
      "id": 1,
      "plugin": "Core",
      "version": "1.1.6",
      "model": "AudioInterface",
      "params": [],
      "leftModuleId": 32,
      "data": {
        "audio": {
          "driver": 5,
          "deviceName": "Apple Inc.: Built-in Output",
          "offset": 0,
          "maxChannels": 8,
          "sampleRate": 44100,
          "blockSize": 256
        }
      },
      "pos": [
        74,
        0
      ]
    },
    {
      "id": 5,
      "plugin": "Core",
      "version": "1.1.6",
      "model": "MIDIToCVInterface",
      "params": [],
      "rightModuleId": 30,
      "data": {
        "channels": 8,
        "polyMode": 0,
        "clockDivision": 24,
        "lastPitch": 8192,
        "lastMod": 0,
        "midi": {
          "driver": -11,
          "deviceName": "QWERTY keyboard (US)",
          "channel": -1
        }
      },
      "pos": [
        0,
        0
      ]
    },
    {
      "id": 23,
      "plugin": "KautenjaDSP",
      "version": "1.0.0",
      "model": "Mixer",
      "params": [
        {
          "id": 0,
          "value": 0.0
        },
        {
          "id": 1,
          "value": 0.0
        },
        {
          "id": 2,
          "value": 0.0
        },
        {
          "id": 3,
          "value": 0.0
        },
        {
          "id": 4,
          "value": 0.0
        },
        {
          "id": 5,
          "value": 0.0
        },
        {
          "id": 6,
          "value": 0.0
        },
        {
          "id": 7,
          "value": 0.0
        },
        {
          "id": 8,
          "value": 0.0
        },
        {
          "id": 9,
          "value": 0.0
        },
        {
          "id": 10,
          "value": 0.0
        },
        {
          "id": 11,
          "value": 0.0
        },
        {
          "id": 12,
          "value": 1.0
        },
        {
          "id": 13,
          "value": 1.0
        },
        {
          "id": 14,
          "value": 1.0
        },
        {
          "id": 15,
          "value": 1.0
        },
        {
          "id": 16,
          "value": 0.0
        },
        {
          "id": 17,
          "value": 0.0
        },
        {
          "id": 18,
          "value": 0.0
        },
        {
          "id": 19,
          "value": 0.0
        },
        {
          "id": 20,
          "value": 0.0
        },
        {
          "id": 21,
          "value": 0.0
        },
        {
          "id": 22,
          "value": 0.0
        },
        {
          "id": 23,
          "value": 0.0
        },
        {
          "id": 24,
          "value": 1.0
        }
      ],
      "leftModuleId": 26,
      "rightModuleId": 31,
      "data": {
        "solo": [
          true,
          false,
          false,
          false
        ],
        "mute": [
          false,
          false,
          false,
          false
        ]
      },
      "pos": [
        28,
        0
      ]
    },
    {
      "id": 24,
      "plugin": "Bogaudio",
      "version": "1.1.37",
      "model": "Bogaudio-AnalyzerXL",
      "params": [],
      "rightModuleId": 29,
      "data": {
        "frequency_plot": "log",
        "range": 0.0,
        "amplitude_plot": "decibels_140",
        "smooth": 0.25,
        "quality": "good",
        "window": "kaiser"
      },
      "pos": [
        0,
        1
      ]
    },
    {
      "id": 26,
      "plugin": "Bogaudio",
      "version": "1.1.37",
      "model": "Bogaudio-DADSRH",
      "params": [
        {
          "id": 0,
          "value": 0.0
        },
        {
          "id": 1,
          "value": 0.141420007
        },
        {
          "id": 2,
          "value": 0.316229999
        },
        {
          "id": 3,
          "value": 0.5
        },
        {
          "id": 4,
          "value": 0.316229999
        },
        {
          "id": 5,
          "value": 0.447210014
        },
        {
          "id": 6,
          "value": 1.0
        },
        {
          "id": 7,
          "value": 1.0
        },
        {
          "id": 8,
          "value": 1.0
        },
        {
          "id": 9,
          "value": 0.0
        },
        {
          "id": 10,
          "value": 1.0
        },
        {
          "id": 11,
          "value": 1.0
        },
        {
          "id": 12,
          "value": 1.0
        },
        {
          "id": 13,
          "value": 1.0
        }
      ],
      "leftModuleId": 30,
      "rightModuleId": 23,
      "data": {
        "triggerOnLoad": true,
        "shouldTriggerOnLoad": true
      },
      "pos": [
        18,
        0
      ]
    },
    {
      "id": 29,
      "plugin": "Fundamental",
      "version": "1.4.0",
      "model": "Scope",
      "params": [
        {
          "id": 0,
          "value": 0.0
        },
        {
          "id": 1,
          "value": 0.0
        },
        {
          "id": 2,
          "value": 0.0
        },
        {
          "id": 3,
          "value": 0.0
        },
        {
          "id": 4,
          "value": 14.0
        },
        {
          "id": 5,
          "value": 0.0
        },
        {
          "id": 6,
          "value": 0.0
        },
        {
          "id": 7,
          "value": 0.0
        }
      ],
      "leftModuleId": 24,
      "data": {
        "lissajous": 0,
        "external": 0
      },
      "pos": [
        42,
        1
      ]
    },
    {
      "id": 30,
      "plugin": "KautenjaDSP-PotatoChips",
      "version": "1.11.0",
      "model": "Blocks",
      "params": [
        {
          "id": 0,
          "value": -1.00899208
        },
        {
          "id": 1,
          "value": 0.0
        },
        {
          "id": 2,
          "value": 0.0
        },
        {
          "id": 3,
          "value": 0.0
        },
        {
          "id": 4,
          "value": 0.0
        },
        {
          "id": 5,
          "value": 0.0
        },
        {
          "id": 6,
          "value": 0.0
        },
        {
          "id": 7,
          "value": 0.0
        },
        {
          "id": 8,
          "value": 255.0
        },
        {
          "id": 9,
          "value": 255.0
        },
        {
          "id": 10,
          "value": 255.0
        },
        {
          "id": 11,
          "value": 255.0
        },
        {
          "id": 12,
          "value": 0.0
        },
        {
          "id": 13,
          "value": 0.0
        },
        {
          "id": 14,
          "value": 0.0
        },
        {
          "id": 15,
          "value": 0.0
        }
      ],
      "leftModuleId": 5,
      "rightModuleId": 26,
      "data": {
        "shape1": 2,
        "shape2": 0,
        "shape3": 0,
        "shape4": 0
      },
      "pos": [
        8,
        0
      ]
    },
    {
      "id": 31,
      "plugin": "KautenjaDSP",
      "version": "1.0.0",
      "model": "Compressor",
      "params": [
        {
          "id": 0,
          "value": -1.0
        },
        {
          "id": 1,
          "value": 1.47712123
        },
        {
          "id": 2,
          "value": 10.0
        },
        {
          "id": 3,
          "value": 0.891250908
        },
        {
          "id": 4,
          "value": 1.0
        },
        {
          "id": 5,
          "value": 1.0
        },
        {
          "id": 6,
          "value": 1.0
        },
        {
          "id": 7,
          "value": 0.0
        },
        {
          "id": 8,
          "value": 0.0
        },
        {
          "id": 9,
          "value": 0.0
        },
        {
          "id": 10,
          "value": 0.0
        }
      ],
      "leftModuleId": 23,
      "rightModuleId": 32,
      "data": {
        "is_peak_metering": true,
        "attack_shape": 0.5,
        "release_shape": 0.5,
        "look_ahead": 0.00100000005,
        "clipping_mode": 2
      },
      "pos": [
        54,
        0
      ]
    },
    {
      "id": 32,
      "plugin": "KautenjaDSP",
      "version": "1.0.0",
      "model": "Compressor",
      "params": [
        {
          "id": 0,
          "value": -1.0
        },
        {
          "id": 1,
          "value": 1.47712123
        },
        {
          "id": 2,
          "value": 10.0
        },
        {
          "id": 3,
          "value": 0.891250908
        },
        {
          "id": 4,
          "value": 1.0
        },
        {
          "id": 5,
          "value": 1.0
        },
        {
          "id": 6,
          "value": 1.0
        },
        {
          "id": 7,
          "value": 0.0
        },
        {
          "id": 8,
          "value": 0.0
        },
        {
          "id": 9,
          "value": 0.0
        },
        {
          "id": 10,
          "value": 0.0
        }
      ],
      "leftModuleId": 31,
      "rightModuleId": 1,
      "data": {
        "is_peak_metering": true,
        "attack_shape": 0.5,
        "release_shape": 0.5,
        "look_ahead": 0.00100000005,
        "clipping_mode": 2
      },
      "pos": [
        64,
        0
      ]
    }
  ],
  "cables": [
    {
      "id": 1981,
      "outputModuleId": 5,
      "outputId": 1,
      "inputModuleId": 26,
      "inputId": 0,
      "color": "#000000"
    },
    {
      "id": 1983,
      "outputModuleId": 26,
      "outputId": 0,
      "inputModuleId": 30,
      "inputId": 8,
      "color": "#000000"
    },
    {
      "id": 1987,
      "outputModuleId": 30,
      "outputId": 3,
      "inputModuleId": 23,
      "inputId": 3,
      "color": "#000000"
    },
    {
      "id": 1986,
      "outputModuleId": 30,
      "outputId": 2,
      "inputModuleId": 23,
      "inputId": 2,
      "color": "#000000"
    },
    {
      "id": 1985,
      "outputModuleId": 30,
      "outputId": 1,
      "inputModuleId": 23,
      "inputId": 1,
      "color": "#000000"
    },
    {
      "id": 1989,
      "outputModuleId": 30,
      "outputId": 0,
      "inputModuleId": 24,
      "inputId": 0,
      "color": "#000000"
    },
    {
      "id": 1988,
      "outputModuleId": 30,
      "outputId": 0,
      "inputModuleId": 29,
      "inputId": 0,
      "color": "#000000"
    },
    {
      "id": 1984,
      "outputModuleId": 30,
      "outputId": 0,
      "inputModuleId": 23,
      "inputId": 0,
      "color": "#000000"
    },
    {
      "id": 1977,
      "outputModuleId": 23,
      "outputId": 8,
      "inputModuleId": 31,
      "inputId": 0,
      "color": "#000000"
    },
    {
      "id": 1978,
      "outputModuleId": 23,
      "outputId": 9,
      "inputModuleId": 32,
      "inputId": 0,
      "color": "#000000"
    },
    {
      "id": 1990,
      "outputModuleId": 31,
      "outputId": 0,
      "inputModuleId": 1,
      "inputId": 0,
      "color": "#000000"
    },
    {
      "id": 1991,
      "outputModuleId": 32,
      "outputId": 0,
      "inputModuleId": 1,
      "inputId": 1,
      "color": "#000000"
    },
    {
      "id": 1982,
      "outputModuleId": 5,
      "outputId": 0,
      "inputModuleId": 30,
      "inputId": 0,
      "color": "#000000"
    }
  ]
}