{
  "version": "1.dev.476a49b",
  "modules": [
    {
      "id": 1,
      "plugin": "Core",
      "version": "1.1.6",
      "model": "AudioInterface",
      "params": [],
      "leftModuleId": 2,
      "rightModuleId": 7,
      "data": {
        "audio": {
          "driver": 1,
          "deviceName": "hw:Sanskrit 6th,0",
          "offset": 0,
          "maxChannels": 8,
          "sampleRate": 44100,
          "blockSize": 1024
        }
      },
      "pos": [
        35,
        0
      ]
    },
    {
      "id": 2,
      "plugin": "Fundamental",
      "version": "1.4.0",
      "model": "VCMixer",
      "params": [
        {
          "id": 0,
          "value": 1.0
        },
        {
          "id": 1,
          "value": 1.0
        },
        {
          "id": 2,
          "value": 0.613919795
        },
        {
          "id": 3,
          "value": 1.0
        },
        {
          "id": 4,
          "value": 1.0
        }
      ],
      "leftModuleId": 16,
      "rightModuleId": 1,
      "pos": [
        25,
        0
      ]
    },
    {
      "id": 5,
      "plugin": "Core",
      "version": "1.1.6",
      "model": "MIDIToCVInterface",
      "params": [],
      "rightModuleId": 16,
      "data": {
        "channels": 1,
        "polyMode": 0,
        "clockDivision": 24,
        "lastPitch": 8192,
        "lastMod": 0,
        "midi": {
          "driver": -11,
          "deviceName": "QWERTY keyboard (US)",
          "channel": -1
        }
      },
      "pos": [
        0,
        0
      ]
    },
    {
      "id": 7,
      "plugin": "Fundamental",
      "version": "1.4.0",
      "model": "Scope",
      "params": [
        {
          "id": 0,
          "value": 0.0
        },
        {
          "id": 1,
          "value": 0.0
        },
        {
          "id": 2,
          "value": 0.0
        },
        {
          "id": 3,
          "value": 0.0
        },
        {
          "id": 4,
          "value": 14.0
        },
        {
          "id": 5,
          "value": 0.0
        },
        {
          "id": 6,
          "value": 0.0
        },
        {
          "id": 7,
          "value": 0.0
        }
      ],
      "leftModuleId": 1,
      "data": {
        "lissajous": 0,
        "external": 0
      },
      "pos": [
        45,
        0
      ]
    },
    {
      "id": 16,
      "plugin": "KautenjaDSP-PotatoChips",
      "version": "1.8.0",
      "model": "AY_3_8910",
      "params": [
        {
          "id": 0,
          "value": 0.0
        },
        {
          "id": 1,
          "value": 0.0
        },
        {
          "id": 2,
          "value": -2.94000196
        },
        {
          "id": 3,
          "value": 1.75
        },
        {
          "id": 4,
          "value": 0.0
        },
        {
          "id": 5,
          "value": 0.0
        },
        {
          "id": 6,
          "value": 0.0
        },
        {
          "id": 7,
          "value": 1.7741695e-7
        },
        {
          "id": 8,
          "value": 10.0
        },
        {
          "id": 9,
          "value": 10.0
        },
        {
          "id": 10,
          "value": 10.0
        },
        {
          "id": 11,
          "value": 1.0
        },
        {
          "id": 12,
          "value": 1.0
        },
        {
          "id": 13,
          "value": 1.0
        },
        {
          "id": 14,
          "value": 0.0
        },
        {
          "id": 15,
          "value": 0.0
        },
        {
          "id": 16,
          "value": 0.0
        },
        {
          "id": 17,
          "value": 1.0
        },
        {
          "id": 18,
          "value": 1.0
        },
        {
          "id": 19,
          "value": 1.0
        },
        {
          "id": 20,
          "value": 0.0
        },
        {
          "id": 21,
          "value": 0.0
        }
      ],
      "leftModuleId": 5,
      "rightModuleId": 2,
      "data": {
        "envMode": 0
      },
      "pos": [
        8,
        0
      ]
    }
  ],
  "cables": [
    {
      "id": 846,
      "outputModuleId": 5,
      "outputId": 6,
      "inputModuleId": 16,
      "inputId": 25,
      "color": "#c91847"
    },
    {
      "id": 286,
      "outputModuleId": 2,
      "outputId": 0,
      "inputModuleId": 1,
      "inputId": 0,
      "color": "#0986ad"
    },
    {
      "id": 287,
      "outputModuleId": 2,
      "outputId": 0,
      "inputModuleId": 1,
      "inputId": 1,
      "color": "#0986ad"
    },
    {
      "id": 282,
      "outputModuleId": 2,
      "outputId": 0,
      "inputModuleId": 7,
      "inputId": 0,
      "color": "#0986ad"
    },
    {
      "id": 854,
      "outputModuleId": 16,
      "outputId": 2,
      "inputModuleId": 2,
      "inputId": 1,
      "color": "#c9b70e"
    },
    {
      "id": 855,
      "outputModuleId": 5,
      "outputId": 0,
      "inputModuleId": 16,
      "inputId": 0,
      "color": "#0986ad"
    }
  ]
}