{
  "version": "1.dev.476a49b",
  "modules": [
    {
      "id": 1,
      "plugin": "Core",
      "version": "1.1.6",
      "model": "AudioInterface",
      "params": [],
      "leftModuleId": 7,
      "data": {
        "audio": {
          "driver": 1,
          "deviceName": "hw:Sanskrit 6th,0",
          "offset": 0,
          "maxChannels": 8,
          "sampleRate": 44100,
          "blockSize": 512
        }
      },
      "pos": [
        49,
        0
      ]
    },
    {
      "id": 2,
      "plugin": "Fundamental",
      "version": "1.4.0",
      "model": "VCMixer",
      "params": [
        {
          "id": 0,
          "value": 1.0
        },
        {
          "id": 1,
          "value": 1.0
        },
        {
          "id": 2,
          "value": 1.00550592
        },
        {
          "id": 3,
          "value": 1.0
        },
        {
          "id": 4,
          "value": 1.0
        }
      ],
      "leftModuleId": 76,
      "rightModuleId": 7,
      "pos": [
        26,
        0
      ]
    },
    {
      "id": 5,
      "plugin": "Core",
      "version": "1.1.6",
      "model": "MIDIToCVInterface",
      "params": [],
      "rightModuleId": 135,
      "data": {
        "channels": 1,
        "polyMode": 0,
        "clockDivision": 24,
        "lastPitch": 8192,
        "lastMod": 0,
        "midi": {
          "driver": -11,
          "deviceName": "QWERTY keyboard (US)",
          "channel": -1
        }
      },
      "pos": [
        0,
        0
      ]
    },
    {
      "id": 7,
      "plugin": "Fundamental",
      "version": "1.4.0",
      "model": "Scope",
      "params": [
        {
          "id": 0,
          "value": 0.0
        },
        {
          "id": 1,
          "value": 0.0
        },
        {
          "id": 2,
          "value": 0.0
        },
        {
          "id": 3,
          "value": 0.0
        },
        {
          "id": 4,
          "value": 14.0
        },
        {
          "id": 5,
          "value": 0.0
        },
        {
          "id": 6,
          "value": 0.0
        },
        {
          "id": 7,
          "value": 0.0
        }
      ],
      "leftModuleId": 2,
      "rightModuleId": 1,
      "data": {
        "lissajous": 0,
        "external": 0
      },
      "pos": [
        36,
        0
      ]
    },
    {
      "id": 76,
      "plugin": "KautenjaDSP-PotatoChips",
      "version": "1.8.0",
      "model": "SN76489",
      "params": [
        {
          "id": 0,
          "value": 0.0
        },
        {
          "id": 1,
          "value": 0.0
        },
        {
          "id": 2,
          "value": 0.0
        },
        {
          "id": 3,
          "value": 0.0
        },
        {
          "id": 4,
          "value": 0.0
        },
        {
          "id": 5,
          "value": 0.0
        },
        {
          "id": 6,
          "value": 0.0
        },
        {
          "id": 7,
          "value": 0.0
        },
        {
          "id": 8,
          "value": 15.0
        },
        {
          "id": 9,
          "value": 7.0
        },
        {
          "id": 10,
          "value": 7.0
        },
        {
          "id": 11,
          "value": 15.0
        }
      ],
      "leftModuleId": 135,
      "rightModuleId": 2,
      "pos": [
        16,
        0
      ]
    },
    {
      "id": 135,
      "plugin": "Fundamental",
      "version": "1.4.0",
      "model": "ADSR",
      "params": [
        {
          "id": 0,
          "value": 0.5
        },
        {
          "id": 1,
          "value": 0.5
        },
        {
          "id": 2,
          "value": 0.5
        },
        {
          "id": 3,
          "value": 0.5
        }
      ],
      "leftModuleId": 5,
      "rightModuleId": 76,
      "pos": [
        8,
        0
      ]
    }
  ],
  "cables": [
    {
      "id": 286,
      "outputModuleId": 2,
      "outputId": 0,
      "inputModuleId": 1,
      "inputId": 0,
      "color": "#0986ad"
    },
    {
      "id": 287,
      "outputModuleId": 2,
      "outputId": 0,
      "inputModuleId": 1,
      "inputId": 1,
      "color": "#0986ad"
    },
    {
      "id": 1415,
      "outputModuleId": 2,
      "outputId": 1,
      "inputModuleId": 7,
      "inputId": 0,
      "color": "#c91847"
    },
    {
      "id": 1453,
      "outputModuleId": 5,
      "outputId": 1,
      "inputModuleId": 135,
      "inputId": 4,
      "color": "#c91847"
    },
    {
      "id": 1454,
      "outputModuleId": 5,
      "outputId": 6,
      "inputModuleId": 135,
      "inputId": 5,
      "color": "#0986ad"
    },
    {
      "id": 1455,
      "outputModuleId": 5,
      "outputId": 0,
      "inputModuleId": 76,
      "inputId": 0,
      "color": "#c9b70e"
    },
    {
      "id": 1448,
      "outputModuleId": 76,
      "outputId": 3,
      "inputModuleId": 2,
      "inputId": 1,
      "color": "#c91847"
    },
    {
      "id": 1461,
      "outputModuleId": 135,
      "outputId": 0,
      "inputModuleId": 76,
      "inputId": 8,
      "color": "#0986ad"
    }
  ]
}