{
  "version": "1.dev.2db08f1",
  "modules": [
    {
      "id": 1,
      "plugin": "Core",
      "version": "1.1.6",
      "model": "AudioInterface",
      "params": [],
      "leftModuleId": 5,
      "rightModuleId": 2,
      "data": {
        "audio": {
          "driver": 5,
          "deviceName": "Apple Inc.: Built-in Output",
          "offset": 0,
          "maxChannels": 8,
          "sampleRate": 44100,
          "blockSize": 1024
        }
      },
      "pos": [
        8,
        1
      ]
    },
    {
      "id": 2,
      "plugin": "Fundamental",
      "version": "1.4.0",
      "model": "VCMixer",
      "params": [
        {
          "id": 0,
          "value": 1.0
        },
        {
          "id": 1,
          "value": 1.0
        },
        {
          "id": 2,
          "value": 1.0
        },
        {
          "id": 3,
          "value": 1.0
        },
        {
          "id": 4,
          "value": 1.0
        }
      ],
      "leftModuleId": 1,
      "rightModuleId": 150,
      "pos": [
        18,
        1
      ]
    },
    {
      "id": 5,
      "plugin": "Core",
      "version": "1.1.6",
      "model": "MIDIToCVInterface",
      "params": [],
      "rightModuleId": 1,
      "data": {
        "channels": 1,
        "polyMode": 0,
        "clockDivision": 24,
        "lastPitch": 8192,
        "lastMod": 0,
        "midi": {
          "driver": -11,
          "deviceName": "QWERTY keyboard (US)",
          "channel": -1
        }
      },
      "pos": [
        0,
        1
      ]
    },
    {
      "id": 142,
      "plugin": "KautenjaDSP-PotatoChips",
      "version": "1.9.0",
      "model": "MiniBoss",
      "params": [
        {
          "id": 0,
          "value": 7.0
        },
        {
          "id": 1,
          "value": 0.0
        },
        {
          "id": 2,
          "value": 0.0
        },
        {
          "id": 3,
          "value": 127.0
        },
        {
          "id": 4,
          "value": 31.0
        },
        {
          "id": 5,
          "value": 100.0
        },
        {
          "id": 6,
          "value": 0.0
        },
        {
          "id": 7,
          "value": 15.0
        },
        {
          "id": 8,
          "value": 0.0
        },
        {
          "id": 9,
          "value": 15.0
        },
        {
          "id": 10,
          "value": 0.0
        },
        {
          "id": 11,
          "value": 1.0
        },
        {
          "id": 12,
          "value": 0.0
        },
        {
          "id": 13,
          "value": 0.0
        },
        {
          "id": 14,
          "value": 0.0
        },
        {
          "id": 15,
          "value": 0.0
        }
      ],
      "pos": [
        0,
        0
      ]
    },
    {
      "id": 150,
      "plugin": "Bogaudio",
      "version": "1.1.35",
      "model": "Bogaudio-VU",
      "params": [],
      "leftModuleId": 2,
      "rightModuleId": 154,
      "data": {},
      "pos": [
        28,
        1
      ]
    },
    {
      "id": 154,
      "plugin": "Bogaudio",
      "version": "1.1.35",
      "model": "Bogaudio-Analyzer",
      "params": [
        {
          "id": 0,
          "value": 0.0
        },
        {
          "id": 1,
          "value": 0.385500133
        },
        {
          "id": 2,
          "value": 1.0
        },
        {
          "id": 3,
          "value": 0.0
        },
        {
          "id": 4,
          "value": 1.0
        },
        {
          "id": 5,
          "value": 0.0
        }
      ],
      "leftModuleId": 150,
      "rightModuleId": 155,
      "data": {
        "frequency_plot": "log",
        "amplitude_plot": "decibels_140"
      },
      "pos": [
        31,
        1
      ]
    },
    {
      "id": 155,
      "plugin": "Fundamental",
      "version": "1.4.0",
      "model": "Scope",
      "params": [
        {
          "id": 0,
          "value": 0.0
        },
        {
          "id": 1,
          "value": 0.0
        },
        {
          "id": 2,
          "value": 0.0
        },
        {
          "id": 3,
          "value": 0.0
        },
        {
          "id": 4,
          "value": 14.0
        },
        {
          "id": 5,
          "value": 0.0
        },
        {
          "id": 6,
          "value": 0.0
        },
        {
          "id": 7,
          "value": 0.0
        }
      ],
      "leftModuleId": 154,
      "data": {
        "lissajous": 0,
        "external": 0
      },
      "pos": [
        51,
        1
      ]
    }
  ],
  "cables": [
    {
      "id": 1320,
      "outputModuleId": 154,
      "outputId": 0,
      "inputModuleId": 155,
      "inputId": 0,
      "color": "#0986ad"
    },
    {
      "id": 1242,
      "outputModuleId": 2,
      "outputId": 2,
      "inputModuleId": 1,
      "inputId": 1,
      "color": "#c91847"
    },
    {
      "id": 1408,
      "outputModuleId": 2,
      "outputId": 1,
      "inputModuleId": 1,
      "inputId": 0,
      "color": "#0986ad"
    },
    {
      "id": 1414,
      "outputModuleId": 142,
      "outputId": 0,
      "inputModuleId": 2,
      "inputId": 1,
      "color": "#0986ad"
    },
    {
      "id": 1415,
      "outputModuleId": 142,
      "outputId": 1,
      "inputModuleId": 2,
      "inputId": 2,
      "color": "#c91847"
    },
    {
      "id": 1317,
      "outputModuleId": 2,
      "outputId": 1,
      "inputModuleId": 150,
      "inputId": 0,
      "color": "#0986ad"
    },
    {
      "id": 1316,
      "outputModuleId": 150,
      "outputId": 0,
      "inputModuleId": 154,
      "inputId": 0,
      "color": "#0986ad"
    },
    {
      "id": 1419,
      "outputModuleId": 2,
      "outputId": 2,
      "inputModuleId": 150,
      "inputId": 1,
      "color": "#c91847"
    },
    {
      "id": 1420,
      "outputModuleId": 150,
      "outputId": 1,
      "inputModuleId": 154,
      "inputId": 1,
      "color": "#c91847"
    },
    {
      "id": 1421,
      "outputModuleId": 154,
      "outputId": 1,
      "inputModuleId": 155,
      "inputId": 1,
      "color": "#c91847"
    },
    {
      "id": 1424,
      "outputModuleId": 5,
      "outputId": 1,
      "inputModuleId": 142,
      "inputId": 10,
      "color": "#0986ad"
    },
    {
      "id": 1425,
      "outputModuleId": 5,
      "outputId": 0,
      "inputModuleId": 142,
      "inputId": 12,
      "color": "#c9b70e"
    },
    {
      "id": 1423,
      "outputModuleId": 5,
      "outputId": 6,
      "inputModuleId": 142,
      "inputId": 11,
      "color": "#c91847"
    }
  ]
}