{
  "version": "1.dev.2db08f1",
  "modules": [
    {
      "id": 1,
      "plugin": "Core",
      "version": "1.1.6",
      "model": "AudioInterface",
      "params": [],
      "leftModuleId": 154,
      "data": {
        "audio": {
          "driver": 5,
          "deviceName": "Apple Inc.: Built-in Output",
          "offset": 0,
          "maxChannels": 8,
          "sampleRate": 44100,
          "blockSize": 1024
        }
      },
      "pos": [
        47,
        0
      ]
    },
    {
      "id": 5,
      "plugin": "Core",
      "version": "1.1.6",
      "model": "MIDIToCVInterface",
      "params": [],
      "rightModuleId": 142,
      "data": {
        "channels": 1,
        "polyMode": 0,
        "clockDivision": 24,
        "lastPitch": 8192,
        "lastMod": 0,
        "midi": {
          "driver": -11,
          "deviceName": "QWERTY keyboard (US)",
          "channel": -1
        }
      },
      "pos": [
        0,
        0
      ]
    },
    {
      "id": 142,
      "plugin": "KautenjaDSP-PotatoChips",
      "version": "1.10.1",
      "model": "MiniBoss",
      "params": [
        {
          "id": 0,
          "value": 10.0
        },
        {
          "id": 1,
          "value": 100.0
        },
        {
          "id": 2,
          "value": 15.0
        },
        {
          "id": 3,
          "value": 15.0
        },
        {
          "id": 4,
          "value": 0.0
        },
        {
          "id": 5,
          "value": 11.0
        },
        {
          "id": 6,
          "value": 0.0
        },
        {
          "id": 7,
          "value": 0.0
        },
        {
          "id": 8,
          "value": 0.104999319
        },
        {
          "id": 9,
          "value": 0.0
        },
        {
          "id": 10,
          "value": 0.0
        },
        {
          "id": 11,
          "value": 0.0
        },
        {
          "id": 12,
          "value": 0.00600000005
        },
        {
          "id": 13,
          "value": 1.0
        },
        {
          "id": 14,
          "value": 0.0
        },
        {
          "id": 15,
          "value": 101.0
        }
      ],
      "leftModuleId": 5,
      "rightModuleId": 150,
      "data": {
        "prevent_clicks": true
      },
      "pos": [
        8,
        0
      ]
    },
    {
      "id": 150,
      "plugin": "Bogaudio",
      "version": "1.1.35",
      "model": "Bogaudio-VU",
      "params": [],
      "leftModuleId": 142,
      "rightModuleId": 154,
      "data": {},
      "pos": [
        24,
        0
      ]
    },
    {
      "id": 154,
      "plugin": "Bogaudio",
      "version": "1.1.35",
      "model": "Bogaudio-Analyzer",
      "params": [
        {
          "id": 0,
          "value": 0.0
        },
        {
          "id": 1,
          "value": 0.385500133
        },
        {
          "id": 2,
          "value": 1.0
        },
        {
          "id": 3,
          "value": 0.0
        },
        {
          "id": 4,
          "value": 1.0
        },
        {
          "id": 5,
          "value": 0.0
        }
      ],
      "leftModuleId": 150,
      "rightModuleId": 1,
      "data": {
        "frequency_plot": "log",
        "amplitude_plot": "decibels_140"
      },
      "pos": [
        27,
        0
      ]
    },
    {
      "id": 156,
      "plugin": "KautenjaDSP",
      "version": "1.0.0",
      "model": "Oscilloscope",
      "params": [
        {
          "id": 0,
          "value": 0.0
        },
        {
          "id": 1,
          "value": 0.0
        },
        {
          "id": 2,
          "value": 0.0
        },
        {
          "id": 3,
          "value": 0.0
        },
        {
          "id": 4,
          "value": 14.0
        },
        {
          "id": 5,
          "value": 0.0
        },
        {
          "id": 6,
          "value": 0.0
        },
        {
          "id": 7,
          "value": 0.0
        }
      ],
      "data": {
        "lissajous": 0,
        "external": 0
      },
      "pos": [
        0,
        1
      ]
    }
  ],
  "cables": [
    {
      "id": 1463,
      "outputModuleId": 5,
      "outputId": 1,
      "inputModuleId": 142,
      "inputId": 6,
      "color": "#000000"
    },
    {
      "id": 1464,
      "outputModuleId": 5,
      "outputId": 6,
      "inputModuleId": 142,
      "inputId": 7,
      "color": "#000000"
    },
    {
      "id": 1465,
      "outputModuleId": 5,
      "outputId": 0,
      "inputModuleId": 142,
      "inputId": 8,
      "color": "#000000"
    },
    {
      "id": 1469,
      "outputModuleId": 142,
      "outputId": 0,
      "inputModuleId": 156,
      "inputId": 0,
      "color": "#000000"
    },
    {
      "id": 1468,
      "outputModuleId": 142,
      "outputId": 0,
      "inputModuleId": 154,
      "inputId": 0,
      "color": "#000000"
    },
    {
      "id": 1471,
      "outputModuleId": 142,
      "outputId": 0,
      "inputModuleId": 1,
      "inputId": 1,
      "color": "#000000"
    },
    {
      "id": 1470,
      "outputModuleId": 142,
      "outputId": 0,
      "inputModuleId": 1,
      "inputId": 0,
      "color": "#000000"
    },
    {
      "id": 1467,
      "outputModuleId": 142,
      "outputId": 0,
      "inputModuleId": 150,
      "inputId": 0,
      "color": "#000000"
    }
  ]
}