{
  "version": "1.dev.2db08f1",
  "modules": [
    {
      "id": 1,
      "plugin": "Core",
      "version": "1.1.6",
      "model": "AudioInterface",
      "params": [],
      "leftModuleId": 176,
      "data": {
        "audio": {
          "driver": 5,
          "deviceName": "SMSL Audio: Sanskrit 6th",
          "offset": 0,
          "maxChannels": 8,
          "sampleRate": 44100,
          "blockSize": 256
        }
      },
      "pos": [
        67,
        0
      ]
    },
    {
      "id": 5,
      "plugin": "Core",
      "version": "1.1.6",
      "model": "MIDIToCVInterface",
      "params": [],
      "rightModuleId": 179,
      "data": {
        "channels": 4,
        "polyMode": 0,
        "clockDivision": 24,
        "lastPitch": 8192,
        "lastMod": 0,
        "midi": {
          "driver": -11,
          "deviceName": "QWERTY keyboard (US)",
          "channel": -1
        }
      },
      "pos": [
        0,
        0
      ]
    },
    {
      "id": 175,
      "plugin": "KautenjaDSP-PotatoChips",
      "version": "1.9.0",
      "model": "SuperADSR",
      "params": [
        {
          "id": 0,
          "value": 127.0
        },
        {
          "id": 1,
          "value": 127.0
        },
        {
          "id": 2,
          "value": 3.0
        },
        {
          "id": 3,
          "value": 0.0
        },
        {
          "id": 4,
          "value": 4.0
        },
        {
          "id": 5,
          "value": 0.0
        },
        {
          "id": 6,
          "value": 3.0
        },
        {
          "id": 7,
          "value": 7.0
        },
        {
          "id": 8,
          "value": 23.0
        },
        {
          "id": 9,
          "value": 26.0
        }
      ],
      "leftModuleId": 180,
      "rightModuleId": 177,
      "pos": [
        33,
        0
      ]
    },
    {
      "id": 176,
      "plugin": "KautenjaDSP-PotatoChips",
      "version": "1.9.0",
      "model": "SuperEcho",
      "params": [
        {
          "id": 0,
          "value": 13.0
        },
        {
          "id": 1,
          "value": 20.0
        },
        {
          "id": 2,
          "value": 127.0
        },
        {
          "id": 3,
          "value": 127.0
        },
        {
          "id": 4,
          "value": 96.0
        },
        {
          "id": 5,
          "value": 32.0
        },
        {
          "id": 6,
          "value": 96.0
        },
        {
          "id": 7,
          "value": 48.0
        },
        {
          "id": 8,
          "value": 85.0
        },
        {
          "id": 9,
          "value": 23.0
        },
        {
          "id": 10,
          "value": -128.0
        },
        {
          "id": 11,
          "value": 1.0
        },
        {
          "id": 12,
          "value": -1.0
        },
        {
          "id": 13,
          "value": -1.0
        },
        {
          "id": 14,
          "value": 0.299999952
        },
        {
          "id": 15,
          "value": -0.276000023
        },
        {
          "id": 16,
          "value": 0.260999978
        },
        {
          "id": 17,
          "value": -0.257999986
        },
        {
          "id": 18,
          "value": 0.198000014
        },
        {
          "id": 19,
          "value": -0.518999994
        },
        {
          "id": 20,
          "value": 0.630957365
        },
        {
          "id": 21,
          "value": 0.630957365
        },
        {
          "id": 22,
          "value": 1.0
        }
      ],
      "leftModuleId": 177,
      "rightModuleId": 1,
      "pos": [
        51,
        0
      ]
    },
    {
      "id": 177,
      "plugin": "KautenjaDSP-PotatoChips",
      "version": "1.9.0",
      "model": "SuperVCA",
      "params": [
        {
          "id": 0,
          "value": 0.0
        },
        {
          "id": 1,
          "value": 1.0
        },
        {
          "id": 2,
          "value": 1.0
        },
        {
          "id": 3,
          "value": 127.0
        },
        {
          "id": 4,
          "value": 127.0
        },
        {
          "id": 5,
          "value": 5.0
        },
        {
          "id": 6,
          "value": 5.0
        },
        {
          "id": 7,
          "value": 0.0
        }
      ],
      "leftModuleId": 175,
      "rightModuleId": 176,
      "data": {
        "filterMode": 1
      },
      "pos": [
        45,
        0
      ]
    },
    {
      "id": 179,
      "plugin": "KautenjaDSP-PotatoChips",
      "version": "1.9.0",
      "model": "VRC6",
      "params": [
        {
          "id": 0,
          "value": 0.0
        },
        {
          "id": 1,
          "value": 0.0
        },
        {
          "id": 2,
          "value": 0.0
        },
        {
          "id": 3,
          "value": 0.0
        },
        {
          "id": 4,
          "value": 0.0
        },
        {
          "id": 5,
          "value": 1.0
        },
        {
          "id": 6,
          "value": 7.0
        },
        {
          "id": 7,
          "value": 7.0
        },
        {
          "id": 8,
          "value": 0.0
        },
        {
          "id": 9,
          "value": 0.0
        },
        {
          "id": 10,
          "value": 63.0
        }
      ],
      "leftModuleId": 5,
      "rightModuleId": 180,
      "pos": [
        8,
        0
      ]
    },
    {
      "id": 180,
      "plugin": "KautenjaDSP-PotatoChips",
      "version": "1.9.0",
      "model": "AY_3_8910",
      "params": [
        {
          "id": 0,
          "value": 0.154999822
        },
        {
          "id": 1,
          "value": 0.0
        },
        {
          "id": 2,
          "value": 0.0
        },
        {
          "id": 3,
          "value": 3.44650102
        },
        {
          "id": 4,
          "value": 0.0
        },
        {
          "id": 5,
          "value": 0.0
        },
        {
          "id": 6,
          "value": 0.0
        },
        {
          "id": 7,
          "value": 0.0
        },
        {
          "id": 8,
          "value": 15.0
        },
        {
          "id": 9,
          "value": 6.0
        },
        {
          "id": 10,
          "value": 4.0
        },
        {
          "id": 11,
          "value": 0.0
        },
        {
          "id": 12,
          "value": 0.0
        },
        {
          "id": 13,
          "value": 0.0
        },
        {
          "id": 14,
          "value": 0.0
        },
        {
          "id": 15,
          "value": 0.0
        },
        {
          "id": 16,
          "value": 0.0
        },
        {
          "id": 17,
          "value": 1.0
        },
        {
          "id": 18,
          "value": 1.0
        },
        {
          "id": 19,
          "value": 1.0
        },
        {
          "id": 20,
          "value": 0.0
        },
        {
          "id": 21,
          "value": 0.0
        }
      ],
      "leftModuleId": 179,
      "rightModuleId": 175,
      "data": {
        "envMode": 4
      },
      "pos": [
        16,
        0
      ]
    }
  ],
  "cables": [
    {
      "id": 204,
      "outputModuleId": 5,
      "outputId": 1,
      "inputModuleId": 175,
      "inputId": 0,
      "color": "#c9b70e"
    },
    {
      "id": 205,
      "outputModuleId": 5,
      "outputId": 6,
      "inputModuleId": 175,
      "inputId": 2,
      "color": "#c9b70e"
    },
    {
      "id": 206,
      "outputModuleId": 175,
      "outputId": 0,
      "inputModuleId": 177,
      "inputId": 1,
      "color": "#c9b70e"
    },
    {
      "id": 199,
      "outputModuleId": 177,
      "outputId": 0,
      "inputModuleId": 176,
      "inputId": 0,
      "color": "#0986ad"
    },
    {
      "id": 208,
      "outputModuleId": 177,
      "outputId": 1,
      "inputModuleId": 176,
      "inputId": 1,
      "color": "#c91847"
    },
    {
      "id": 209,
      "outputModuleId": 176,
      "outputId": 0,
      "inputModuleId": 1,
      "inputId": 0,
      "color": "#0986ad"
    },
    {
      "id": 210,
      "outputModuleId": 176,
      "outputId": 1,
      "inputModuleId": 1,
      "inputId": 1,
      "color": "#c91847"
    },
    {
      "id": 212,
      "outputModuleId": 5,
      "outputId": 0,
      "inputModuleId": 177,
      "inputId": 5,
      "color": "#c9b70e"
    },
    {
      "id": 215,
      "outputModuleId": 5,
      "outputId": 1,
      "inputModuleId": 175,
      "inputId": 1,
      "color": "#c9b70e"
    },
    {
      "id": 216,
      "outputModuleId": 5,
      "outputId": 6,
      "inputModuleId": 175,
      "inputId": 3,
      "color": "#c9b70e"
    },
    {
      "id": 221,
      "outputModuleId": 179,
      "outputId": 2,
      "inputModuleId": 177,
      "inputId": 3,
      "color": "#0986ad"
    },
    {
      "id": 222,
      "outputModuleId": 5,
      "outputId": 0,
      "inputModuleId": 179,
      "inputId": 0,
      "color": "#c9b70e"
    },
    {
      "id": 225,
      "outputModuleId": 5,
      "outputId": 0,
      "inputModuleId": 180,
      "inputId": 0,
      "color": "#c9b70e"
    },
    {
      "id": 229,
      "outputModuleId": 5,
      "outputId": 1,
      "inputModuleId": 180,
      "inputId": 25,
      "color": "#c9b70e"
    },
    {
      "id": 223,
      "outputModuleId": 180,
      "outputId": 2,
      "inputModuleId": 176,
      "inputId": 6,
      "color": "#c9b70e"
    },
    {
      "id": 228,
      "outputModuleId": 175,
      "outputId": 3,
      "inputModuleId": 176,
      "inputId": 4,
      "color": "#0986ad"
    }
  ]
}