{
  "version": "1.dev.476a49b",
  "modules": [
    {
      "id": 1,
      "plugin": "Core",
      "version": "1.1.6",
      "model": "AudioInterface",
      "params": [],
      "leftModuleId": 156,
      "data": {
        "audio": {
          "driver": 1,
          "deviceName": "hw:HDA NVidia,7",
          "offset": 0,
          "maxChannels": 8,
          "sampleRate": 44100,
          "blockSize": 1024
        }
      },
      "pos": [
        36,
        1
      ]
    },
    {
      "id": 152,
      "plugin": "KautenjaDSP-PotatoChips",
      "version": "1.8.3",
      "model": "SuperVCA",
      "params": [
        {
          "id": 0,
          "value": 0.0
        },
        {
          "id": 1,
          "value": 0.960248351
        },
        {
          "id": 2,
          "value": 1.02813172
        },
        {
          "id": 3,
          "value": 127.0
        },
        {
          "id": 4,
          "value": 127.0
        },
        {
          "id": 5,
          "value": 0.0
        },
        {
          "id": 6,
          "value": 0.0
        },
        {
          "id": 7,
          "value": 0.0
        }
      ],
      "leftModuleId": 159,
      "rightModuleId": 156,
      "data": {
        "filterMode": 1
      },
      "pos": [
        18,
        1
      ]
    },
    {
      "id": 156,
      "plugin": "Fundamental",
      "version": "1.4.0",
      "model": "VCMixer",
      "params": [
        {
          "id": 0,
          "value": 1.0
        },
        {
          "id": 1,
          "value": 1.0
        },
        {
          "id": 2,
          "value": 0.987272024
        },
        {
          "id": 3,
          "value": 0.830293894
        },
        {
          "id": 4,
          "value": 1.0
        }
      ],
      "leftModuleId": 152,
      "rightModuleId": 1,
      "pos": [
        26,
        1
      ]
    },
    {
      "id": 159,
      "plugin": "Fundamental",
      "version": "1.4.0",
      "model": "VCO",
      "params": [
        {
          "id": 0,
          "value": 0.0
        },
        {
          "id": 1,
          "value": 1.0
        },
        {
          "id": 2,
          "value": 2.42990065
        },
        {
          "id": 3,
          "value": 0.0
        },
        {
          "id": 4,
          "value": 0.0
        },
        {
          "id": 5,
          "value": 0.5
        },
        {
          "id": 6,
          "value": 0.0
        }
      ],
      "leftModuleId": 162,
      "rightModuleId": 152,
      "pos": [
        8,
        1
      ]
    },
    {
      "id": 162,
      "plugin": "Core",
      "version": "1.1.6",
      "model": "MIDIToCVInterface",
      "params": [],
      "rightModuleId": 159,
      "data": {
        "channels": 1,
        "polyMode": 0,
        "clockDivision": 24,
        "lastPitch": 8192,
        "lastMod": 0,
        "midi": {
          "driver": -11,
          "deviceName": "QWERTY keyboard (US)",
          "channel": -1
        }
      },
      "pos": [
        0,
        1
      ]
    },
    {
      "id": 163,
      "plugin": "Fundamental",
      "version": "1.4.0",
      "model": "Scope",
      "params": [
        {
          "id": 0,
          "value": 0.0
        },
        {
          "id": 1,
          "value": 0.0
        },
        {
          "id": 2,
          "value": 0.0
        },
        {
          "id": 3,
          "value": 0.0
        },
        {
          "id": 4,
          "value": 14.0
        },
        {
          "id": 5,
          "value": 0.0
        },
        {
          "id": 6,
          "value": 0.0
        },
        {
          "id": 7,
          "value": 0.0
        }
      ],
      "rightModuleId": 165,
      "data": {
        "lissajous": 0,
        "external": 0
      },
      "pos": [
        0,
        2
      ]
    },
    {
      "id": 165,
      "plugin": "Fundamental",
      "version": "1.4.0",
      "model": "Scope",
      "params": [
        {
          "id": 0,
          "value": 0.0
        },
        {
          "id": 1,
          "value": 0.0
        },
        {
          "id": 2,
          "value": 0.0
        },
        {
          "id": 3,
          "value": 0.0
        },
        {
          "id": 4,
          "value": 14.0
        },
        {
          "id": 5,
          "value": 0.0
        },
        {
          "id": 6,
          "value": 0.0
        },
        {
          "id": 7,
          "value": 0.0
        }
      ],
      "leftModuleId": 163,
      "rightModuleId": 166,
      "data": {
        "lissajous": 0,
        "external": 0
      },
      "pos": [
        13,
        2
      ]
    },
    {
      "id": 166,
      "plugin": "Fundamental",
      "version": "1.4.0",
      "model": "Scope",
      "params": [
        {
          "id": 0,
          "value": 0.0
        },
        {
          "id": 1,
          "value": 0.0
        },
        {
          "id": 2,
          "value": 0.0
        },
        {
          "id": 3,
          "value": 0.0
        },
        {
          "id": 4,
          "value": 14.0
        },
        {
          "id": 5,
          "value": 0.0
        },
        {
          "id": 6,
          "value": 0.0
        },
        {
          "id": 7,
          "value": 0.0
        }
      ],
      "leftModuleId": 165,
      "data": {
        "lissajous": 0,
        "external": 0
      },
      "pos": [
        26,
        2
      ]
    },
    {
      "id": 154,
      "plugin": "Bogaudio",
      "version": "1.1.35",
      "model": "Bogaudio-AnalyzerXL",
      "params": [],
      "data": {
        "frequency_plot": "log",
        "range": 0.0,
        "amplitude_plot": "decibels_80",
        "smooth": 0.25,
        "quality": "high",
        "window": "kaiser"
      },
      "pos": [
        0,
        0
      ]
    }
  ],
  "cables": [
    {
      "id": 64,
      "outputModuleId": 162,
      "outputId": 0,
      "inputModuleId": 159,
      "inputId": 0,
      "color": "#c9b70e"
    },
    {
      "id": 12,
      "outputModuleId": 152,
      "outputId": 0,
      "inputModuleId": 156,
      "inputId": 1,
      "color": "#0986ad"
    },
    {
      "id": 14,
      "outputModuleId": 156,
      "outputId": 1,
      "inputModuleId": 1,
      "inputId": 0,
      "color": "#0986ad"
    },
    {
      "id": 69,
      "outputModuleId": 156,
      "outputId": 2,
      "inputModuleId": 1,
      "inputId": 1,
      "color": "#c91847"
    },
    {
      "id": 96,
      "outputModuleId": 152,
      "outputId": 0,
      "inputModuleId": 165,
      "inputId": 0,
      "color": "#0986ad"
    },
    {
      "id": 97,
      "outputModuleId": 152,
      "outputId": 1,
      "inputModuleId": 156,
      "inputId": 2,
      "color": "#c91847"
    },
    {
      "id": 98,
      "outputModuleId": 152,
      "outputId": 1,
      "inputModuleId": 166,
      "inputId": 0,
      "color": "#0986ad"
    },
    {
      "id": 68,
      "outputModuleId": 156,
      "outputId": 2,
      "inputModuleId": 154,
      "inputId": 1,
      "color": "#c91847"
    },
    {
      "id": 61,
      "outputModuleId": 156,
      "outputId": 1,
      "inputModuleId": 154,
      "inputId": 0,
      "color": "#0986ad"
    },
    {
      "id": 88,
      "outputModuleId": 162,
      "outputId": 0,
      "inputModuleId": 152,
      "inputId": 5,
      "color": "#0986ad"
    },
    {
      "id": 95,
      "outputModuleId": 159,
      "outputId": 0,
      "inputModuleId": 163,
      "inputId": 0,
      "color": "#c91847"
    },
    {
      "id": 94,
      "outputModuleId": 159,
      "outputId": 0,
      "inputModuleId": 152,
      "inputId": 3,
      "color": "#0c8e15"
    }
  ]
}
