{
  "version": "1.dev.2db08f1",
  "modules": [
    {
      "id": 1,
      "plugin": "Core",
      "version": "1.1.6",
      "model": "AudioInterface",
      "params": [],
      "leftModuleId": 156,
      "rightModuleId": 168,
      "data": {
        "audio": {
          "driver": 5,
          "deviceName": "Apple Inc.: Built-in Output",
          "offset": 0,
          "maxChannels": 8,
          "sampleRate": 44100,
          "blockSize": 256
        }
      },
      "pos": [
        44,
        0
      ]
    },
    {
      "id": 156,
      "plugin": "Fundamental",
      "version": "1.4.0",
      "model": "VCMixer",
      "params": [
        {
          "id": 0,
          "value": 1.0
        },
        {
          "id": 1,
          "value": 1.0
        },
        {
          "id": 2,
          "value": 1.0
        },
        {
          "id": 3,
          "value": 1.0
        },
        {
          "id": 4,
          "value": 1.0
        }
      ],
      "leftModuleId": 167,
      "rightModuleId": 1,
      "pos": [
        34,
        0
      ]
    },
    {
      "id": 162,
      "plugin": "Core",
      "version": "1.1.6",
      "model": "MIDIToCVInterface",
      "params": [],
      "rightModuleId": 164,
      "data": {
        "channels": 8,
        "polyMode": 0,
        "clockDivision": 24,
        "lastPitch": 8192,
        "lastMod": 0,
        "midi": {
          "driver": -11,
          "deviceName": "QWERTY keyboard (US)",
          "channel": -1
        }
      },
      "pos": [
        0,
        0
      ]
    },
    {
      "id": 164,
      "plugin": "KautenjaDSP-PotatoChips",
      "version": "1.8.0",
      "model": "SuperADSR",
      "params": [
        {
          "id": 0,
          "value": 127.0
        },
        {
          "id": 1,
          "value": -89.0
        },
        {
          "id": 2,
          "value": 10.0
        },
        {
          "id": 3,
          "value": 15.0
        },
        {
          "id": 4,
          "value": 0.0
        },
        {
          "id": 5,
          "value": 2.0
        },
        {
          "id": 6,
          "value": 7.0
        },
        {
          "id": 7,
          "value": 7.0
        },
        {
          "id": 8,
          "value": 14.0
        },
        {
          "id": 9,
          "value": 11.0
        }
      ],
      "leftModuleId": 162,
      "rightModuleId": 167,
      "pos": [
        8,
        0
      ]
    },
    {
      "id": 167,
      "plugin": "Fundamental",
      "version": "1.4.0",
      "model": "VCO",
      "params": [
        {
          "id": 0,
          "value": 1.0
        },
        {
          "id": 1,
          "value": 1.0
        },
        {
          "id": 2,
          "value": 0.0
        },
        {
          "id": 3,
          "value": 0.0
        },
        {
          "id": 4,
          "value": 0.0
        },
        {
          "id": 5,
          "value": 0.5
        },
        {
          "id": 6,
          "value": 0.0
        }
      ],
      "leftModuleId": 164,
      "rightModuleId": 156,
      "pos": [
        24,
        0
      ]
    },
    {
      "id": 168,
      "plugin": "Fundamental",
      "version": "1.4.0",
      "model": "Scope",
      "params": [
        {
          "id": 0,
          "value": 0.0
        },
        {
          "id": 1,
          "value": 0.0
        },
        {
          "id": 2,
          "value": 0.0
        },
        {
          "id": 3,
          "value": 0.0
        },
        {
          "id": 4,
          "value": 7.41503763
        },
        {
          "id": 5,
          "value": 0.0
        },
        {
          "id": 6,
          "value": 0.0
        },
        {
          "id": 7,
          "value": 0.0
        }
      ],
      "leftModuleId": 1,
      "rightModuleId": 169,
      "data": {
        "lissajous": 0,
        "external": 0
      },
      "pos": [
        54,
        0
      ]
    },
    {
      "id": 169,
      "plugin": "Fundamental",
      "version": "1.4.0",
      "model": "Scope",
      "params": [
        {
          "id": 0,
          "value": 0.0
        },
        {
          "id": 1,
          "value": 0.0
        },
        {
          "id": 2,
          "value": 0.0
        },
        {
          "id": 3,
          "value": 0.0
        },
        {
          "id": 4,
          "value": 7.41503763
        },
        {
          "id": 5,
          "value": 0.0
        },
        {
          "id": 6,
          "value": 0.0
        },
        {
          "id": 7,
          "value": 0.0
        }
      ],
      "leftModuleId": 168,
      "data": {
        "lissajous": 0,
        "external": 0
      },
      "pos": [
        67,
        0
      ]
    }
  ],
  "cables": [
    {
      "id": 69,
      "outputModuleId": 156,
      "outputId": 2,
      "inputModuleId": 1,
      "inputId": 1,
      "color": "#c91847"
    },
    {
      "id": 14,
      "outputModuleId": 156,
      "outputId": 1,
      "inputModuleId": 1,
      "inputId": 0,
      "color": "#0986ad"
    },
    {
      "id": 146,
      "outputModuleId": 162,
      "outputId": 6,
      "inputModuleId": 164,
      "inputId": 2,
      "color": "#c9b70e"
    },
    {
      "id": 98,
      "outputModuleId": 164,
      "outputId": 0,
      "inputModuleId": 156,
      "inputId": 5,
      "color": "#c9b70e"
    },
    {
      "id": 152,
      "outputModuleId": 162,
      "outputId": 1,
      "inputModuleId": 164,
      "inputId": 1,
      "color": "#c9b70e"
    },
    {
      "id": 153,
      "outputModuleId": 162,
      "outputId": 6,
      "inputModuleId": 164,
      "inputId": 3,
      "color": "#c9b70e"
    },
    {
      "id": 101,
      "outputModuleId": 162,
      "outputId": 1,
      "inputModuleId": 164,
      "inputId": 0,
      "color": "#c9b70e"
    },
    {
      "id": 154,
      "outputModuleId": 164,
      "outputId": 0,
      "inputModuleId": 156,
      "inputId": 6,
      "color": "#c9b70e"
    },
    {
      "id": 147,
      "outputModuleId": 162,
      "outputId": 0,
      "inputModuleId": 167,
      "inputId": 0,
      "color": "#c9b70e"
    },
    {
      "id": 94,
      "outputModuleId": 167,
      "outputId": 2,
      "inputModuleId": 156,
      "inputId": 2,
      "color": "#c91847"
    },
    {
      "id": 93,
      "outputModuleId": 167,
      "outputId": 2,
      "inputModuleId": 156,
      "inputId": 1,
      "color": "#0986ad"
    },
    {
      "id": 100,
      "outputModuleId": 164,
      "outputId": 0,
      "inputModuleId": 168,
      "inputId": 0,
      "color": "#c9b70e"
    },
    {
      "id": 151,
      "outputModuleId": 164,
      "outputId": 1,
      "inputModuleId": 169,
      "inputId": 0,
      "color": "#c9b70e"
    }
  ]
}
